<svg xmlns="http://www.w3.org/2000/svg" width="119" height="98" viewBox="0 0 119 98" fill="none">
<path d="M35.3656 31.6165C37.1395 30.2902 38.6382 30.4103 42.1246 29.6256C47.7127 28.3637 50.0604 26.6539 53.2365 25.4974C61.1957 22.5959 69.4652 24.944 76.6223 26.9789C88.0738 30.2346 88.6065 33.9968 96.4106 33.9646C103.661 33.9324 110.157 30.6533 110.906 32.164C111.465 33.2912 108.161 35.7448 108.685 36.5031C109.434 37.5922 116.465 32.855 117.785 34.2808C119.302 35.9175 112.314 44.6248 111.436 45.7111C110.139 47.3126 106.068 52.3484 101.595 55.6598C86.5516 66.8002 63.4848 61.0499 59.6911 60.1042C57.0478 59.4455 32.5173 53.3322 31.4401 41.6882C31.1796 38.8687 32.1368 34.0291 35.3685 31.6136L35.3656 31.6165Z" stroke="#E6643A" stroke-width="1.5" stroke-linecap="round" stroke-linejoin="round"/>
<path d="M41.9721 29.6137C42.8854 27.6052 44.7325 22.827 43.8104 16.8161C43.4357 14.3743 42.4697 8.02974 36.8904 4.1006C36.0678 3.5209 29.3 -1.08457 22.7693 2.13018C19.4586 3.76098 16.382 7.31828 16.2444 11.303C16.1391 14.3041 17.6232 16.7839 18.4955 18.2244C19.7279 20.2593 21.1652 21.6353 22.178 22.4668" stroke="#E6643A" stroke-width="1.5" stroke-linecap="round" stroke-linejoin="round"/>
<path d="M16.167 13.2036C14.9639 14.893 13.8544 16.1373 13.0992 16.9307C10.4383 19.7239 7.95602 22.3326 4.20327 24.3733C2.92699 25.0672 0.904247 26.0216 1.00377 27.1166C1.03305 27.4445 1.24674 27.6993 1.42823 27.8662C3.49487 27.9716 6.69437 27.9071 10.3476 26.7711C12.7187 26.0333 13.2134 25.4888 16.5885 24.3586C21.1609 22.8274 24.0647 21.8963 26.0406 23.3456C26.9773 24.0336 27.7121 25.2662 27.6711 26.4959C27.5979 28.7533 24.9488 29.9918 22.9114 31.687C18.6347 35.2472 17.4696 40.4851 16.8988 43.0469C14.9727 51.6986 21.5239 59.8614 22.9875 61.6854C34.1345 75.575 55.0995 75.1066 60.635 74.9836C63.29 74.9251 65.5088 74.6967 67.0896 74.4859C67.2506 75.2998 67.435 76.5032 67.4438 77.9612C67.4613 80.5728 66.7968 82.7131 65.462 86.8911C64.8004 88.9669 64.5106 89.5759 63.9515 90.2142C62.7572 91.5727 61.1677 92.0675 59.95 92.3427C53.0153 93.912 47.1754 90.7968 45.9372 92.7819C45.4571 93.5519 45.9723 94.5971 46.025 94.6966C46.83 96.2777 49.4733 96.3684 52.7255 96.4387C67.3911 96.7549 63.6705 96.4211 66.4573 96.5558C70.9418 96.7725 73.2661 97.2702 75.0663 95.6131C76.088 94.6703 76.7876 93.1566 76.3426 92.5125C75.7923 91.7191 73.9628 92.9107 72.2854 92.006C70.7633 91.1833 70.3681 89.1748 70.1427 88.0241C69.6392 85.4682 70.3564 83.9955 70.8511 80.848C71.1028 79.2407 71.3341 76.9453 71.1877 74.0848C73.0465 73.8505 75.9855 73.3733 79.4689 72.3105C84.3311 70.8261 85.0512 69.7867 91.4678 67.6611C95.6772 66.2675 97.7789 65.5707 100.34 65.3804C103.057 65.1754 104.649 65.5033 104.989 64.7889C105.328 64.0775 104.395 62.3764 98.1683 57.8851" stroke="#E6643A" stroke-width="1.5" stroke-linecap="round" stroke-linejoin="round"/>
<path d="M24.67 8.31732C25.5482 8.24705 26.6664 8.65988 26.8216 9.34206C27.0206 10.2204 25.6009 11.4647 24.187 11.5438C23.4786 11.5818 22.419 11.3505 22.2141 10.724C21.9389 9.88663 23.2298 8.43151 24.673 8.31732H24.67Z" stroke="#E6643A" stroke-width="1.5" stroke-linecap="round" stroke-linejoin="round"/>
</svg>

