<svg xmlns="http://www.w3.org/2000/svg" width="190" height="92" viewBox="0 0 190 92" fill="none">
<path d="M149.266 28.2703C148.885 27.1951 147.905 24.9296 145.604 23.2503C142.739 21.161 139.529 21.2185 138.457 21.2437C138.061 21.2509 137.748 21.276 137.545 21.294C134.049 21.5925 133.519 23.0812 126.118 26.6485C122.506 28.389 120.649 29.27 118.159 29.7375C117.282 29.9029 113.894 30.4854 109.284 29.6332C104.317 28.7198 103.387 27.1519 98.7733 25.5157C93.372 23.5991 91.9789 24.8037 82.0242 23.5379C76.8616 22.8835 77.2178 22.5562 69.3902 21.1897C67.4484 20.8517 63.8891 20.2548 47.6566 18.3057C43.2707 17.7807 36.5333 16.9824 27.7614 15.731C16.1678 14.0517 13.7593 13.372 11.2332 11.3043C5.16918 6.34541 4.26421 0.803954 2.86399 1.00533C1.60629 1.18873 0.337906 6.09728 1.39252 11.1425C2.93169 18.5143 8.76057 23.0237 13.1714 26.3392C17.7319 29.7662 22.5382 31.9886 32.1473 36.4296C36.7791 38.5693 42.5652 41.0469 47.6566 47.0379C48.4262 47.9405 49.0105 48.7316 49.3988 49.2782" stroke="#E6643A" stroke-width="1.5" stroke-linecap="round" stroke-linejoin="round"/>
<path d="M49.2817 49.5946C50.3506 48.4979 52.0857 46.8293 54.4194 45.0637C61.0179 40.0796 66.1983 39.0368 74.2148 35.4048C77.2575 34.0275 81.6684 31.8375 86.8203 28.5508" stroke="#E6643A" stroke-width="1.5" stroke-linecap="round" stroke-linejoin="round"/>
<path d="M46.2142 73.9868C45.4233 74.4471 44.2582 74.9901 42.7725 75.2346C39.5338 75.7668 36.9614 74.5226 36.0137 74.0012C35.4793 72.2032 36.37 70.8547 37.617 69.6428C38.9887 68.3087 39.826 67.7585 41.358 66.09C42.6157 64.7235 43.3889 63.3067 43.877 62.1919" stroke="#E6643A" stroke-width="1.5" stroke-linecap="round" stroke-linejoin="round"/>
<path d="M70.3885 68.1865C67.6273 73.4978 65.6962 77.5182 64.3601 80.4022C64.3601 80.4022 62.6606 84.0737 59.4077 87.8387C58.7237 88.6298 57.5657 89.8669 55.7059 90.4602C55.1643 90.6328 54.5907 90.7443 53.9886 90.7839C54.5301 89.8273 55.1786 88.3745 54.3449 87.3928C53.8247 86.9469 53.1121 86.5873 52.0432 86.5873C51.687 86.5873 50.6181 86.5873 51.687 85.1489C52.029 84.8612 52.3817 84.5771 52.7558 84.2931C55.371 82.3188 58.0716 81.1106 60.4944 80.3518C62.3222 76.8385 64.1464 73.3216 65.9741 69.8083" stroke="#E6643A" stroke-width="1.5" stroke-linecap="round" stroke-linejoin="round"/>
<path d="M144.796 35.8438C141.875 37.5626 138.565 37.595 135.305 37.764C132.016 37.9366 128.728 38.3753 125.539 39.224C119.578 40.8134 115.616 43.7478 108.401 49.9869C100.167 57.1034 101.304 58.3188 94.5559 63.2993C87.7935 68.287 82.0751 70.4446 80.3186 71.0739C75.2415 72.8935 70.7522 73.5983 67.5278 73.8896" stroke="#E6643A" stroke-width="1.5" stroke-linecap="round" stroke-linejoin="round"/>
<path d="M86.8205 28.5511C86.653 28.6626 86.4001 28.8208 86.0651 28.9575C83.1151 30.1657 79.8835 27.1846 77.3254 26.0771C74.0653 24.6638 73.2637 25.4657 63.7437 25.0306C61.0181 24.9048 54.6405 24.5955 47.5646 23.4592C45.9613 23.2002 40.3213 22.2617 33.1171 20.14C28.2609 18.7124 22.3572 16.6483 15.8442 13.6133" stroke="#E6643A" stroke-width="1.5" stroke-linecap="round" stroke-linejoin="round"/>
<path d="M49.3993 49.2783C48.1701 51.5007 46.1357 54.5069 42.897 57.301C41.454 58.5488 38.4968 60.8503 34.2036 62.4793C28.9162 64.4859 24.9329 64.2054 24.9507 64.7232C24.9686 65.2554 28.8343 65.7121 32.3936 65.5071C33.7368 65.428 36.1026 65.277 39.0099 64.3061C42.9576 62.9899 45.7936 60.8719 47.5359 59.2968" stroke="#E6643A" stroke-width="1.5" stroke-linecap="round" stroke-linejoin="round"/>
<path d="M24.9546 64.7197C25.0935 66.1977 25.4961 67.2585 25.8346 67.9525C26.6149 69.5528 27.5804 70.2899 27.3845 71.4479C27.242 72.2929 26.6006 72.5411 26.7645 72.9618C26.989 73.5479 28.2538 73.1272 30.2277 73.5875C32.0732 74.0154 32.4616 74.7274 33.6908 74.58C34.5958 74.4685 35.2834 73.9723 35.7109 73.5875" stroke="#E6643A" stroke-width="1.5" stroke-linecap="round" stroke-linejoin="round"/>
<path d="M50.1293 63.1089C50.2682 64.0259 50.368 65.4211 50.0224 67.0429C49.6411 68.8229 48.9036 70.0168 47.9951 71.4588C47.3858 72.4261 46.1459 74.3608 43.9904 76.3602C42.9465 77.3275 41.7707 78.2373 40.1995 80.0785C39.462 80.9451 38.7351 81.9016 39.0237 82.6101C39.2161 83.0811 39.6009 83.1279 40.4133 83.7967C41.7743 84.9187 41.6781 85.6954 42.2802 85.8465C43.8693 86.242 46.3811 81.3011 46.7409 80.5963C48.387 77.3599 47.6922 77.1405 49.2172 74.7204C50.1827 73.1921 51.0663 72.3111 51.7575 70.3441C52.153 69.2221 52.3062 68.244 52.3774 67.5931" stroke="#E6643A" stroke-width="1.5" stroke-linecap="round" stroke-linejoin="round"/>
<path d="M59.949 80.107C59.4751 79.9451 58.7127 79.7617 57.8505 79.9379C56.354 80.2436 55.7662 81.3835 54.8648 81.1318C54.1486 80.9304 54.2911 80.1537 53.5251 79.8337C52.3529 79.341 51.2912 80.8549 50.0762 80.5097C49.5953 80.3731 48.9611 79.9056 48.4658 78.3018" stroke="#E6643A" stroke-width="1.5" stroke-linecap="round" stroke-linejoin="round"/>
<path d="M140.136 25.1022C140.157 24.6491 139.306 24.1133 138.529 24.1601C137.674 24.2104 136.862 24.9656 136.972 25.4151C137.072 25.825 137.934 25.9509 138.422 25.9401C139.145 25.9221 140.111 25.5769 140.132 25.1022H140.136Z" stroke="#E6643A" stroke-width="1.5" stroke-linecap="round" stroke-linejoin="round"/>
<path d="M150.713 29.4465C149.312 28.5116 149.223 28.6266 148.083 27.7816C146.512 26.6165 145.678 25.6527 145.425 25.8397C145.151 26.0375 146.12 27.1307 145.974 28.7381C145.842 30.2089 144.848 31.2589 144.691 31.4207C143.569 32.5787 142.489 32.4132 142.336 33.1468C142.14 34.0926 143.765 35.1498 143.957 35.2757C144.951 35.9229 145.899 36.0704 147.688 36.2322C150.695 36.5055 150.787 36.3437 152.608 36.5415C155.056 36.8076 155.629 37.1851 157.653 37.1276C158.782 37.0952 160.457 37.0449 160.649 36.3868C160.874 35.6029 158.889 34.3803 158.387 34.0746C156.837 33.1217 156.463 33.4237 154.902 32.6254C153.171 31.7372 153.403 31.2445 150.716 29.4465H150.713Z" stroke="#E6643A" stroke-width="1.5" stroke-linecap="round" stroke-linejoin="round"/>
<path d="M149.719 30.1767C149.199 29.8063 148.408 29.6158 148.255 29.8567C148.127 30.0545 148.422 30.5471 148.807 30.7773C149.338 31.0973 150.101 30.9571 150.168 30.7125C150.218 30.5291 149.88 30.2882 149.723 30.1767H149.719Z" stroke="#E6643A" stroke-width="1.5" stroke-linecap="round" stroke-linejoin="round"/>
<path d="M125.826 39.2061C126.535 39.4002 127.7 39.7311 129.118 40.2022C135.788 42.4209 140.398 45.1934 141.884 46.0601C150.692 51.2095 162.827 55.7189 170.939 58.7072C181.731 62.6808 188.519 64.2379 188.33 65.2484C188.195 65.964 184.689 65.7842 175.475 65.3563C151.618 64.2487 152.473 64.3853 150.524 64.1588C143.174 63.2921 136.404 61.9508 125.573 59.7968C122.94 59.2754 120.14 58.6964 116.63 58.2074C115.472 58.0456 114.657 57.9557 112.611 57.7255C109.889 57.4199 106.262 57.0135 101.912 56.5316" stroke="#E6643A" stroke-width="1.5" stroke-linecap="round" stroke-linejoin="round"/>
</svg>