<svg xmlns="http://www.w3.org/2000/svg" width="112" height="105" viewBox="0 0 112 105" fill="none">
<path d="M25.5721 81.5817C21.6112 79.5541 21.8059 72.0562 21.9509 68.0961C22.2534 59.9154 24.5115 54.0767 28.1534 44.8284C30.3079 39.3621 32.8643 32.9566 37.5047 25.2765C40.2475 20.7413 41.0969 20.0958 43.9267 15.093C48.9566 6.19226 50.4855 0.771532 51.3556 1.0074C52.3085 1.26395 51.9025 8.18262 49.8433 15.0889C46.8933 24.9869 43.4544 25.1276 42.4144 32.9442C41.7349 38.0463 42.8826 40.4008 40.7779 44.5139C38.9051 48.176 37.2271 47.816 35.114 51.176C32.9968 54.5484 33.6349 56.5761 32.7234 68.1499C31.932 78.1472 31.1117 81.0024 29.0732 81.8548C27.478 82.5211 25.7917 81.6893 25.5763 81.5776L25.5721 81.5817Z" stroke="#E6643A" stroke-width="1.5" stroke-linecap="round" stroke-linejoin="round"/>
<path d="M39.9278 21.2628C39.0618 18.4696 38.0177 14.5344 37.3175 9.72198C36.841 6.43644 36.2693 2.48469 37.2056 2.16193C38.6061 1.67779 42.6872 9.59784 43.0973 10.3965C43.7644 11.6958 44.2657 12.8006 44.6013 13.5786" stroke="#E6643A" stroke-width="1.5" stroke-linecap="round" stroke-linejoin="round"/>
<path d="M43.1089 30.0888C44.501 28.9757 46.6721 27.2378 49.3279 25.1026C53.6534 21.6184 57.4197 18.4405 62.1388 15.0474C70.6863 8.89421 71.8547 8.71628 72.6171 9.16318C73.2013 9.50663 74.0341 10.4956 73.164 18.8088C72.2566 27.4861 71.0965 28.8516 71.0385 32.9689C70.9556 38.9234 73.3421 38.8365 75.7287 48.2876C77.3031 54.5152 77.5061 59.4559 77.8956 68.7415C78.1069 73.7981 78.0696 78.0354 77.9867 81.085" stroke="#E6643A" stroke-width="1.5" stroke-linecap="round" stroke-linejoin="round"/>
<path d="M54.188 75.7762C55.6174 77.1583 57.5523 79.2645 59.3712 82.1652C61.0161 84.7887 61.8488 86.0963 62.2342 88.0784C62.7645 90.7929 61.94 91.9225 61.4718 98.5681C61.2522 101.68 61.3144 103.099 61.853 103.273C62.7977 103.575 64.0199 99.6605 66.1827 99.6481C68.2212 99.6357 69.4683 103.103 70.3839 102.764C71.3949 102.392 69.9116 98.1584 71.5316 97.0412C73.077 95.9736 76.1803 98.626 76.6237 98.0591C77.1374 97.4012 73.3008 93.3832 70.2596 90.557C69.5967 89.9404 69.0995 89.5018 68.7142 89.1708C68.0637 88.608 67.7405 88.4425 67.3386 87.9749C66.829 87.379 66.5887 86.8163 66.4686 86.5432C66.3277 86.2163 63.5849 79.8893 61.4138 76.521C60.7633 75.5155 59.7275 74.0879 58.1406 72.5527" stroke="#E6643A" stroke-width="1.5" stroke-linecap="round" stroke-linejoin="round"/>
<path d="M77.5781 58.4502C78.4938 58.8392 80.1179 59.6833 81.5266 61.3757C82.4257 62.4557 82.9395 63.5316 83.2337 64.3095" stroke="#E6643A" stroke-width="1.5" stroke-linecap="round" stroke-linejoin="round"/>
<path d="M81.55 65.0546C82.9462 64.0656 84.877 64.9925 85.2416 65.1828C86.7373 65.9525 87.3174 67.2767 88.233 69.1263C88.233 69.1263 89.882 72.4408 91.7962 75.6105C93.7518 78.8422 95.2931 80.8864 97.9075 82.8602C99.5855 84.1223 100.323 84.2423 102.954 86.274C104.118 87.172 106.985 89.394 106.604 90.1306C106.223 90.8672 103.095 89.154 101.819 90.4203C100.489 91.7444 102.395 95.1086 101.479 95.6713C100.427 96.3127 97.5719 92.0754 95.6494 92.7954C94.133 93.3623 94.3111 96.5982 93.7062 96.59C92.9853 96.5775 92.4798 91.9803 92.3514 90.6892C91.9329 86.5182 92.4011 86.5968 91.9992 84.5899C91.3653 81.3995 90.3378 81.954 88.1667 76.5622C87.8311 75.7305 86.9155 73.3884 85.1131 71.096C84.6781 70.5456 83.6837 69.3498 82.8841 69.5691C82.333 69.7222 82.2957 70.4298 81.8648 70.4587C81.2102 70.5001 80.2697 68.9029 80.4023 67.3429C80.4271 67.0615 80.5349 65.7746 81.55 65.0546Z" stroke="#E6643A" stroke-width="1.5" stroke-linecap="round" stroke-linejoin="round"/>
<path d="M83.366 69.8716C83.7638 70.2978 85.8022 72.553 85.3548 75.3378C84.9363 77.9365 82.6161 79.3516 80.9339 80.3737C78.7297 81.7144 76.7824 82.0455 73.1943 82.6248C71.218 82.9434 68.5166 83.2744 65.2642 83.3489" stroke="#E6643A" stroke-width="1.5" stroke-linecap="round" stroke-linejoin="round"/>
<path d="M60.1675 83.9566C55.0216 84.0145 49.5566 83.9152 43.8099 83.6049C38.0425 83.2945 32.5817 82.8021 27.4565 82.1938" stroke="#E6643A" stroke-width="1.5" stroke-linecap="round" stroke-linejoin="round"/>
<path d="M17.4842 67.1489C16.4069 67.3144 12.3838 68.0676 9.54158 71.6427C9.03196 72.2841 5.19532 77.1173 7.42438 82.1325C9.33028 86.4194 14.1364 87.4084 14.6626 87.5118" stroke="#E6643A" stroke-width="1.5" stroke-linecap="round" stroke-linejoin="round"/>
<path d="M17.7488 60.8877C11.679 60.8753 6.06488 64.0698 3.09832 69.263C-1.13608 76.6699 2.29453 84.1389 2.61356 84.7969" stroke="#E6643A" stroke-width="1.5" stroke-linecap="round" stroke-linejoin="round"/>
<path d="M15.1875 71.998C15.7468 73.496 17.6652 78.0312 22.5128 80.6381C24.5098 81.714 26.4115 82.136 27.8078 82.314" stroke="#E6643A" stroke-width="1.5" stroke-linecap="round" stroke-linejoin="round"/>
<path d="M96.9722 81.8217C98.1738 81.441 99.9347 80.7997 101.915 79.7279C103.85 78.6769 110.732 74.9486 111.159 70.9265C111.602 66.7471 105.18 61.223 95.0249 58.8892" stroke="#E6643A" stroke-width="1.5" stroke-linecap="round" stroke-linejoin="round"/>
<path d="M71.0884 90.9711C74.6433 90.3917 78.7824 89.4483 83.2654 87.8883C86.4225 86.7876 89.2358 85.5628 91.6886 84.3462" stroke="#E6643A" stroke-width="1.5" stroke-linecap="round" stroke-linejoin="round"/>
<path d="M47.9829 91.9062C49.9427 92.2869 52.209 92.6097 54.7364 92.7463C57.4337 92.8952 59.8616 92.8083 61.9539 92.618" stroke="#E6643A" stroke-width="1.5" stroke-linecap="round" stroke-linejoin="round"/>
<path d="M51.2466 74.5967C52.5849 75.954 53.3058 76.1443 53.7242 75.9622C54.6979 75.5443 54.0474 73.0946 55.2614 72.445C56.2599 71.907 57.4946 73.1402 58.1451 72.5526C58.7541 72.0064 58.1534 70.5084 58.1078 70.3967C57.5567 69.056 56.3096 68.4932 55.9616 68.3525" stroke="#E6643A" stroke-width="1.5" stroke-linecap="round" stroke-linejoin="round"/>
<path d="M59.4009 46.6074C60.1218 46.7854 61.0126 47.075 61.9738 47.5757C63.3784 48.3081 64.3728 49.1936 65.0108 49.864" stroke="#E6643A" stroke-width="1.5" stroke-linecap="round" stroke-linejoin="round"/>
<path d="M63.5779 45.5107C63.1304 46.239 62.4799 47.5218 62.3183 49.2308C62.2355 50.0956 62.2976 50.8528 62.397 51.4446" stroke="#E6643A" stroke-width="1.5" stroke-linecap="round" stroke-linejoin="round"/>
</svg>