<svg xmlns="http://www.w3.org/2000/svg" width="214" height="103" viewBox="0 0 214 103" fill="none">
<path d="M168.628 31.6572C168.197 30.4484 167.089 27.9016 164.487 26.0137C161.248 23.6649 157.619 23.7296 156.406 23.7579C155.959 23.766 155.605 23.7943 155.375 23.8145C151.424 24.15 150.823 25.8237 142.457 29.8339C138.372 31.7906 136.274 32.781 133.458 33.3066C132.467 33.4925 128.636 34.1474 123.424 33.1893C117.809 32.1625 116.757 30.3999 111.541 28.5605C105.434 26.4058 103.859 27.7601 92.6046 26.3371C86.7678 25.6013 87.1707 25.2334 78.3208 23.6972C76.1255 23.3172 72.1014 22.6462 53.7492 20.4551C48.7905 19.8648 41.1733 18.9674 31.256 17.5605C18.1485 15.6726 15.4254 14.9086 12.5695 12.5841C5.7136 7.00929 4.69046 0.779606 3.1074 1.00599C1.68546 1.21217 0.251447 6.73035 1.44378 12.4022C3.18393 20.6895 9.77397 25.759 14.7608 29.4863C19.9168 33.3389 25.3508 35.8372 36.2147 40.8299C41.4513 43.2352 47.993 46.0206 53.7492 52.7556C54.6193 53.7703 55.2799 54.6597 55.7189 55.2742" stroke="black" stroke-width="1.5" stroke-linecap="round" stroke-linejoin="round"/>
<path d="M55.5859 55.6299C56.7944 54.3969 58.7561 52.5211 61.3945 50.5361C68.8546 44.9331 74.7115 43.7607 83.7749 39.6777C87.2149 38.1293 92.2017 35.6674 98.0264 31.9724" stroke="black" stroke-width="1.5" stroke-linecap="round" stroke-linejoin="round"/>
<path d="M52.1177 83.0511C51.2235 83.5685 49.9063 84.179 48.2265 84.4539C44.5649 85.0522 41.6566 83.6534 40.5851 83.0672C39.9809 81.0459 40.9879 79.5299 42.3978 78.1676C43.9486 76.6678 44.8952 76.0492 46.6273 74.1735C48.0493 72.6373 48.9234 71.0445 49.4752 69.7913" stroke="black" stroke-width="1.5" stroke-linecap="round" stroke-linejoin="round"/>
<path d="M79.4487 76.5303C76.3269 82.5012 74.1437 87.0209 72.6331 90.2631C72.6331 90.2631 70.7117 94.3906 67.034 98.6232C66.2606 99.5126 64.9514 100.903 62.8488 101.57C62.2365 101.764 61.5879 101.89 60.9072 101.934C61.5195 100.859 62.2526 99.2256 61.31 98.1219C60.7219 97.6206 59.9163 97.2164 58.7078 97.2164C58.305 97.2164 57.0966 97.2164 58.305 95.5993C58.6917 95.2759 59.0905 94.9566 59.5135 94.6372C62.4701 92.4178 65.5234 91.0595 68.2626 90.2065C70.329 86.2568 72.3914 82.3031 74.4579 78.3535" stroke="black" stroke-width="1.5" stroke-linecap="round" stroke-linejoin="round"/>
<path d="M163.573 40.1709C160.27 42.1033 156.527 42.1397 152.842 42.3297C149.124 42.5237 145.406 43.0169 141.801 43.971C135.061 45.7578 130.582 49.0566 122.425 56.0705C113.116 64.0709 114.401 65.4373 106.772 71.0363C99.1264 76.6435 92.6612 79.069 90.6754 79.7765C84.9353 81.8221 79.8598 82.6144 76.2144 82.9419" stroke="black" stroke-width="1.5" stroke-linecap="round" stroke-linejoin="round"/>
<path d="M98.0263 31.9725C97.837 32.0978 97.551 32.2757 97.1723 32.4293C93.837 33.7876 90.1835 30.4363 87.2913 29.1912C83.6056 27.6024 82.6992 28.5039 71.936 28.0148C68.8545 27.8733 61.6442 27.5256 53.6443 26.2481C51.8316 25.9571 45.4551 24.902 37.3102 22.5168C31.8198 20.9119 25.1452 18.5914 17.7817 15.1794" stroke="black" stroke-width="1.5" stroke-linecap="round" stroke-linejoin="round"/>
<path d="M55.7188 55.2742C54.3291 57.7725 52.029 61.1521 48.3674 64.2933C46.736 65.6961 43.3927 68.2833 38.5388 70.1146C32.561 72.3704 28.0576 72.0551 28.0777 72.6372C28.0978 73.2355 32.4684 73.749 36.4925 73.5185C38.0111 73.4296 40.6858 73.2598 43.9727 72.1683C48.4359 70.6887 51.6423 68.3076 53.6121 66.5369" stroke="black" stroke-width="1.5" stroke-linecap="round" stroke-linejoin="round"/>
<path d="M28.082 72.6331C28.2391 74.2946 28.6943 75.4871 29.077 76.2674C29.9591 78.0663 31.0508 78.8951 30.8292 80.1968C30.6681 81.1468 29.943 81.4258 30.1283 81.8988C30.3821 82.5577 31.8121 82.0847 34.0437 82.6022C36.1303 83.0832 36.5693 83.8837 37.959 83.7179C38.9822 83.5926 39.7596 83.0347 40.243 82.6022" stroke="black" stroke-width="1.5" stroke-linecap="round" stroke-linejoin="round"/>
<path d="M56.5449 70.822C56.702 71.8529 56.8148 73.4214 56.4241 75.2446C55.9931 77.2457 55.1593 78.5879 54.1321 80.209C53.4433 81.2965 52.0415 83.4714 49.6045 85.7191C48.4242 86.8066 47.0949 87.8293 45.3185 89.8992C44.4847 90.8734 43.6629 91.9488 43.9892 92.7452C44.2067 93.2748 44.6418 93.3273 45.5602 94.0792C47.099 95.3405 46.9902 96.2137 47.6709 96.3835C49.4675 96.8282 52.3073 91.2737 52.7142 90.4813C54.5752 86.8429 53.7897 86.5963 55.5137 83.8757C56.6054 82.1575 57.6043 81.1671 58.3858 78.9558C58.8329 77.6945 59.0061 76.5949 59.0867 75.8632" stroke="black" stroke-width="1.5" stroke-linecap="round" stroke-linejoin="round"/>
<path d="M67.6463 89.9315C67.1105 89.7496 66.2485 89.5434 65.2737 89.7415C63.5819 90.0851 62.9172 91.3666 61.8981 91.0836C61.0885 90.8573 61.2496 89.984 60.3835 89.6243C59.0583 89.0704 57.8579 90.7724 56.4843 90.3843C55.9405 90.2307 55.2235 89.7051 54.6636 87.9021" stroke="black" stroke-width="1.5" stroke-linecap="round" stroke-linejoin="round"/>
<path d="M158.304 28.0956C158.328 27.5862 157.365 26.9839 156.487 27.0364C155.52 27.093 154.602 27.942 154.727 28.4473C154.84 28.9082 155.814 29.0496 156.366 29.0375C157.184 29.0173 158.276 28.6292 158.3 28.0956H158.304Z" stroke="black" stroke-width="1.5" stroke-linecap="round" stroke-linejoin="round"/>
<path d="M170.263 32.9792C168.68 31.9281 168.579 32.0575 167.29 31.1074C165.514 29.7976 164.571 28.7142 164.285 28.9244C163.975 29.1468 165.071 30.3757 164.906 32.1828C164.757 33.8362 163.633 35.0166 163.456 35.1986C162.187 36.5003 160.966 36.3143 160.793 37.139C160.571 38.2022 162.408 39.3908 162.626 39.5323C163.75 40.2599 164.821 40.4257 166.843 40.6076C170.243 40.9148 170.348 40.7329 172.406 40.9553C175.173 41.2544 175.822 41.6789 178.11 41.6142C179.387 41.5778 181.28 41.5212 181.498 40.7814C181.751 39.9001 179.508 38.5256 178.94 38.182C177.187 37.1107 176.764 37.4503 175 36.5528C173.042 35.5543 173.304 35.0005 170.267 32.9792H170.263Z" stroke="black" stroke-width="1.5" stroke-linecap="round" stroke-linejoin="round"/>
<path d="M169.139 33.7996C168.551 33.3832 167.657 33.169 167.484 33.4398C167.339 33.6622 167.673 34.216 168.108 34.4747C168.708 34.8345 169.57 34.6769 169.647 34.402C169.703 34.1958 169.32 33.9249 169.143 33.7996H169.139Z" stroke="black" stroke-width="1.5" stroke-linecap="round" stroke-linejoin="round"/>
<path d="M142.127 43.9507C142.928 44.169 144.246 44.5409 145.849 45.0705C153.389 47.5648 158.602 50.6817 160.282 51.6559C170.239 57.445 183.959 62.5144 193.131 65.8738C205.332 70.3409 213.006 72.0914 212.792 73.2274C212.639 74.0319 208.676 73.8297 198.259 73.3486C171.286 72.1035 172.253 72.2571 170.05 72.0025C161.74 71.0282 154.086 69.5203 141.841 67.0987C138.864 66.5126 135.698 65.8617 131.73 65.3119C130.421 65.13 129.498 65.0289 127.186 64.7702C124.109 64.4266 120.008 63.9698 115.09 63.428" stroke="black" stroke-width="1.5" stroke-linecap="round" stroke-linejoin="round"/>
</svg>
