<svg xmlns="http://www.w3.org/2000/svg" width="206" height="163" viewBox="0 0 206 163" fill="none">
<path d="M89.9808 55.9261C92.2609 54.8902 95.2254 53.517 98.6534 51.8464C99.1121 51.6245 101.314 50.5783 103.846 49.26C108.669 46.7441 111.448 44.9445 119.607 40.7985C132.445 34.2742 132.253 35.3302 137.39 31.9444C145.645 26.5078 146.806 23.3433 150.679 23.6639C157.127 24.1957 162.261 33.8704 163.687 39.8795C164.119 41.6967 164.565 43.5851 164.336 46.0757C163.94 50.3704 161.953 51.8751 162.369 56.0689C162.551 57.9096 163.084 59.3409 163.476 60.2737C165.038 63.9888 167.678 65.8554 170.176 72.9245C171.139 75.6426 175.77 87.968 169.693 95.9998C167.949 98.3035 165.734 99.7172 159.402 102.452C141.806 110.055 130.258 112.217 130.258 112.217C89.4512 119.861 57.2437 125.895 48.9414 114.815C46.823 111.987 46.0447 107.758 46.6159 104.36C47.4088 99.6419 50.6934 97.1903 56.2823 86.2252C56.5807 85.6349 56.7331 85.3345 56.8636 85.0569C58.2054 82.1731 60.682 75.4107 56.94 69.5539C56.1602 68.3295 54.4789 66.16 51.0105 64.2463" stroke="black" stroke-width="1.5" stroke-linecap="round" stroke-linejoin="round"/>
<path d="M53.5862 61.8988C53.4498 63.2164 51.4312 63.9641 49.3608 64.7024C47.2948 65.4414 45.6613 65.7097 44.9878 65.8394C41.3766 66.531 39.951 68.084 36.5708 70.0073C34.829 70.9958 29.1941 74.2074 22.1937 74.7347C18.7633 74.9939 12.1116 74.8256 11.1934 72.6457C10.1969 70.2838 16.3008 66.425 21.9881 62.8263C27.2624 59.4921 28.7082 59.3995 31.348 57.1895C35.2266 53.9417 37.4116 49.6968 38.5038 45.0708C38.3661 45.5606 38.1124 46.7883 38.8217 48.1067C39.0691 48.5595 39.2784 48.9521 39.7247 49.2161C41.2045 50.0906 43.832 48.7097 45.5056 47.827C46.6724 47.211 48.2616 46.2292 49.8666 44.6934C49.5656 45.6418 49.1615 46.9871 48.7589 48.6188C47.6049 53.2908 47.052 55.6541 48.2703 56.9884C49.3215 58.1399 50.6227 57.8381 52.3616 59.6901C53.0294 60.4022 53.679 61.0919 53.5962 61.893L53.5862 61.8988Z" stroke="black" stroke-width="1.5" stroke-linecap="round" stroke-linejoin="round"/>
<path d="M40.0461 57.4657C39.1575 57.7508 37.9367 57.5105 37.7531 57.0501C37.5361 56.5036 38.7448 55.5329 40.0185 55.432C40.1495 55.4214 41.1204 55.3457 41.3815 55.7476C41.6819 56.2025 41.0011 57.1583 40.0418 57.4649L40.0461 57.4657Z" stroke="black" stroke-width="1.5" stroke-linecap="round" stroke-linejoin="round"/>
<path d="M38.4991 45.0738C39.517 42.3563 41.2579 38.9651 44.3177 35.6415C46.9287 32.8046 49.5855 29.9113 54.4374 28.6132C59.5935 27.2329 64.182 28.4192 66.6952 29.0692C67.7588 29.3421 73.1398 30.7978 78.3714 35.1171C84.9511 40.5464 86.9919 46.9224 88.4233 51.552C89.3999 54.7112 91.409 61.459 89.9532 69.6876C88.4943 77.9577 84.8239 80.45 84.878 88.5519C84.903 92.6635 85.8777 96.0549 86.6579 98.2098" stroke="black" stroke-width="1.5" stroke-linecap="round" stroke-linejoin="round"/>
<path d="M130.631 88.8132C140.52 78.9096 147.411 73.63 152.161 70.5822C153.501 69.7267 156.771 67.6959 159.24 63.9256C161.598 60.3222 162.204 56.6835 162.339 54.149" stroke="black" stroke-width="1.5" stroke-linecap="round" stroke-linejoin="round"/>
<path d="M65.1004 39.637C63.8142 39.4382 62.9247 40.3181 62.5446 40.6954C62.1979 41.0367 61.4774 41.7451 61.7101 42.4013C62.1334 43.603 65.6887 44.4723 66.8853 43.2248C67.4058 42.6862 67.4012 41.8273 67.1214 41.1855C66.814 40.4739 66.0663 39.7854 65.1004 39.637Z" stroke="black" stroke-width="1.5" stroke-linecap="round" stroke-linejoin="round"/>
<path d="M39.0262 68.6678C41.2313 68.709 44.1564 68.5603 47.4257 67.8144C49.6738 67.299 51.5593 66.6225 53.0667 65.9691" stroke="black" stroke-width="1.5" stroke-linecap="round" stroke-linejoin="round"/>
<path d="M38.7668 89.2093C36.8146 91.7766 29.9136 101.531 33.8501 112.087C38.4458 124.41 54.5976 129.221 63.1635 131.773C95.9731 141.552 127.059 126.525 136.167 121.716" stroke="black" stroke-width="1.5" stroke-linecap="round" stroke-linejoin="round"/>
<path d="M71.7021 141.401C81.1203 143.966 101.22 148.242 125.217 143.836C145.705 140.075 159.693 131.696 166.876 126.626C181.848 116.061 189.656 104.076 193.427 97.102" stroke="black" stroke-width="1.5" stroke-linecap="round" stroke-linejoin="round"/>
</svg>