<svg width="272" height="215" viewBox="0 0 272 215" fill="none" xmlns="http://www.w3.org/2000/svg">
<path d="M118.621 73.7271C121.627 72.3616 125.535 70.5513 130.054 68.349C130.659 68.0564 133.561 66.6771 136.899 64.9394C143.257 61.6226 146.921 59.2502 157.677 53.7845C174.601 45.1836 174.349 46.5757 181.12 42.1122C192.003 34.9452 193.534 30.7735 198.64 31.1962C207.14 31.8972 213.907 44.6512 215.787 52.573C216.357 54.9687 216.944 57.4581 216.643 60.7415C216.121 66.4031 213.502 68.3868 214.05 73.9154C214.29 76.342 214.993 78.2288 215.51 79.4586C217.568 84.3562 221.048 86.8169 224.342 96.1361C225.612 99.7194 231.717 115.968 223.706 126.556C221.406 129.593 218.486 131.457 210.139 135.062C186.942 145.084 171.718 147.935 171.718 147.935C117.923 158.013 75.4638 165.967 64.519 151.36C61.7263 147.631 60.7003 142.056 61.4533 137.578C62.4985 131.357 66.8286 128.126 74.1965 113.67C74.5899 112.892 74.7908 112.496 74.9627 112.13C76.7316 108.328 79.9965 99.4137 75.0634 91.6926C74.0355 90.0786 71.819 87.2185 67.2466 84.6956" stroke="#1D1D1B" stroke-width="2" stroke-linecap="round" stroke-linejoin="round"/>
<path d="M70.6422 81.6009C70.4623 83.3379 67.8012 84.3236 65.0718 85.2968C62.3481 86.2711 60.1947 86.6249 59.3069 86.7957C54.5463 87.7075 52.667 89.7548 48.2108 92.2903C45.9146 93.5934 38.4861 97.8273 29.2575 98.5225C24.7353 98.8641 15.9664 98.6422 14.7559 95.7684C13.4422 92.6548 21.489 87.5678 28.9865 82.8236C35.9396 78.4282 37.8456 78.3061 41.3257 75.3926C46.4388 71.1111 49.3193 65.5151 50.7591 59.4166C50.5775 60.0624 50.2431 61.6809 51.1782 63.4188C51.5043 64.0158 51.7802 64.5334 52.3686 64.8813C54.3194 66.0342 57.7833 64.2138 59.9896 63.0502C61.5277 62.2381 63.6227 60.9437 65.7386 58.9191C65.3418 60.1694 64.809 61.943 64.2783 64.094C62.7571 70.2531 62.0281 73.3685 63.6342 75.1276C65.02 76.6456 66.7354 76.2477 69.0278 78.6891C69.9081 79.6279 70.7645 80.5372 70.6553 81.5933L70.6422 81.6009Z" stroke="#1D1D1B" stroke-width="2" stroke-linecap="round" stroke-linejoin="round"/>
<path d="M52.7919 75.7566C51.6205 76.1325 50.0112 75.8156 49.769 75.2087C49.4829 74.4882 51.0764 73.2086 52.7556 73.0755C52.9283 73.0616 54.2082 72.9618 54.5523 73.4917C54.9483 74.0913 54.0509 75.3514 52.7863 75.7556L52.7919 75.7566Z" stroke="#1D1D1B" stroke-width="2" stroke-linecap="round" stroke-linejoin="round"/>
<path d="M50.7522 59.4205C52.094 55.838 54.3891 51.3675 58.4228 46.9859C61.8649 43.2461 65.3674 39.4318 71.7635 37.7205C78.5608 35.901 84.6098 37.4649 87.923 38.3218C89.325 38.6814 96.4189 40.6006 103.316 46.2947C111.99 53.452 114.68 61.8575 116.567 67.9607C117.854 72.1254 120.503 81.021 118.584 91.8688C116.661 102.771 111.822 106.057 111.893 116.737C111.926 122.158 113.211 126.629 114.24 129.469" stroke="#1D1D1B" stroke-width="2" stroke-linecap="round" stroke-linejoin="round"/>
<path d="M172.21 117.082C185.246 104.026 194.331 97.0661 200.593 93.0482C202.359 91.9204 206.67 89.2431 209.925 84.2728C213.033 79.5225 213.832 74.7255 214.01 71.3844" stroke="#1D1D1B" stroke-width="2" stroke-linecap="round" stroke-linejoin="round"/>
<path d="M85.821 52.2532C84.1255 51.9912 82.9528 53.1511 82.4518 53.6484C81.9946 54.0985 81.0448 55.0323 81.3517 55.8973C81.9097 57.4815 86.5966 58.6276 88.174 56.983C88.8603 56.2729 88.8542 55.1407 88.4852 54.2946C88.0801 53.3564 87.0943 52.4488 85.821 52.2532Z" stroke="#1D1D1B" stroke-width="2" stroke-linecap="round" stroke-linejoin="round"/>
<path d="M51.4472 90.5243C54.3541 90.5786 58.2103 90.3826 62.5202 89.3992C65.4838 88.7198 67.9695 87.828 69.9567 86.9666" stroke="#1D1D1B" stroke-width="2" stroke-linecap="round" stroke-linejoin="round"/>
<path d="M51.1058 117.604C48.5322 120.989 39.4347 133.848 44.6242 147.764C50.6827 164.009 71.9755 170.352 83.2679 173.716C126.521 186.607 167.501 166.797 179.508 160.457" stroke="black" stroke-width="2" stroke-linecap="round" stroke-linejoin="round"/>
<path d="M94.5243 186.409C106.94 189.79 133.438 195.427 165.073 189.618C192.082 184.66 210.523 173.615 219.992 166.93C239.729 153.003 250.023 137.203 254.993 128.009" stroke="black" stroke-width="2" stroke-linecap="round" stroke-linejoin="round"/>
</svg>
