<svg width="166" height="174" viewBox="0 0 166 174" fill="none" xmlns="http://www.w3.org/2000/svg">
<path d="M136.444 57.9624C130.539 51.5383 129.858 43.1616 128.325 43.1964C126.733 43.2312 127.569 52.2537 121.659 60.859C120.833 62.0613 116.823 67.8991 112.963 67.2284C111.088 66.9055 110.202 65.2063 109.66 65.4994C108.441 66.1652 112.237 75.1728 114.376 80.5685C120.162 95.1804 118.366 94.9221 124.102 109.206C130.335 124.737 133.822 128.439 135.574 130.123C138.25 132.707 144.668 138.892 153.03 138.092C154.01 137.998 161.02 137.233 163.502 132.364C165.413 128.618 163.527 124.608 159.761 116.177C152.587 100.119 148.976 91.9907 147.792 87.0423C146.14 80.1462 144.727 74.2487 145.548 66.3738C146.051 61.5496 147.458 55.3192 146.294 54.9168C145.18 54.5342 143.255 60.0243 139.927 60.0044C138.489 59.9945 137.369 58.961 136.444 57.9574V57.9624Z" stroke="#1D1D1B" stroke-width="2" stroke-linecap="round" stroke-linejoin="round"/>
<path d="M133.082 72.4104C131.669 71.5509 129.48 71.5757 128.943 72.5694C128.44 73.4985 129.53 75.0039 130.376 75.7491C131.739 76.9465 134.082 77.5775 134.833 76.7031C135.594 75.8236 134.738 73.419 133.082 72.4104Z" stroke="#1D1D1B" stroke-width="2" stroke-linecap="round" stroke-linejoin="round"/>
<path d="M146.295 54.9217C148.613 39.7831 145.559 28.5894 143.444 22.7863C141.136 16.4417 138.972 10.5492 133.126 6.29631C123.963 -0.371244 111.247 1.3031 103.203 4.85548C86.776 12.1093 82.0301 30.6413 80.5028 36.5934C76.6324 51.7072 79.7217 66.98 81.1197 73.9009C82.2689 79.5897 83.3335 82.2428 84.214 88.9451C85.602 99.5377 84.9801 108.401 84.214 114.294" stroke="#1D1D1B" stroke-width="2" stroke-linecap="round" stroke-linejoin="round"/>
<path d="M1.74609 131.842C8.18849 138.852 18.7451 148.754 33.9879 156.853C46.42 163.456 79.5971 181.074 111.516 166.864C117.804 164.067 132.285 156.361 143.688 136.622" stroke="#1D1D1B" stroke-width="2" stroke-linecap="round" stroke-linejoin="round"/>
<path d="M79.5379 66.2794C77.7171 62.5283 73.6726 55.5676 65.7477 50.1074C52.445 40.9407 38.0976 42.8138 34.6152 43.3703" stroke="#1D1D1B" stroke-width="2" stroke-linecap="round" stroke-linejoin="round"/>
<path d="M112.645 24.3067C111.595 22.205 109.008 20.3419 107.302 21.0822C105.471 21.8722 105.118 25.4643 106.302 27.864C107.331 29.9656 109.884 31.8685 111.595 31.158C113.446 30.3879 113.868 26.7511 112.65 24.3067H112.645Z" stroke="#1D1D1B" stroke-width="2" stroke-linecap="round" stroke-linejoin="round"/>
</svg>
