<svg xmlns="http://www.w3.org/2000/svg" width="166" height="174" viewBox="0 0 166 174" fill="none">
<path d="M136.445 57.9624C130.54 51.5383 129.858 43.1616 128.326 43.1964C126.734 43.2312 127.57 52.2537 121.659 60.859C120.834 62.0613 116.824 67.8991 112.963 67.2284C111.088 66.9055 110.202 65.2063 109.66 65.4994C108.441 66.1652 112.237 75.1728 114.376 80.5685C120.162 95.1804 118.366 94.9221 124.102 109.206C130.336 124.737 133.823 128.439 135.574 130.123C138.251 132.707 144.668 138.892 153.031 138.092C154.011 137.998 161.02 137.233 163.503 132.364C165.413 128.618 163.528 124.608 159.762 116.177C152.588 100.119 148.976 91.9907 147.792 87.0423C146.141 80.1462 144.728 74.2487 145.549 66.3738C146.051 61.5496 147.459 55.3192 146.295 54.9168C145.18 54.5342 143.255 60.0243 139.927 60.0044C138.489 59.9945 137.37 58.961 136.445 57.9574V57.9624Z" stroke="#1D1D1B" stroke-width="2" stroke-linecap="round" stroke-linejoin="round"/>
<path d="M133.081 72.4101C131.669 71.5506 129.48 71.5755 128.942 72.5691C128.44 73.4982 129.529 75.0036 130.375 75.7489C131.738 76.9463 134.081 77.5772 134.832 76.7028C135.594 75.8234 134.738 73.4187 133.081 72.4101Z" stroke="#1D1D1B" stroke-width="2" stroke-linecap="round" stroke-linejoin="round"/>
<path d="M146.295 54.9215C148.613 39.7829 145.559 28.5891 143.444 22.7861C141.136 16.4415 138.972 10.549 133.126 6.29606C123.963 -0.371488 111.247 1.30285 103.203 4.85524C86.776 12.1091 82.0301 30.6411 80.5028 36.5932C76.6324 51.707 79.7217 66.9797 81.1197 73.9007C82.2689 79.5895 83.3335 82.2426 84.214 88.9449C85.602 99.5375 84.9801 108.401 84.214 114.294" stroke="#1D1D1B" stroke-width="2" stroke-linecap="round" stroke-linejoin="round"/>
<path d="M1.74609 131.842C8.18849 138.852 18.7451 148.754 33.9879 156.853C46.42 163.456 79.5971 181.073 111.516 166.864C117.804 164.067 132.285 156.361 143.688 136.621" stroke="#1D1D1B" stroke-width="2" stroke-linecap="round" stroke-linejoin="round"/>
<path d="M79.5374 66.2794C77.7166 62.5283 73.6721 55.5676 65.7472 50.1073C52.4445 40.9407 38.0971 42.8138 34.6147 43.3702" stroke="#1D1D1B" stroke-width="2" stroke-linecap="round" stroke-linejoin="round"/>
<path d="M112.645 24.3064C111.595 22.2048 109.008 20.3416 107.302 21.0819C105.471 21.8719 105.118 25.464 106.302 27.8638C107.332 29.9654 109.884 31.8683 111.595 31.1578C113.446 30.3877 113.869 26.7508 112.65 24.3064H112.645Z" stroke="#1D1D1B" stroke-width="2" stroke-linecap="round" stroke-linejoin="round"/>
</svg>