<svg xmlns="http://www.w3.org/2000/svg" width="229" height="281" viewBox="0 0 229 281" fill="none">
<g clip-path="url(#clip0_258_400)">
<path d="M66.6347 24.4771C67.122 24.7373 64.7126 29.1713 65.9113 30.1285C67.5764 31.4609 74.1777 24.5143 75.9642 25.8688C77.2059 26.8074 74.1588 30.2475 74.7188 35.2277C75.4398 41.6102 81.2731 43.502 80.4509 47.2276C79.9294 49.5886 77.2766 50.1693 70.6641 53.3642C60.1014 58.4687 60.9105 59.8634 55.801 61.4698C46.8208 64.2939 35.9222 62.6038 35.1845 59.4001C34.5833 56.7889 41.212 55.32 49.4812 47.6929C60.7231 37.3252 65.8158 24.0444 66.6272 24.4823L66.6347 24.4771Z" stroke="black" stroke-width="2" stroke-linecap="round" stroke-linejoin="round"/>
<path d="M66.61 39.1015C67.0334 39.0597 67.8801 38.9759 68.0921 39.3709C68.3988 39.9349 67.4075 41.5041 66.027 41.7286C65.0403 41.8926 63.8619 41.3682 63.798 40.7756C63.7167 40.0611 65.2865 39.2307 66.6164 39.1027L66.61 39.1015Z" stroke="black" stroke-width="2" stroke-linecap="round" stroke-linejoin="round"/>
<path d="M66.6343 24.4771C67.2533 22.959 70.9832 14.2365 80.6156 10.6925C89.7886 7.31599 97.7759 11.0449 99.5467 11.8684C113.344 18.2374 116.526 35.2993 117.307 39.4615C118.845 47.7023 117.567 52.8106 114.716 68.4658C113.082 77.4571 110.745 90.9349 108.273 107.808" stroke="black" stroke-width="2" stroke-linecap="round" stroke-linejoin="round"/>
<path d="M77.0655 50.7122C78.9553 51.9336 81.7402 54.1494 83.4669 57.7573C86.1021 63.2664 84.8043 68.9916 83.161 74.3306C79.7646 85.3582 78.0632 90.8715 71.5294 100.062C64.7854 109.537 58.0888 126.995 59.6752 162.099" stroke="black" stroke-width="2" stroke-linecap="round" stroke-linejoin="round"/>
<path d="M63.6219 115.94C59.3413 120.72 53.2977 128.521 48.7246 139.414C44.2369 150.091 37.8655 165.688 44.0681 182.071C50.0611 197.901 65.3412 205.041 69.5344 206.806C75.837 209.457 77.6094 208.564 110.783 208.499C134.437 208.454 139.425 208.898 147.693 205.344C150.356 204.198 159.635 199.949 167.832 190.249C172.489 184.739 180.014 175.834 180.127 164.065C180.21 155.326 176.154 151.572 176.032 137.641C175.997 133.549 176.316 130.161 176.603 127.889" stroke="black" stroke-width="2" stroke-linecap="round" stroke-linejoin="round"/>
<path d="M111.522 87.4588C121.617 91.0626 129.267 94.9414 134.468 97.8802C140.154 101.092 141.786 102.385 146.697 104.671C155.953 108.973 158.683 107.311 167.07 110.294C178.147 114.234 185.11 121.315 189.088 125.352C198.191 134.598 202.412 144.204 201.951 144.523C201.43 144.884 196.196 132.466 185.195 128.256C175.273 124.459 164.326 128.735 156.427 133.128" stroke="black" stroke-width="2" stroke-linecap="round" stroke-linejoin="round"/>
<path d="M201.946 144.515C200.041 147.08 196.809 150.777 191.876 154.026C187.37 156.997 183.113 158.487 180.152 159.276" stroke="black" stroke-width="2" stroke-linecap="round" stroke-linejoin="round"/>
<path d="M169.439 188.522C173.166 194.487 178.378 203.864 182.584 216.167C188.057 232.167 189.832 247.276 188.837 247.558C188.19 247.744 187.291 244.339 183 239.988C180.475 237.43 179.211 236.144 177.565 236.01C172.111 235.554 168.625 247.185 165.122 246.417C162.711 245.886 164.188 240.332 160.248 235.504C155.401 229.566 148.235 231.921 146.227 227.503C144.798 224.359 148.037 221.607 152.758 210.919C154.676 206.574 155.973 202.921 156.752 200.561" stroke="black" stroke-width="2" stroke-linecap="round" stroke-linejoin="round"/>
<path d="M165.129 246.418C167.069 239.153 168.967 228.638 168.192 216.014C167.659 207.401 166.022 200.067 164.29 194.346" stroke="black" stroke-width="2" stroke-linecap="round" stroke-linejoin="round"/>
<path d="M85.926 208.92C83.421 218.492 83.4405 226.411 83.8525 231.589C84.344 237.672 84.6863 241.926 87.4097 246.441C92.2071 254.396 100.968 257.5 100.416 258.614C99.8095 259.844 89.6785 255.092 86.6778 258.64C85.787 259.692 85.7511 261.198 84.7957 261.334C83.5889 261.511 83.1863 259.187 80.8545 257.964C79.3004 257.147 78.6035 257.714 74.9435 257.372C72.3997 257.134 69.1823 256.827 68.9784 255.806C68.7077 254.463 74.0222 253.726 76.3416 249.678C77.8503 247.041 77.5082 244.021 77.058 242.032C77.058 242.032 76.3445 233.974 75.8207 222.802C75.6737 219.58 75.7786 215.116 76.2325 209.713" stroke="black" stroke-width="2" stroke-linecap="round" stroke-linejoin="round"/>
<path d="M90.0076 22.3805C90.0604 21.2547 91.3032 20.4441 92.1627 20.1448C93.5211 19.6787 95.5834 19.9148 96.1817 21.2712C96.7996 22.6642 95.6057 24.6587 93.9755 25.0952C92.0828 25.5962 89.9403 23.913 90.0076 22.3805Z" stroke="black" stroke-width="2" stroke-linecap="round" stroke-linejoin="round"/>
</g>
<defs>
<clipPath id="clip0_258_400">
<rect width="187" height="251" fill="white" transform="matrix(-0.983887 -0.178792 -0.178792 0.983887 228.863 33.4336)"/>
</clipPath>
</defs>
</svg>
