<svg width="118" height="143" viewBox="0 0 118 143" fill="none" xmlns="http://www.w3.org/2000/svg">
<g clip-path="url(#clip0_321_3172)">
<path d="M38.536 12.6737C38.7711 12.8147 37.467 14.9535 38.0376 15.4577C38.8303 16.1595 42.2748 12.8785 43.1271 13.5942C43.7195 14.0903 42.1238 15.7206 42.2784 18.2036C42.4781 21.3859 45.3235 22.468 44.8238 24.2948C44.5069 25.4525 43.1772 25.6748 39.8198 27.0955C34.4567 29.3652 34.8234 30.0767 32.2504 30.7469C27.7282 31.9251 22.3665 30.8179 22.0799 29.2112C21.8464 27.9018 25.1692 27.3373 29.4575 23.7601C35.2875 18.8976 38.1406 12.4389 38.5321 12.6761L38.536 12.6737Z" stroke="black" stroke-linecap="round" stroke-linejoin="round"/>
<path d="M38.1617 19.9237C38.3726 19.9134 38.7945 19.8928 38.8898 20.0939C39.028 20.3811 38.4977 21.1347 37.8077 21.2118C37.3144 21.2687 36.7432 20.9796 36.7261 20.6843C36.7035 20.328 37.5023 19.9551 38.1648 19.9245L38.1617 19.9237Z" stroke="black" stroke-linecap="round" stroke-linejoin="round"/>
<path d="M38.5353 12.6737C38.8798 11.9363 40.9446 7.70384 45.8079 6.18481C50.4393 4.73741 54.3073 6.7836 55.1649 7.23565C61.8479 10.7343 63.004 19.2723 63.2885 21.3552C63.8475 25.479 63.0876 27.9801 61.287 35.6715C60.2547 40.0889 58.7629 46.7135 57.1203 55.0179" stroke="black" stroke-linecap="round" stroke-linejoin="round"/>
<path d="M43.0591 25.9387C43.9659 26.5909 45.2919 27.7584 46.0588 29.5898C47.2292 32.3863 46.4443 35.1928 45.4976 37.7993C43.5411 43.1828 42.5613 45.8742 39.0948 50.2692C35.5169 54.8004 31.7653 63.2908 31.6843 80.7345" stroke="black" stroke-linecap="round" stroke-linejoin="round"/>
<path d="M34.7819 57.9463C32.5414 60.2107 29.3522 63.9288 26.8157 69.2165C24.3268 74.3995 20.7824 81.9748 23.4528 90.2508C26.0329 98.2473 33.4324 102.165 35.4677 103.144C38.527 104.614 39.4279 104.215 55.8769 105.003C67.6056 105.565 70.0675 105.908 74.2547 104.351C75.6035 103.848 80.3088 101.971 84.6126 97.3642C87.058 94.747 91.0087 90.5182 91.3555 84.6856C91.6127 80.3552 89.6944 78.3938 89.9785 71.4837C90.0623 69.4537 90.304 67.7819 90.5026 66.6628" stroke="black" stroke-linecap="round" stroke-linejoin="round"/>
<path d="M59.2341 45.0091C64.1504 47.0453 67.8474 49.1575 70.3534 50.743C73.093 52.4759 73.8705 53.1575 76.2486 54.4119C80.7313 56.7739 82.1262 56.0172 86.2107 57.7034C91.6054 59.9308 94.8824 63.6137 96.7551 65.7134C101.04 70.5225 102.895 75.3895 102.659 75.5363C102.392 75.7023 100.104 69.4163 94.753 67.0568C89.9276 64.9292 84.3946 66.7785 80.3695 68.7616" stroke="black" stroke-linecap="round" stroke-linejoin="round"/>
<path d="M102.656 75.5324C101.648 76.7571 99.9545 78.5101 97.4285 79.9992C95.121 81.3606 92.9736 81.9945 91.4859 82.3124" stroke="black" stroke-linecap="round" stroke-linejoin="round"/>
<path d="M85.4521 96.5472C87.1525 99.5967 89.505 104.375 91.2859 110.579C93.6044 118.646 94.111 126.182 93.6108 126.297C93.2851 126.373 92.9235 124.663 90.9036 122.399C89.7151 121.069 89.12 120.4 88.3076 120.293C85.6148 119.932 83.5988 125.613 81.8809 125.145C80.6984 124.822 81.5684 122.105 79.7342 119.614C77.4777 116.55 73.8666 117.541 72.98 115.3C72.3496 113.706 74.0234 112.422 76.628 107.239C77.6863 105.133 78.4198 103.354 78.8642 102.203" stroke="black" stroke-linecap="round" stroke-linejoin="round"/>
<path d="M81.8841 125.146C83.0258 121.591 84.2264 116.425 84.1543 110.147C84.1026 105.864 83.4723 102.187 82.7549 99.3074" stroke="black" stroke-linecap="round" stroke-linejoin="round"/>
<path d="M43.5426 104.597C42.064 109.281 41.878 113.208 41.9543 115.785C42.0477 118.813 42.1123 120.931 43.3509 123.237C45.5329 127.299 49.7999 129.055 49.4985 129.594C49.1675 130.188 44.262 127.582 42.6866 129.267C42.2189 129.767 42.1639 130.512 41.6869 130.556C41.0842 130.614 40.942 129.452 39.8161 128.788C39.0658 128.344 38.7062 128.608 36.9001 128.348C35.6448 128.167 34.0572 127.935 33.9813 127.424C33.8803 126.752 36.5334 126.518 37.7834 124.568C38.5966 123.298 38.5016 121.792 38.3275 120.795C38.3275 120.795 38.1729 116.782 38.1893 111.23C38.196 109.629 38.3584 107.419 38.7169 104.751" stroke="black" stroke-linecap="round" stroke-linejoin="round"/>
<path d="M50.1757 12.2118C50.2297 11.6549 50.8659 11.2838 51.2995 11.1566C51.9845 10.9591 53.0011 11.1271 53.2642 11.8144C53.5362 12.5203 52.8949 13.4797 52.0759 13.6558C51.1251 13.8574 50.1045 12.97 50.1757 12.2118Z" stroke="black" stroke-linecap="round" stroke-linejoin="round"/>
</g>
<defs>
<clipPath id="clip0_321_3172">
<rect width="92.8295" height="124.6" fill="white" transform="matrix(-0.973766 -0.22755 -0.22755 0.973766 118.747 21.1234)"/>
</clipPath>
</defs>
</svg>
