<svg xmlns="http://www.w3.org/2000/svg" width="136" height="33" viewBox="0 0 136 33" fill="none">
<path d="M114.889 23.7874C115.17 24.1979 115.371 24.7339 115.379 25.2492C115.4 26.6859 113.819 27.177 112.741 27.3741C112.614 27.3978 112.691 27.6257 112.771 27.6544C113.321 27.861 113.962 28.2495 114.414 28.6974C114.783 29.0626 115.094 29.5308 115.116 30.0902C115.147 30.9162 114.581 31.6402 114.044 32.1907C114.044 32.1907 114.044 32.1921 114.043 32.1935C113.978 32.2366 113.994 32.384 114.057 32.4398C114.079 32.4682 114.105 32.4792 114.133 32.4583C114.911 32.304 115.684 32.1015 116.447 31.874C117.708 31.4979 119.052 31.0575 120.15 30.2586C120.969 29.6619 121.417 28.8467 120.933 27.8726C120.316 26.6294 118.982 25.7898 117.874 25.1043C116.942 24.5291 115.971 24.0065 114.972 23.5675C114.852 23.5142 114.845 23.7206 114.89 23.7889L114.889 23.7874Z" stroke="#E6643A" stroke-linecap="round" stroke-linejoin="round"/>
<path d="M128.706 8.20809C128.987 8.61856 129.189 9.15456 129.196 9.66985C129.217 11.1066 127.636 11.5976 126.558 11.7948C126.431 11.8184 126.509 12.0464 126.588 12.0751C127.138 12.2817 127.779 12.6701 128.231 13.118C128.6 13.4833 128.912 13.9515 128.933 14.5109C128.965 15.3368 128.398 16.0609 127.862 16.6113C127.862 16.6113 127.862 16.6128 127.86 16.6142C127.796 16.6572 127.812 16.8047 127.874 16.8605C127.896 16.8888 127.923 16.8999 127.95 16.8789C128.728 16.7246 129.501 16.5222 130.265 16.2947C131.525 15.9186 132.87 15.4782 133.967 14.6793C134.786 14.0825 135.234 13.2674 134.751 12.2932C134.133 11.0501 132.8 10.2104 131.691 9.52491C130.76 8.94977 129.788 8.42718 128.79 7.98812C128.669 7.93483 128.662 8.14121 128.708 8.20958L128.706 8.20809Z" stroke="#E6643A" stroke-linecap="round" stroke-linejoin="round"/>
<path d="M93.2523 21.9736C93.533 22.3841 93.7347 22.9201 93.7423 23.4354C93.7632 24.8721 92.182 25.3632 91.104 25.5603C90.9774 25.584 91.0545 25.8119 91.1339 25.8406C91.6841 26.0472 92.3252 26.4357 92.7771 26.8836C93.1458 27.2488 93.4575 27.717 93.4789 28.2764C93.5104 29.1024 92.9442 29.8264 92.4076 30.3768C92.4076 30.3768 92.4075 30.3783 92.406 30.3797C92.3415 30.4228 92.3574 30.5702 92.4201 30.626C92.4418 30.6544 92.4687 30.6654 92.4961 30.6444C93.2743 30.4902 94.0472 30.2877 94.8107 30.0602C96.0714 29.6841 97.4157 29.2437 98.5134 28.4448C99.332 27.8481 99.7799 27.0329 99.2964 26.0588C98.6792 24.8156 97.3457 23.976 96.2368 23.2904C95.3056 22.7153 94.3342 22.1927 93.3357 21.7537C93.2151 21.7004 93.2082 21.9067 93.2536 21.9751L93.2523 21.9736Z" stroke="#E6643A" stroke-linecap="round" stroke-linejoin="round"/>
<path d="M107.072 6.39427C107.352 6.80474 107.554 7.34075 107.562 7.85604C107.583 9.29275 106.001 9.78383 104.923 9.98098C104.797 10.0046 104.874 10.2326 104.953 10.2613C105.503 10.4679 106.145 10.8563 106.596 11.3042C106.965 11.6695 107.277 12.1377 107.298 12.6971C107.33 13.523 106.763 14.2471 106.227 14.7975C106.227 14.7975 106.227 14.7989 106.225 14.8004C106.161 14.8434 106.177 14.9909 106.239 15.0467C106.261 15.075 106.288 15.0861 106.315 15.0651C107.094 14.9108 107.867 14.7084 108.63 14.4809C109.891 14.1047 111.235 13.6643 112.333 12.8655C113.151 12.2687 113.599 11.4536 113.116 10.4794C112.499 9.23624 111.165 8.39663 110.056 7.7111C109.125 7.13595 108.154 6.61337 107.155 6.17431C107.034 6.12102 107.028 6.3274 107.073 6.39577L107.072 6.39427Z" stroke="#E6643A" stroke-linecap="round" stroke-linejoin="round"/>
<path d="M70.1957 18.9886C70.4764 19.3991 70.6781 19.9351 70.6856 20.4504C70.7066 21.8871 69.1253 22.3782 68.0473 22.5753C67.9207 22.5989 67.9978 22.8269 68.0773 22.8556C68.6275 23.0622 69.2686 23.4506 69.7204 23.8986C70.0892 24.2638 70.4008 24.732 70.4222 25.2914C70.4538 26.1173 69.8875 26.8414 69.3509 27.3918C69.3509 27.3918 69.3509 27.3933 69.3494 27.3947C69.2849 27.4377 69.3008 27.5852 69.3635 27.641C69.3852 27.6694 69.412 27.6804 69.4394 27.6594C70.2177 27.5052 70.9906 27.3027 71.754 27.0752C73.0147 26.6991 74.3591 26.2587 75.4567 25.4598C76.2754 24.863 76.7233 24.0479 76.2398 23.0738C75.6225 21.8306 74.289 20.991 73.1802 20.3054C72.249 19.7303 71.2775 19.2077 70.279 18.7686C70.1584 18.7153 70.1515 18.9217 70.1969 18.9901L70.1957 18.9886Z" stroke="#E6643A" stroke-linecap="round" stroke-linejoin="round"/>
<path d="M84.014 3.40785C84.2948 3.81832 84.4964 4.35432 84.504 4.86962C84.525 6.30633 82.9437 6.79741 81.8657 6.99456C81.7391 7.01819 81.8162 7.24615 81.8956 7.27486C82.4459 7.48146 83.087 7.8699 83.5388 8.3178C83.9075 8.68305 84.2192 9.15125 84.2406 9.71063C84.2721 10.5366 83.7059 11.2607 83.1693 11.8111C83.1693 11.8111 83.1692 11.8125 83.1678 11.8139C83.1033 11.857 83.1192 12.0044 83.1818 12.0603C83.2035 12.0886 83.2304 12.0996 83.2578 12.0787C84.0361 11.9244 84.809 11.722 85.5724 11.4945C86.8331 11.1183 88.1774 10.6779 89.2751 9.87904C90.0937 9.28229 90.5416 8.46717 90.0582 7.49302C89.4409 6.24982 88.1074 5.41021 86.9985 4.72467C86.0674 4.14953 85.0959 3.62695 84.0974 3.18789C83.9768 3.13459 83.9699 3.34098 84.0153 3.40935L84.014 3.40785Z" stroke="#E6643A" stroke-linecap="round" stroke-linejoin="round"/>
<path d="M48.2064 21.6724C48.4871 22.0829 48.6888 22.6189 48.6964 23.1342C48.7173 24.5709 47.1361 25.062 46.0581 25.2591C45.9315 25.2828 46.0086 25.5107 46.088 25.5394C46.6382 25.746 47.2793 26.1345 47.7312 26.5824C48.0999 26.9476 48.4116 27.4158 48.433 27.9752C48.4645 28.8012 47.8983 29.5252 47.3617 30.0757C47.3617 30.0757 47.3616 30.0771 47.3601 30.0785C47.2956 30.1216 47.3115 30.269 47.3742 30.3249C47.3959 30.3532 47.4228 30.3642 47.4502 30.3433C48.2284 30.189 49.0013 29.9865 49.7648 29.759C51.0255 29.3829 52.3698 28.9425 53.4675 28.1436C54.2861 27.5469 54.734 26.7318 54.2505 25.7576C53.6333 24.5144 52.2998 23.6748 51.1909 22.9893C50.2598 22.4141 49.2883 21.8915 48.2898 21.4525C48.1692 21.3992 48.1623 21.6056 48.2077 21.6739L48.2064 21.6724Z" stroke="#E6643A" stroke-linecap="round" stroke-linejoin="round"/>
<path d="M62.0243 6.09313C62.305 6.5036 62.5067 7.0396 62.5142 7.55489C62.5352 8.9916 60.9539 9.48269 59.8759 9.67983C59.7493 9.70346 59.8264 9.93143 59.9059 9.96013C60.4561 10.1667 61.0972 10.5552 61.549 11.0031C61.9178 11.3683 62.2294 11.8365 62.2509 12.3959C62.2824 13.2219 61.7161 13.9459 61.1796 14.4963C61.1796 14.4963 61.1795 14.4978 61.178 14.4992C61.1135 14.5423 61.1294 14.6897 61.1921 14.7455C61.2138 14.7739 61.2406 14.7849 61.268 14.764C62.0463 14.6097 62.8192 14.4072 63.5826 14.1797C64.8433 13.8036 66.1877 13.3632 67.2853 12.5643C68.104 11.9676 68.5519 11.1524 68.0684 10.1783C67.4511 8.93509 66.1177 8.09548 65.0088 7.40995C64.0776 6.83481 63.1062 6.31222 62.1077 5.87316C61.987 5.81987 61.9801 6.02625 62.0256 6.09462L62.0243 6.09313Z" stroke="#E6643A" stroke-linecap="round" stroke-linejoin="round"/>
<path d="M26.5702 19.8586C26.8509 20.2691 27.0526 20.8051 27.0601 21.3204C27.0811 22.7571 25.4998 23.2482 24.4218 23.4453C24.2952 23.469 24.3723 23.6969 24.4518 23.7256C25.002 23.9322 25.6431 24.3207 26.0949 24.7686C26.4637 25.1338 26.7753 25.602 26.7968 26.1614C26.8283 26.9874 26.262 27.7114 25.7255 28.2618C25.7255 28.2618 25.7254 28.2633 25.7239 28.2647C25.6594 28.3078 25.6753 28.4552 25.738 28.511C25.7597 28.5394 25.7865 28.5504 25.8139 28.5295C26.5922 28.3752 27.3651 28.1727 28.1285 27.9452C29.3892 27.5691 30.7336 27.1287 31.8312 26.3298C32.6499 25.7331 33.0978 24.9179 32.6143 23.9438C31.997 22.7006 30.6636 21.861 29.5547 21.1754C28.6235 20.6003 27.6521 20.0777 26.6536 19.6387C26.5329 19.5854 26.526 19.7918 26.5715 19.8601L26.5702 19.8586Z" stroke="#E6643A" stroke-linecap="round" stroke-linejoin="round"/>
<path d="M40.3895 4.27931C40.6703 4.68979 40.8719 5.22579 40.8795 5.74108C40.9004 7.17779 39.3192 7.66888 38.2412 7.86602C38.1146 7.88965 38.1917 8.11761 38.2711 8.14632C38.8213 8.35292 39.4625 8.74136 39.9143 9.18926C40.283 9.55451 40.5947 10.0227 40.6161 10.5821C40.6476 11.4081 40.0814 12.1321 39.5448 12.6825C39.5448 12.6825 39.5447 12.684 39.5432 12.6854C39.4788 12.7285 39.4947 12.8759 39.5573 12.9317C39.579 12.9601 39.6059 12.9711 39.6333 12.9501C40.4115 12.7959 41.1845 12.5934 41.9479 12.3659C43.2086 11.9898 44.5529 11.5494 45.6506 10.7505C46.4692 10.1537 46.9171 9.33863 46.4336 8.36448C45.8164 7.12128 44.4829 6.28167 43.374 5.59614C42.4429 5.02099 41.4714 4.49841 40.4729 4.05935C40.3523 4.00606 40.3454 4.21244 40.3908 4.28081L40.3895 4.27931Z" stroke="#E6643A" stroke-linecap="round" stroke-linejoin="round"/>
<path d="M3.51305 16.8736C3.79378 17.2841 3.99544 17.8201 4.003 18.3354C4.02397 19.7721 2.4427 20.2632 1.3647 20.4603C1.2381 20.4839 1.3152 20.7119 1.39464 20.7406C1.94488 20.9472 2.58599 21.3357 3.03781 21.7836C3.40655 22.1488 3.71821 22.617 3.73963 23.1764C3.77116 24.0024 3.2049 24.7264 2.66833 25.2768C2.66833 25.2768 2.66824 25.2783 2.66678 25.2797C2.60229 25.3228 2.61819 25.4702 2.68086 25.526C2.70255 25.5544 2.7294 25.5654 2.7568 25.5444C3.53507 25.3902 4.30798 25.1877 5.0714 24.9602C6.33211 24.5841 7.67647 24.1437 8.77412 23.3448C9.59273 22.748 10.0407 21.9329 9.55718 20.9588C8.93991 19.7156 7.60643 18.876 6.49755 18.1904C5.56639 17.6153 4.59492 17.0927 3.59642 16.6536C3.47581 16.6004 3.46892 16.8067 3.51433 16.8751L3.51305 16.8736Z" stroke="#E6643A" stroke-linecap="round" stroke-linejoin="round"/>
<path d="M17.3324 1.29289C17.6131 1.70336 17.8148 2.23937 17.8223 2.75466C17.8433 4.19137 16.262 4.68245 15.184 4.8796C15.0574 4.90323 15.1345 5.13119 15.214 5.1599C15.7642 5.3665 16.4053 5.75494 16.8571 6.20284C17.2259 6.56809 17.5375 7.03629 17.559 7.59567C17.5905 8.42163 17.0242 9.1457 16.4877 9.69612C16.4877 9.69612 16.4876 9.69757 16.4861 9.69897C16.4216 9.74203 16.4375 9.88949 16.5002 9.94531C16.5219 9.97364 16.5487 9.98468 16.5761 9.96372C17.3544 9.80945 18.1273 9.60699 18.8907 9.3795C20.1514 9.00337 21.4958 8.56296 22.5935 7.76408C23.4121 7.16733 23.86 6.35221 23.3765 5.37806C22.7592 4.13486 21.4258 3.29525 20.3169 2.60971C19.3857 2.03457 18.4143 1.51199 17.4158 1.07293C17.2952 1.01964 17.2883 1.22602 17.3337 1.29439L17.3324 1.29289Z" stroke="#E6643A" stroke-linecap="round" stroke-linejoin="round"/>
</svg>