<svg width="392" height="94" viewBox="0 0 392 94" fill="none" xmlns="http://www.w3.org/2000/svg">
<path d="M332.511 67.3303C333.328 68.5251 333.915 70.0853 333.937 71.5852C333.998 75.7672 329.395 77.1967 326.257 77.7706C325.889 77.8394 326.113 78.5029 326.344 78.5865C327.946 79.1878 329.812 80.3185 331.127 81.6223C332.201 82.6855 333.108 84.0483 333.17 85.6766C333.262 88.0808 331.614 90.1885 330.052 91.7906C330.052 91.7906 330.052 91.7948 330.047 91.7989C329.86 91.9243 329.906 92.3535 330.088 92.516C330.151 92.5984 330.23 92.6306 330.309 92.5696C332.575 92.1205 334.825 91.5312 337.047 90.869C340.716 89.7741 344.63 88.4922 347.825 86.1668C350.208 84.4297 351.511 82.0571 350.104 79.2215C348.307 75.6028 344.426 73.1588 341.198 71.1633C338.488 69.4892 335.66 67.968 332.753 66.69C332.402 66.5349 332.382 67.1356 332.514 67.3346L332.511 67.3303Z" stroke="#FBFAF5" stroke-width="2" stroke-linecap="round" stroke-linejoin="round"/>
<path d="M372.732 21.9815C373.549 23.1763 374.136 24.7365 374.158 26.2365C374.22 30.4185 369.617 31.848 366.479 32.4218C366.11 32.4906 366.335 33.1542 366.566 33.2377C368.168 33.8391 370.034 34.9698 371.349 36.2735C372.422 37.3367 373.329 38.6996 373.392 40.3278C373.484 42.7321 371.835 44.8397 370.273 46.4419C370.273 46.4419 370.273 46.4461 370.269 46.4502C370.081 46.5755 370.128 47.0047 370.31 47.1672C370.373 47.2497 370.451 47.2818 370.531 47.2208C372.796 46.7718 375.046 46.1824 377.268 45.5202C380.938 44.4254 384.851 43.1434 388.046 40.818C390.429 39.081 391.733 36.7083 390.326 33.8727C388.529 30.254 384.647 27.81 381.42 25.8146C378.709 24.1404 375.881 22.6193 372.975 21.3413C372.624 21.1861 372.604 21.7869 372.736 21.9859L372.732 21.9815Z" stroke="#FBFAF5" stroke-width="2" stroke-linecap="round" stroke-linejoin="round"/>
<path d="M269.531 62.0506C270.348 63.2454 270.935 64.8056 270.957 66.3056C271.018 70.4876 266.416 71.917 263.278 72.4909C262.909 72.5597 263.134 73.2232 263.365 73.3068C264.966 73.9082 266.833 75.0389 268.148 76.3426C269.221 77.4058 270.128 78.7687 270.191 80.3969C270.282 82.8012 268.634 84.9088 267.072 86.511C267.072 86.511 267.072 86.5152 267.068 86.5193C266.88 86.6446 266.926 87.0738 267.109 87.2363C267.172 87.3188 267.25 87.3509 267.33 87.2899C269.595 86.8408 271.845 86.2515 274.067 85.5893C277.737 84.4945 281.65 83.2125 284.845 80.8871C287.228 79.1501 288.532 76.7774 287.125 73.9418C285.328 70.3231 281.446 67.8791 278.219 65.8837C275.508 64.2095 272.68 62.6884 269.774 61.4103C269.423 61.2552 269.403 61.856 269.535 62.055L269.531 62.0506Z" stroke="#FBFAF5" stroke-width="2" stroke-linecap="round" stroke-linejoin="round"/>
<path d="M309.757 16.7019C310.574 17.8967 311.161 19.4569 311.183 20.9568C311.244 25.1388 306.641 26.5683 303.503 27.1422C303.135 27.2109 303.359 27.8745 303.59 27.9581C305.192 28.5594 307.058 29.6901 308.373 30.9939C309.447 32.0571 310.354 33.4199 310.416 35.0482C310.508 37.4524 308.86 39.56 307.298 41.1622C307.298 41.1622 307.298 41.1664 307.293 41.1705C307.106 41.2959 307.152 41.7251 307.334 41.8876C307.397 41.97 307.476 42.0022 307.555 41.9412C309.821 41.4921 312.071 40.9028 314.293 40.2406C317.963 39.1457 321.876 37.8638 325.071 35.5384C327.454 33.8013 328.757 31.4287 327.35 28.5931C325.553 24.9743 321.672 22.5304 318.444 20.5349C315.734 18.8608 312.906 17.3396 309.999 16.0616C309.648 15.9065 309.628 16.5072 309.76 16.7062L309.757 16.7019Z" stroke="#FBFAF5" stroke-width="2" stroke-linecap="round" stroke-linejoin="round"/>
<path d="M202.415 53.3617C203.233 54.5565 203.82 56.1167 203.842 57.6166C203.903 61.7986 199.3 63.2281 196.162 63.8019C195.793 63.8707 196.018 64.5343 196.249 64.6179C197.851 65.2192 199.717 66.3499 201.032 67.6537C202.105 68.7169 203.013 70.0797 203.075 71.708C203.167 74.1122 201.518 76.2198 199.957 77.822C199.957 77.822 199.956 77.8262 199.952 77.8303C199.764 77.9556 199.811 78.3849 199.993 78.5474C200.056 78.6298 200.134 78.6619 200.214 78.6009C202.48 78.1519 204.729 77.5626 206.951 76.9004C210.621 75.8055 214.534 74.5236 217.729 72.1982C220.112 70.4611 221.416 68.0884 220.009 65.2529C218.212 61.6341 214.331 59.1902 211.103 57.1947C208.392 55.5206 205.565 53.9994 202.658 52.7214C202.307 52.5662 202.287 53.167 202.419 53.366L202.415 53.3617Z" stroke="#FBFAF5" stroke-width="2" stroke-linecap="round" stroke-linejoin="round"/>
<path d="M242.641 8.00887C243.459 9.20368 244.046 10.7639 244.068 12.2638C244.129 16.4458 239.526 17.8753 236.388 18.4492C236.019 18.5179 236.244 19.1815 236.475 19.2651C238.077 19.8664 239.943 20.9971 241.258 22.3009C242.331 23.3641 243.239 24.7269 243.301 26.3552C243.393 28.7594 241.745 30.867 240.183 32.4692C240.183 32.4692 240.182 32.4734 240.178 32.4775C239.99 32.6029 240.037 33.0321 240.219 33.1946C240.282 33.277 240.36 33.3092 240.44 33.2482C242.706 32.7991 244.955 32.2098 247.178 31.5476C250.847 30.4527 254.76 29.1708 257.956 26.8454C260.338 25.1083 261.642 22.7357 260.235 19.9001C258.438 16.2814 254.557 13.8374 251.329 11.8419C248.618 10.1678 245.791 8.64661 242.884 7.36859C242.533 7.21346 242.513 7.81421 242.645 8.01322L242.641 8.00887Z" stroke="#FBFAF5" stroke-width="2" stroke-linecap="round" stroke-linejoin="round"/>
<path d="M138.41 61.1739C139.227 62.3687 139.814 63.9289 139.836 65.4289C139.897 69.6109 135.294 71.0403 132.157 71.6142C131.788 71.683 132.012 72.3465 132.244 72.4301C133.845 73.0315 135.712 74.1622 137.027 75.4659C138.1 76.5291 139.007 77.892 139.07 79.5202C139.161 81.9244 137.513 84.0321 135.951 85.6342C135.951 85.6342 135.951 85.6385 135.947 85.6426C135.759 85.7679 135.805 86.1971 135.988 86.3596C136.051 86.4421 136.129 86.4742 136.209 86.4132C138.474 85.9641 140.724 85.3748 142.946 84.7126C146.616 83.6178 150.529 82.3358 153.724 80.0104C156.107 78.2734 157.411 75.9007 156.003 73.0651C154.207 69.4464 150.325 67.0024 147.097 65.0069C144.387 63.3328 141.559 61.8116 138.653 60.5336C138.302 60.3785 138.282 60.9792 138.414 61.1783L138.41 61.1739Z" stroke="#FBFAF5" stroke-width="2" stroke-linecap="round" stroke-linejoin="round"/>
<path d="M178.632 15.8252C179.449 17.02 180.036 18.5802 180.058 20.0801C180.119 24.2621 175.516 25.6916 172.378 26.2654C172.01 26.3342 172.234 26.9978 172.465 27.0814C174.067 27.6827 175.933 28.8134 177.248 30.1172C178.322 31.1804 179.229 32.5432 179.291 34.1715C179.383 36.5757 177.735 38.6833 176.173 40.2855C176.173 40.2855 176.173 40.2897 176.168 40.2938C175.981 40.4192 176.027 40.8484 176.209 41.0109C176.272 41.0933 176.351 41.1254 176.43 41.0644C178.696 40.6154 180.946 40.0261 183.168 39.3639C186.838 38.269 190.751 36.9871 193.946 34.6617C196.329 32.9246 197.632 30.552 196.225 27.7164C194.428 24.0976 190.547 21.6537 187.319 19.6582C184.609 17.9841 181.781 16.4629 178.874 15.1849C178.523 15.0297 178.503 15.6305 178.635 15.8295L178.632 15.8252Z" stroke="#FBFAF5" stroke-width="2" stroke-linecap="round" stroke-linejoin="round"/>
<path d="M75.4305 55.8942C76.2477 57.0891 76.8347 58.6493 76.8567 60.1492C76.9178 64.3312 72.3149 65.7607 69.1771 66.3345C68.8086 66.4033 69.033 67.0669 69.2642 67.1504C70.8659 67.7518 72.732 68.8825 74.0472 70.1863C75.1206 71.2494 76.0277 72.6123 76.0901 74.2406C76.1819 76.6448 74.5336 78.7524 72.9717 80.3546C72.9717 80.3546 72.9714 80.3588 72.9672 80.3629C72.7795 80.4882 72.8258 80.9175 73.0082 81.0799C73.0713 81.1624 73.1495 81.1945 73.2292 81.1335C75.4946 80.6845 77.7445 80.0952 79.9666 79.433C83.6363 78.3381 87.5495 77.0562 90.7446 74.7308C93.1275 72.9937 94.4313 70.621 93.024 67.7855C91.2272 64.1667 87.3457 61.7228 84.1179 59.7273C81.4075 58.0531 78.5797 56.532 75.6732 55.254C75.3222 55.0988 75.3021 55.6996 75.4343 55.8986L75.4305 55.8942Z" stroke="#FBFAF5" stroke-width="2" stroke-linecap="round" stroke-linejoin="round"/>
<path d="M115.656 10.5455C116.473 11.7403 117.06 13.3005 117.082 14.8004C117.143 18.9824 112.541 20.4119 109.403 20.9858C109.034 21.0546 109.259 21.7181 109.49 21.8017C111.091 22.4031 112.958 23.5337 114.273 24.8375C115.346 25.9007 116.253 27.2635 116.316 28.8918C116.407 31.296 114.759 33.4037 113.197 35.0058C113.197 35.0058 113.197 35.0101 113.193 35.0142C113.005 35.1395 113.051 35.5687 113.234 35.7312C113.297 35.8137 113.375 35.8458 113.455 35.7848C115.72 35.3357 117.97 34.7464 120.192 34.0842C123.862 32.9893 127.775 31.7074 130.97 29.382C133.353 27.645 134.657 25.2723 133.25 22.4367C131.453 18.818 127.571 16.374 124.344 14.3785C121.633 12.7044 118.805 11.1832 115.899 9.90522C115.548 9.75009 115.528 10.3508 115.66 10.5498L115.656 10.5455Z" stroke="#FBFAF5" stroke-width="2" stroke-linecap="round" stroke-linejoin="round"/>
<path d="M8.31482 47.2054C9.13199 48.4002 9.71897 49.9604 9.74097 51.4604C9.80202 55.6424 5.19921 57.0718 2.06135 57.6457C1.69282 57.7145 1.91725 58.378 2.14848 58.4616C3.75013 59.063 5.6163 60.1936 6.93147 61.4974C8.00483 62.5606 8.91201 63.9234 8.97435 65.5517C9.06614 67.9559 7.41784 70.0636 5.85598 71.6657C5.85598 71.6657 5.85572 71.67 5.85147 71.6741C5.66374 71.7994 5.71002 72.2286 5.89247 72.3911C5.95559 72.4736 6.03376 72.5057 6.1135 72.4447C8.37892 71.9956 10.6287 71.4063 12.8509 70.7441C16.5206 69.6493 20.4338 68.3673 23.6289 66.0419C26.0117 64.3049 27.3156 61.9322 25.9082 59.0966C24.1115 55.4779 20.2299 53.0339 17.0022 51.0384C14.2917 49.3643 11.464 47.8431 8.5575 46.5651C8.20643 46.41 8.18635 47.0107 8.31855 47.2098L8.31482 47.2054Z" stroke="#FBFAF5" stroke-width="2" stroke-linecap="round" stroke-linejoin="round"/>
<path d="M48.5409 1.8525C49.3581 3.04731 49.9451 4.60752 49.9671 6.10745C50.0281 10.2895 45.4253 11.7189 42.2874 12.2928C41.9189 12.3616 42.1433 13.0251 42.3746 13.1087C43.9762 13.7101 45.8424 14.8407 47.1575 16.1445C48.2309 17.2077 49.1381 18.5705 49.2004 20.1988C49.2922 22.603 47.6439 24.7107 46.082 26.3128C46.082 26.3128 46.0818 26.3171 46.0775 26.3212C45.8898 26.4465 45.9361 26.8757 46.1186 27.0382C46.1817 27.1207 46.2598 27.1528 46.3396 27.0918C48.605 26.6427 50.8548 26.0534 53.077 25.3912C56.7467 24.2964 60.6599 23.0144 63.855 20.689C66.2378 18.952 67.5416 16.5793 66.1343 13.7437C64.3376 10.125 60.456 7.68102 57.2283 5.68554C54.5178 4.0114 51.69 2.49024 48.7836 1.21222C48.4325 1.05709 48.4124 1.65784 48.5446 1.85685L48.5409 1.8525Z" stroke="#FBFAF5" stroke-width="2" stroke-linecap="round" stroke-linejoin="round"/>
</svg>
