<svg width="447" height="196" viewBox="0 0 447 196" fill="none" xmlns="http://www.w3.org/2000/svg">
<path d="M386.748 73.2021C388.103 74.2863 389.323 75.8702 389.874 77.5828C391.408 82.358 386.63 85.6095 383.232 87.3667C382.833 87.5746 383.323 88.2571 383.617 88.272C385.665 88.4008 388.201 89.044 390.167 90.0788C391.77 90.9223 393.288 92.1676 393.929 94.0133C394.877 96.7387 393.724 99.7333 392.494 102.118C392.494 102.118 392.495 102.123 392.492 102.129C392.321 102.339 392.524 102.815 392.79 102.937C392.891 103.01 392.992 103.019 393.062 102.921C395.503 101.613 397.877 100.149 400.194 98.6111C404.02 96.0701 408.059 93.2293 410.909 89.4432C413.034 86.6163 413.698 83.4384 411.091 80.679C407.763 77.1578 402.455 75.7141 398.054 74.5559C394.359 73.585 390.583 72.8307 386.802 72.3828C386.345 72.3278 386.532 73.0239 386.754 73.2058L386.748 73.2021Z" stroke="#FBFAF5" stroke-width="2" stroke-linecap="round" stroke-linejoin="round"/>
<path d="M416.997 7.10296C418.353 8.18715 419.573 9.77103 420.123 11.4837C421.658 16.2588 416.879 19.5104 413.481 21.2675C413.083 21.4755 413.573 22.1579 413.867 22.1728C415.915 22.3016 418.451 22.9448 420.416 23.9796C422.019 24.8231 423.537 26.0685 424.179 27.9142C425.126 30.6395 423.974 33.6341 422.744 36.0187C422.744 36.0187 422.745 36.0237 422.741 36.0299C422.57 36.2394 422.773 36.7154 423.04 36.8379C423.141 36.9104 423.242 36.9199 423.312 36.822C425.753 35.5135 428.127 34.0496 430.444 32.5119C434.269 29.9709 438.308 27.1301 441.159 23.344C443.283 20.5172 443.948 17.3392 441.34 14.5798C438.012 11.0586 432.704 9.61496 428.304 8.4567C424.609 7.48583 420.832 6.7315 417.051 6.2836C416.594 6.22863 416.782 6.92469 417.003 7.10664L416.997 7.10296Z" stroke="#FBFAF5" stroke-width="2" stroke-linecap="round" stroke-linejoin="round"/>
<path d="M312.664 89.2036C314.02 90.2878 315.24 91.8717 315.79 93.5843C317.325 98.3595 312.546 101.611 309.148 103.368C308.75 103.576 309.239 104.259 309.534 104.273C311.582 104.402 314.118 105.046 316.083 106.08C317.686 106.924 319.204 108.169 319.846 110.015C320.793 112.74 319.641 115.735 318.411 118.119C318.411 118.119 318.412 118.124 318.408 118.131C318.237 118.34 318.44 118.816 318.707 118.939C318.808 119.011 318.909 119.021 318.979 118.923C321.42 117.614 323.794 116.15 326.111 114.613C329.936 112.072 333.975 109.231 336.826 105.445C338.95 102.618 339.615 99.4399 337.007 96.6805C333.679 93.1593 328.371 91.7156 323.971 90.5574C320.276 89.5865 316.499 88.8322 312.718 88.3843C312.261 88.3293 312.449 89.0254 312.67 89.2073L312.664 89.2036Z" stroke="#FBFAF5" stroke-width="2" stroke-linecap="round" stroke-linejoin="round"/>
<path d="M342.919 23.1032C344.274 24.1874 345.494 25.7713 346.045 27.4839C347.579 32.2591 342.801 35.5106 339.403 37.2678C339.004 37.4757 339.494 38.1582 339.788 38.173C341.836 38.3018 344.372 38.9451 346.337 39.9798C347.941 40.8233 349.459 42.0687 350.1 43.9144C351.048 46.6398 349.895 49.6344 348.665 52.019C348.665 52.019 348.666 52.0239 348.663 52.0301C348.491 52.2396 348.695 52.7157 348.961 52.8381C349.062 52.9106 349.163 52.9201 349.233 52.8222C351.674 51.5137 354.048 50.0499 356.365 48.5121C360.191 45.9712 364.23 43.1303 367.08 39.3443C369.205 36.5174 369.869 33.3395 367.262 30.5801C363.934 27.0589 358.626 25.6152 354.225 24.4569C350.53 23.4861 346.754 22.7317 342.973 22.2838C342.516 22.2289 342.703 22.9249 342.924 23.1069L342.919 23.1032Z" stroke="#FBFAF5" stroke-width="2" stroke-linecap="round" stroke-linejoin="round"/>
<path d="M232.644 102.743C233.999 103.828 235.219 105.412 235.77 107.124C237.304 111.899 232.526 115.151 229.128 116.908C228.729 117.116 229.219 117.798 229.513 117.813C231.561 117.942 234.097 118.585 236.063 119.62C237.666 120.464 239.184 121.709 239.825 123.555C240.773 126.28 239.62 129.275 238.39 131.659C238.39 131.659 238.391 131.664 238.388 131.67C238.217 131.88 238.42 132.356 238.686 132.478C238.787 132.551 238.888 132.56 238.958 132.462C241.399 131.154 243.773 129.69 246.09 128.152C249.916 125.611 253.955 122.771 256.805 118.985C258.93 116.158 259.594 112.98 256.987 110.22C253.659 106.699 248.351 105.255 243.95 104.097C240.255 103.126 236.479 102.372 232.698 101.924C232.241 101.869 232.428 102.565 232.65 102.747L232.644 102.743Z" stroke="#FBFAF5" stroke-width="2" stroke-linecap="round" stroke-linejoin="round"/>
<path d="M262.897 36.6381C264.252 37.7223 265.472 39.3062 266.023 41.0188C267.557 45.794 262.779 49.0455 259.381 50.8027C258.982 51.0106 259.472 51.6931 259.766 51.7079C261.814 51.8367 264.35 52.48 266.315 53.5147C267.919 54.3582 269.437 55.6036 270.078 57.4493C271.026 60.1747 269.873 63.1693 268.643 65.5539C268.643 65.5539 268.644 65.5588 268.641 65.565C268.469 65.7745 268.673 66.2506 268.939 66.3731C269.04 66.4455 269.141 66.455 269.211 66.3571C271.652 65.0487 274.026 63.5848 276.343 62.047C280.169 59.5061 284.208 56.6653 287.058 52.8792C289.183 50.0523 289.847 46.8744 287.24 44.115C283.912 40.5938 278.604 39.1501 274.203 37.9919C270.508 37.021 266.732 36.2667 262.951 35.8188C262.494 35.7638 262.681 36.4598 262.902 36.6418L262.897 36.6381Z" stroke="#FBFAF5" stroke-width="2" stroke-linecap="round" stroke-linejoin="round"/>
<path d="M161.969 134.12C163.325 135.204 164.545 136.788 165.095 138.501C166.63 143.276 161.851 146.527 158.453 148.285C158.055 148.493 158.545 149.175 158.839 149.19C160.887 149.319 163.423 149.962 165.388 150.997C166.992 151.84 168.509 153.086 169.151 154.931C170.098 157.657 168.946 160.651 167.716 163.036C167.716 163.036 167.717 163.041 167.714 163.047C167.542 163.256 167.746 163.733 168.012 163.855C168.113 163.927 168.214 163.937 168.284 163.839C170.725 162.531 173.099 161.067 175.416 159.529C179.241 156.988 183.281 154.147 186.131 150.361C188.255 147.534 188.92 144.356 186.313 141.597C182.985 138.076 177.677 136.632 173.276 135.474C169.581 134.503 165.805 133.749 162.023 133.301C161.567 133.246 161.754 133.942 161.975 134.124L161.969 134.12Z" stroke="#FBFAF5" stroke-width="2" stroke-linecap="round" stroke-linejoin="round"/>
<path d="M192.219 68.0208C193.575 69.105 194.794 70.6889 195.345 72.4015C196.879 77.1767 192.101 80.4282 188.703 82.1854C188.304 82.3933 188.794 83.0758 189.089 83.0907C191.136 83.2195 193.673 83.8627 195.638 84.8975C197.241 85.741 198.759 86.9863 199.401 88.832C200.348 91.5574 199.196 94.552 197.965 96.9366C197.965 96.9366 197.967 96.9415 197.963 96.9477C197.792 97.1572 197.995 97.6333 198.261 97.7558C198.363 97.8283 198.463 97.8377 198.534 97.7398C200.975 96.4314 203.349 94.9675 205.665 93.4298C209.491 90.8888 213.53 88.048 216.38 84.2619C218.505 81.435 219.169 78.2571 216.562 75.4977C213.234 71.9765 207.926 70.5328 203.525 69.3746C199.83 68.4037 196.054 67.6494 192.273 67.2015C191.816 67.1465 192.003 67.8426 192.225 68.0245L192.219 68.0208Z" stroke="#FBFAF5" stroke-width="2" stroke-linecap="round" stroke-linejoin="round"/>
<path d="M87.8859 150.122C89.2416 151.206 90.4613 152.79 91.0118 154.502C92.5465 159.277 87.768 162.529 84.37 164.286C83.9714 164.494 84.4612 165.177 84.7557 165.191C86.8033 165.32 89.3397 165.963 91.3047 166.998C92.9081 167.842 94.4259 169.087 95.0677 170.933C96.015 173.658 94.8626 176.653 93.6324 179.037C93.6324 179.037 93.6336 179.042 93.6301 179.048C93.4587 179.258 93.6621 179.734 93.9283 179.856C94.0296 179.929 94.1304 179.938 94.2006 179.841C96.6416 178.532 99.0156 177.068 101.332 175.53C105.158 172.989 109.197 170.149 112.047 166.363C114.172 163.536 114.836 160.358 112.229 157.598C108.901 154.077 103.593 152.634 99.1923 151.475C95.4972 150.504 91.7211 149.75 87.94 149.302C87.483 149.247 87.6704 149.943 87.8917 150.125L87.8859 150.122Z" stroke="#FBFAF5" stroke-width="2" stroke-linecap="round" stroke-linejoin="round"/>
<path d="M118.14 84.0211C119.496 85.1053 120.716 86.6892 121.266 88.4018C122.801 93.1769 118.022 96.4285 114.624 98.1856C114.226 98.3936 114.716 99.0761 115.01 99.0909C117.058 99.2197 119.594 99.863 121.559 100.898C123.163 101.741 124.68 102.987 125.322 104.832C126.269 107.558 125.117 110.552 123.887 112.937C123.887 112.937 123.888 112.942 123.885 112.948C123.713 113.157 123.917 113.634 124.183 113.756C124.284 113.829 124.385 113.838 124.455 113.74C126.896 112.432 129.27 110.968 131.587 109.43C135.412 106.889 139.452 104.048 142.302 100.262C144.426 97.4353 145.091 94.2573 142.484 91.498C139.155 87.9768 133.848 86.5331 129.447 85.3748C125.752 84.4039 121.976 83.6496 118.194 83.2017C117.737 83.1468 117.925 83.8428 118.146 84.0248L118.14 84.0211Z" stroke="#FBFAF5" stroke-width="2" stroke-linecap="round" stroke-linejoin="round"/>
<path d="M7.86538 163.661C9.22109 164.746 10.4407 166.329 10.9913 168.042C12.526 172.817 7.74744 176.069 4.34947 177.826C3.95087 178.034 4.44067 178.716 4.73516 178.731C6.78277 178.86 9.31915 179.503 11.2842 180.538C12.8876 181.382 14.4054 182.627 15.0472 184.473C15.9945 187.198 14.8421 190.193 13.6119 192.577C13.6119 192.577 13.613 192.582 13.6096 192.588C13.4382 192.798 13.6416 193.274 13.9078 193.396C14.009 193.469 14.1099 193.478 14.18 193.38C16.6211 192.072 18.9951 190.608 21.3119 189.07C25.1374 186.529 29.1766 183.689 32.0268 179.902C34.1514 177.076 34.8159 173.898 32.2086 171.138C28.8805 167.617 23.5727 166.173 19.1718 165.015C15.4767 164.044 11.7006 163.29 7.91949 162.842C7.4625 162.787 7.64987 163.483 7.87119 163.665L7.86538 163.661Z" stroke="#FBFAF5" stroke-width="2" stroke-linecap="round" stroke-linejoin="round"/>
<path d="M38.1183 97.556C39.474 98.6402 40.6937 100.224 41.2442 101.937C42.7789 106.712 38.0004 109.963 34.6024 111.721C34.2038 111.929 34.6936 112.611 34.9881 112.626C37.0357 112.755 39.5721 113.398 41.5371 114.433C43.1406 115.276 44.6583 116.522 45.3001 118.367C46.2474 121.093 45.095 124.087 43.8648 126.472C43.8648 126.472 43.866 126.477 43.8625 126.483C43.6911 126.692 43.8945 127.168 44.1607 127.291C44.262 127.363 44.3629 127.373 44.433 127.275C46.874 125.967 49.248 124.503 51.5648 122.965C55.3903 120.424 59.4296 117.583 62.2797 113.797C64.4044 110.97 65.0688 107.792 62.4616 105.033C59.1334 101.512 53.8256 100.068 49.4247 98.9098C45.7296 97.9389 41.9536 97.1846 38.1724 96.7367C37.7154 96.6817 37.9028 97.3777 38.1241 97.5597L38.1183 97.556Z" stroke="#FBFAF5" stroke-width="2" stroke-linecap="round" stroke-linejoin="round"/>
</svg>
