<svg width="83" height="77" viewBox="0 0 83 77" fill="none" xmlns="http://www.w3.org/2000/svg">
<path d="M19.1123 60.0416C16.2017 58.556 16.3448 53.0623 16.4513 50.1608C16.6736 44.1668 18.3329 39.8889 21.0091 33.1127C22.5924 29.1076 24.4709 24.4143 27.8809 18.7872C29.8964 15.4643 30.5206 14.9913 32.6001 11.3258C36.2963 4.80433 37.4197 0.832603 38.0591 1.00542C38.7594 1.19339 38.461 6.26265 36.9478 11.3228C34.78 18.575 32.253 18.6781 31.4888 24.4052C30.9895 28.1435 31.8328 29.8686 30.2861 32.8823C28.91 35.5655 27.6769 35.3017 26.1241 37.7636C24.5683 40.2345 25.0372 41.7201 24.3674 50.2002C23.7858 57.5252 23.183 59.6172 21.6851 60.2417C20.5129 60.7298 19.2737 60.1204 19.1154 60.0386L19.1123 60.0416Z" stroke="#E6643A" stroke-linecap="round" stroke-linejoin="round"/>
<path d="M29.7496 15.9676C29.1221 13.9099 28.3656 11.0109 27.8583 7.46567C27.513 5.04527 27.0987 2.13408 27.7772 1.89631C28.7919 1.53965 31.7489 7.37422 32.0462 7.96255C32.5295 8.91974 32.8927 9.73365 33.1359 10.3067" stroke="#E6643A" stroke-linecap="round" stroke-linejoin="round"/>
<path d="M31.8149 22.2996C32.8497 21.4769 34.4634 20.1924 36.4374 18.6144C39.6525 16.0394 42.4518 13.6907 45.9595 11.1829C52.3127 6.63534 53.1811 6.50383 53.7478 6.83412C54.182 7.08795 54.801 7.81887 54.1543 13.9628C53.4798 20.3759 52.6176 21.3852 52.5744 24.4281C52.5129 28.8289 54.2867 28.7647 56.0605 35.7496C57.2308 40.3523 57.3817 44.0038 57.6712 50.8665C57.8282 54.6036 57.8005 57.7352 57.7389 59.9891" stroke="#E6643A" stroke-linecap="round" stroke-linejoin="round"/>
<path d="M40.1792 55.7864C41.2148 56.8157 42.6166 58.3843 43.9343 60.5446C45.126 62.4985 45.7294 63.4723 46.0085 64.9485C46.3927 66.9701 45.7954 67.8114 45.4562 72.7607C45.2971 75.0782 45.3421 76.1352 45.7324 76.2646C46.4167 76.4896 47.3023 73.5743 48.8691 73.565C50.346 73.5558 51.2495 76.1383 51.9129 75.8856C52.6453 75.6082 51.5707 72.4556 52.7443 71.6235C53.864 70.8284 56.1123 72.8038 56.4334 72.3816C56.8057 71.8916 54.0261 68.8993 51.8228 66.7944C51.3425 66.3352 50.9823 66.0086 50.7032 65.762C50.2319 65.3429 49.9978 65.2197 49.7066 64.8714C49.3374 64.4276 49.1633 64.0085 49.0763 63.8051C48.9742 63.5617 46.9871 58.8497 45.4142 56.3411C44.9429 55.5923 44.1925 54.5291 43.0428 53.3857" stroke="#E6643A" stroke-linecap="round" stroke-linejoin="round"/>
<path d="M57.3477 43.2607C57.9891 43.553 59.1269 44.1872 60.1138 45.4587C60.7436 46.2701 61.1035 47.0784 61.3096 47.6629" stroke="#E6643A" stroke-linecap="round" stroke-linejoin="round"/>
<path d="M59.9651 47.9903C60.9954 47.2689 62.4201 47.9451 62.6892 48.0839C63.7929 48.6454 64.2209 49.6113 64.8966 50.9606C64.8966 50.9606 66.1134 53.3784 67.5259 55.6906C68.969 58.0481 70.1063 59.5392 72.0355 60.9791C73.2737 61.8997 73.8179 61.9873 75.7594 63.4694C76.6185 64.1244 78.7342 65.7453 78.4529 66.2826C78.1716 66.8199 75.8633 65.5703 74.9216 66.4939C73.9402 67.4599 75.3466 69.9139 74.6709 70.3245C73.8944 70.7923 71.7879 67.7013 70.3692 68.2266C69.2503 68.6401 69.3817 71.0006 68.9353 70.9946C68.4034 70.9855 68.0304 67.6319 67.9356 66.6901C67.6268 63.6475 67.9723 63.7048 67.6757 62.2408C67.2079 59.9135 66.4497 60.318 64.8477 56.3849C64.6 55.7782 63.9244 54.0697 62.5944 52.3974C62.2734 51.9959 61.5396 51.1236 60.9496 51.2836C60.5429 51.3952 60.5154 51.9114 60.1974 51.9325C59.7144 51.9627 59.0204 50.7976 59.1182 49.6596C59.1365 49.4543 59.216 48.5156 59.9651 47.9903Z" stroke="#E6643A" stroke-linecap="round" stroke-linejoin="round"/>
<path d="M61.5466 51.625C61.842 51.9313 63.3558 53.5518 63.0235 55.553C62.7127 57.4204 60.9896 58.4373 59.7404 59.1718C58.1035 60.1352 56.6573 60.3731 53.9927 60.7894C52.525 61.0184 50.5189 61.2562 48.1035 61.3098" stroke="#E6643A" stroke-linecap="round" stroke-linejoin="round"/>
<path d="M44.5816 61.7382C40.7727 61.7812 36.7276 61.7075 32.4741 61.477C28.2052 61.2466 24.1632 60.8809 20.3696 60.4292" stroke="#E6643A" stroke-linecap="round" stroke-linejoin="round"/>
<path d="M12.886 49.4238C12.1361 49.5455 9.33549 50.099 7.35689 52.7269C7.00212 53.1984 4.33129 56.7509 5.88302 60.4372C7.20979 63.5882 10.5555 64.3152 10.9218 64.3912" stroke="#E6643A" stroke-linecap="round" stroke-linejoin="round"/>
<path d="M13.3261 45.0215C8.85905 45.0124 4.72743 47.3651 2.54423 51.1897C-0.572016 56.6448 1.95269 62.1456 2.18748 62.6302" stroke="#E6643A" stroke-linecap="round" stroke-linejoin="round"/>
<path d="M11.5649 52.5054C11.9747 53.656 13.3799 57.1396 16.9308 59.142C18.3936 59.9684 19.7867 60.2926 20.8095 60.4293" stroke="#E6643A" stroke-linecap="round" stroke-linejoin="round"/>
<path d="M71.5465 60.4294C72.4305 60.1517 73.726 59.6839 75.1831 58.9021C76.6066 58.1354 81.6698 55.4158 81.9837 52.4818C82.3099 49.4332 77.5851 45.4036 70.1138 43.7012" stroke="#E6643A" stroke-linecap="round" stroke-linejoin="round"/>
<path d="M52.5054 67.0326C55.0882 66.6091 58.0956 65.9195 61.3527 64.7792C63.6466 63.9747 65.6906 63.0794 67.4727 62.1902" stroke="#E6643A" stroke-linecap="round" stroke-linejoin="round"/>
<path d="M35.3369 67.9128C36.8189 68.0959 38.5328 68.2511 40.4441 68.3168C42.4838 68.3884 44.3198 68.3466 45.9021 68.2551" stroke="#E6643A" stroke-linecap="round" stroke-linejoin="round"/>
<path d="M37.978 54.9644C38.9641 55.9774 39.4952 56.1195 39.8036 55.9836C40.521 55.6717 40.0417 53.8434 40.9361 53.3585C41.6718 52.957 42.5816 53.8774 43.0608 53.4388C43.5096 53.0312 43.0669 51.9132 43.0334 51.8298C42.6274 50.8292 41.7085 50.4092 41.4521 50.3042" stroke="#E6643A" stroke-linecap="round" stroke-linejoin="round"/>
</svg>
