<svg width="109" height="53" viewBox="0 0 109 53" fill="none" xmlns="http://www.w3.org/2000/svg">
<path d="M23.4899 16.7043C23.7064 16.0971 24.2629 14.8176 25.5701 13.8693C27.197 12.6894 29.0202 12.7219 29.6293 12.7361C29.8539 12.7401 30.032 12.7544 30.1473 12.7645C32.1324 12.9331 32.4339 13.7738 36.6368 15.7884C38.6886 16.7713 39.7429 17.2688 41.1573 17.5328C41.6551 17.6262 43.5795 17.9552 46.1979 17.4739C49.0187 16.9581 49.5469 16.0727 52.1673 15.1487C55.235 14.0662 56.0262 14.7466 61.6799 14.0317C64.612 13.6621 64.4097 13.4773 68.8554 12.7056C69.9582 12.5147 71.9797 12.1776 81.1989 11.0769C83.6898 10.7804 87.5163 10.3296 92.4982 9.62285C99.0828 8.67447 100.451 8.29065 101.885 7.12294C105.329 4.32246 105.843 1.193 106.639 1.30672C107.353 1.41029 108.073 4.18234 107.474 7.03155C106.6 11.1947 103.29 13.7413 100.785 15.6137C98.1944 17.5491 95.4647 18.8041 90.0073 21.3121C87.3767 22.5205 84.0905 23.9197 81.1989 27.303C80.7618 27.8127 80.4299 28.2595 80.2094 28.5682" stroke="#E6643A" stroke-linecap="round" stroke-linejoin="round"/>
<path d="M80.2754 28.7468C79.6683 28.1274 78.6829 27.1851 77.3575 26.188C73.6099 23.3733 70.6677 22.7844 66.1148 20.7333C64.3867 19.9555 61.8815 18.7187 58.9555 16.8625" stroke="#E6643A" stroke-linecap="round" stroke-linejoin="round"/>
<path d="M82.0182 42.5219C82.4674 42.7818 83.1291 43.0885 83.9729 43.2266C85.8123 43.5271 87.2732 42.8245 87.8115 42.53C88.115 41.5146 87.6092 40.753 86.9009 40.0687C86.1219 39.3152 85.6463 39.0045 84.7762 38.0622C84.0619 37.2905 83.6228 36.4904 83.3456 35.8608" stroke="#E6643A" stroke-linecap="round" stroke-linejoin="round"/>
<path d="M68.2885 39.2461C69.8567 42.2456 70.9535 44.516 71.7123 46.1447C71.7123 46.1447 72.6775 48.2182 74.525 50.3444C74.9135 50.7912 75.5712 51.4898 76.6275 51.8249C76.935 51.9224 77.2608 51.9853 77.6028 52.0077C77.2952 51.4675 76.9269 50.647 77.4004 50.0926C77.6959 49.8408 78.1006 49.6377 78.7076 49.6377C78.91 49.6377 79.517 49.6377 78.91 48.8254C78.7157 48.6629 78.5154 48.5025 78.3029 48.3421C76.8177 47.2271 75.2838 46.5448 73.9078 46.1163C72.8698 44.1322 71.8337 42.1461 70.7956 40.162" stroke="#E6643A" stroke-linecap="round" stroke-linejoin="round"/>
<path d="M26.0289 20.981C27.6882 21.9517 29.568 21.97 31.4196 22.0654C33.2873 22.1629 35.155 22.4106 36.966 22.8899C40.3514 23.7875 42.6016 25.4447 46.6992 28.9681C51.3756 32.9871 50.7301 33.6735 54.5626 36.4861C58.4033 39.3029 61.651 40.5213 62.6486 40.8767C65.5322 41.9043 68.0818 42.3023 69.9131 42.4668" stroke="#E6643A" stroke-linecap="round" stroke-linejoin="round"/>
<path d="M58.956 16.8627C59.0511 16.9257 59.1947 17.015 59.3849 17.0922C61.0604 17.7745 62.8958 16.091 64.3486 15.4655C66.2002 14.6674 66.6555 15.1203 72.0623 14.8746C73.6103 14.8035 77.2324 14.6288 81.2512 13.9871C82.1617 13.8409 85.365 13.3108 89.4565 12.1127C92.2146 11.3064 95.5676 10.1408 99.2666 8.42676" stroke="#E6643A" stroke-linecap="round" stroke-linejoin="round"/>
<path d="M80.2093 28.5681C80.9074 29.8232 82.0628 31.5209 83.9022 33.0988C84.7217 33.8035 86.4012 35.1032 88.8396 36.0232C91.8425 37.1564 94.1048 36.998 94.0947 37.2904C94.0846 37.591 91.889 37.8489 89.8675 37.7331C89.1047 37.6884 87.7611 37.6032 86.1099 37.0548C83.8678 36.3116 82.2571 35.1154 81.2676 34.2259" stroke="#E6643A" stroke-linecap="round" stroke-linejoin="round"/>
<path d="M94.0928 37.2883C94.0139 38.123 93.7852 38.7221 93.593 39.114C93.1498 40.0177 92.6014 40.434 92.7127 41.088C92.7937 41.5652 93.1579 41.7053 93.0648 41.9429C92.9373 42.2739 92.219 42.0363 91.098 42.2963C90.0498 42.538 89.8292 42.9401 89.1311 42.8568C88.6171 42.7938 88.2266 42.5136 87.9837 42.2963" stroke="#E6643A" stroke-linecap="round" stroke-linejoin="round"/>
<path d="M79.7936 36.3787C79.7147 36.8965 79.658 37.6845 79.8543 38.6004C80.0708 39.6056 80.4897 40.2798 81.0057 41.0942C81.3517 41.6405 82.0559 42.733 83.2801 43.8622C83.873 44.4085 84.5408 44.9222 85.4332 45.962C85.852 46.4514 86.2648 46.9916 86.1009 47.3917C85.9916 47.6577 85.7731 47.6841 85.3117 48.0619C84.5388 48.6955 84.5934 49.1341 84.2514 49.2194C83.3489 49.4428 81.9223 46.6525 81.718 46.2544C80.7831 44.4267 81.1777 44.3028 80.3116 42.9361C79.7632 42.073 79.2614 41.5755 78.8688 40.4646C78.6442 39.831 78.5572 39.2786 78.5167 38.9111" stroke="#E6643A" stroke-linecap="round" stroke-linejoin="round"/>
<path d="M74.2174 45.9782C74.4866 45.8868 74.9196 45.7832 75.4093 45.8828C76.2592 46.0554 76.5931 46.6991 77.105 46.557C77.5117 46.4433 77.4308 46.0046 77.8659 45.8239C78.5316 45.5456 79.1346 46.4006 79.8246 46.2057C80.0978 46.1285 80.458 45.8645 80.7393 44.9587" stroke="#E6643A" stroke-linecap="round" stroke-linejoin="round"/>
<path d="M28.6759 14.915C28.6637 14.6591 29.1474 14.3566 29.5885 14.383C30.0741 14.4114 30.5355 14.8379 30.4728 15.0917C30.4161 15.3232 29.9264 15.3943 29.6492 15.3882C29.2384 15.3781 28.69 15.1831 28.6779 14.915H28.6759Z" stroke="#E6643A" stroke-linecap="round" stroke-linejoin="round"/>
<path d="M22.668 17.3682C23.4632 16.8402 23.5138 16.9052 24.1613 16.4279C25.0537 15.7699 25.5272 15.2257 25.6709 15.3313C25.8267 15.443 25.2763 16.0603 25.3593 16.9681C25.4341 17.7987 25.9987 18.3917 26.0877 18.4831C26.7251 19.137 27.3383 19.0436 27.4253 19.4579C27.5366 19.992 26.6138 20.589 26.5046 20.6601C25.94 21.0257 25.4018 21.1089 24.3859 21.2003C22.6781 21.3546 22.6255 21.2633 21.5915 21.375C20.2013 21.5252 19.8755 21.7385 18.7261 21.706C18.0847 21.6877 17.1336 21.6593 17.0244 21.2876C16.8969 20.8449 18.024 20.1544 18.3093 19.9818C19.1895 19.4437 19.402 19.6142 20.2883 19.1634C21.2717 18.6618 21.1402 18.3836 22.6659 17.3682H22.668Z" stroke="#E6643A" stroke-linecap="round" stroke-linejoin="round"/>
<path d="M23.2326 17.7806C23.5281 17.5714 23.9773 17.4638 24.0643 17.5998C24.1371 17.7115 23.9692 17.9897 23.7506 18.1197C23.4491 18.3005 23.0161 18.2213 22.9777 18.0832C22.9493 17.9796 23.1416 17.8435 23.2306 17.7806H23.2326Z" stroke="#E6643A" stroke-linecap="round" stroke-linejoin="round"/>
<path d="M36.8019 22.8799C36.3992 22.9895 35.7375 23.1764 34.9321 23.4424C31.1441 24.6954 28.5257 26.2612 27.6819 26.7506C22.6797 29.6587 15.7876 32.2053 11.18 33.8929C5.05074 36.137 1.19592 37.0163 1.30317 37.5869C1.38006 37.9911 3.37122 37.8895 8.60405 37.6479C22.1536 37.0224 21.6679 37.0996 22.7748 36.9716C26.9493 36.4822 30.794 35.7247 36.9456 34.5083C38.4409 34.2138 40.0314 33.8868 42.0246 33.6106C42.6823 33.5193 43.1456 33.4685 44.3071 33.3385C45.8531 33.1659 47.9131 32.9364 50.3838 32.6643" stroke="#E6643A" stroke-linecap="round" stroke-linejoin="round"/>
</svg>
