<svg xmlns="http://www.w3.org/2000/svg" width="834" height="35" viewBox="0 0 834 35" fill="none">
<path d="M-94.9995 35L-94.9995 0.375168L-89.5114 8.86645L-86.4866 11.4191L-82.1913 13.5549L-71.06 15.274L-63.8004 16.0033C-63.8004 16.0033 -61.078 16.1075 -55.1494 16.8889C-49.2812 17.6703 -49.6442 17.4619 -44.018 18.8164C-38.3918 20.1708 -32.8262 21.3169 -32.8262 21.3169L-30.7088 21.8378L-20.0009 19.3894L-10.3214 17.2015C-10.3214 17.2015 3.41126 17.8787 4.4397 17.8787C5.46815 17.8787 16.7205 17.514 16.7205 17.514L28.5173 16.2117L33.962 16.0554L37.8943 10.0646L40.2537 9.80414C40.2537 9.80414 46.0008 9.07483 47.6947 9.17902C49.3886 9.3353 50.4776 9.49158 50.4776 9.49158C50.4776 9.49158 53.2604 9.80414 55.6803 10.4814C58.1606 11.1586 57.1322 11.2107 60.278 11.8358C63.4238 12.513 65.8437 12.6172 66.5697 13.3465C67.3561 14.0758 70.2599 12.8256 70.2599 12.8256L82.2987 13.3986L89.2558 14.5447L94.1561 15.4824L97.4229 14.2842L100.387 13.034L104.743 11.94L114.362 12.4088L120.775 9.49158L136.564 9.07483C136.564 9.07483 138.923 9.02274 140.678 9.12692C142.372 9.28321 145.034 8.03296 146.002 7.61621C146.97 7.19945 151.204 7.77249 151.204 7.77249L154.955 7.45992L160.037 7.30364L165.965 9.75205C165.965 9.75205 178.73 10.846 181.876 11.3149C185.022 11.7837 185.99 11.2107 185.99 11.2107L201.537 9.75205L208.132 7.6683L216.48 11.2107L218.174 11.367L225.555 10.0125L236.867 10.2209L243.038 10.4293L248.906 11.2107L252.415 9.02273L253.262 10.5335L257.739 10.7939L259.796 11.94H266.995L268.689 11.6795L268.447 9.59577L275.101 8.03296L286.414 11.8358L293.613 12.2005L301.599 11.367L304.624 10.5335L312.791 9.12692L321.442 13.1902L330.819 7.87667L333.48 7.40783L337.352 7.30364L346.971 8.71017L352.355 10.0646L359.433 9.85624L364.213 9.49158L368.992 9.69995L376.614 10.5855L381.575 7.61621L385.568 7.51201L393.795 7.25155L397.183 7.14736L403.959 6.73061L407.407 6.8348L413.457 8.97065L419.688 9.69995L425.496 9.49158L427.794 8.5018L432.876 8.34552L439.712 8.13714L447.274 8.97065L451.812 9.75205L456.107 10.1688L458.406 11.2107L460.523 12.0963L463.064 13.3465L466.936 14.7531L469.961 15.2219L476.192 14.6489L478.188 14.18L486.718 14.0758L495.006 14.9614C495.006 14.9614 500.572 16.1075 502.75 17.2015C504.928 18.2954 507.408 19.4936 507.408 19.4936L508.194 20.5876L515.575 19.2331L522.411 14.4926L527.553 14.9093L531.002 15.1698L533.361 14.9093L539.048 13.7633L541.83 14.0758L545.702 14.9093L550.179 15.5345L553.627 15.6386L563.851 15.3261L569.901 14.3884L573.228 13.3465C573.228 13.3465 576.676 13.607 583.755 16.0554C590.833 18.5038 591.619 16.0033 591.619 16.0033L609.708 10.3251L613.7 9.80414L616.846 10.273L622.775 11.4191L625.8 10.9502L628.824 10.273L631.607 10.7418L633.059 11.8358L635.782 11.7316H640.258C640.258 11.7316 655.141 9.80414 656.532 10.1688C657.923 10.4814 660.706 11.1586 660.706 11.1586L665.909 11.7316L670.265 14.2321L673.41 14.701L677.161 14.5968L680.972 14.8572C680.972 14.8572 688.535 15.1698 690.954 15.274C693.374 15.3782 698.093 15.0656 698.093 15.0656L703.356 12.8256L707.833 10.0125H716L718.359 9.85624C718.359 9.85624 722.594 11.419 723.562 11.0023C724.53 10.5855 726.224 10.5335 726.224 10.5335L732.274 9.38739L736.69 9.07483L740.683 8.18923C740.683 8.18923 744.07 12.6172 746.188 13.1382L746.732 14.8051L750.241 15.4303L753.629 15.3261L759.134 15.7428C759.134 15.7428 761.554 16.2117 762.643 16.368C763.671 16.5242 762.764 17.3056 762.824 17.8787C762.824 18.4517 763.913 18.608 765.849 20.4313L769.479 18.9727L768.934 16.7326L771.536 15.6907L775.166 14.4405L777.464 13.607L782.183 12.8777L788.535 11.367L791.621 11.2628H793.315L800.514 11.1586L803.357 12.4088L810.072 11.0544L818.239 15.3261L821.687 15.7949L824.047 18.5559L827.798 18.4517L835.299 18.1912L837.961 17.3577L847.822 16.6805L849.879 16.7847L851.996 17.6703L857.804 17.4619L861.494 16.5763L867.483 15.0656L874.501 13.5028L878.373 14.701L882.789 14.5447L894.223 12.8777L896.461 11.1065L902.934 10.8981L905.052 11.7837L910.799 11.4191L909.589 9.54367L914.489 10.6897L927.254 11.7837V35H-94.9995Z" fill="#E6643A"/>
</svg>