<svg xmlns="http://www.w3.org/2000/svg" width="375" height="47" viewBox="0 0 375 47" fill="none">
<path d="M-95.9995 47L-95.9995 0.612659L-92.8584 11.9885L-91.1271 15.4083L-88.6687 18.2697L-82.2975 20.5728L-78.1425 21.5499C-78.1425 21.5499 -76.5843 21.6895 -73.191 22.7363C-69.8323 23.7832 -70.0401 23.504 -66.8199 25.3186C-63.5997 27.1331 -60.4142 28.6685 -60.4142 28.6685L-59.2023 29.3664L-53.0735 26.0863L-47.5334 23.1551C-47.5334 23.1551 -39.6734 24.0623 -39.0848 24.0623C-38.4961 24.0623 -32.0558 23.5738 -32.0558 23.5738L-25.3038 21.829L-22.1875 21.6197L-19.9368 13.5937L-18.5864 13.2448C-18.5864 13.2448 -15.297 12.2677 -14.3274 12.4073C-13.3579 12.6167 -12.7347 12.826 -12.7347 12.826C-12.7347 12.826 -11.1419 13.2448 -9.75687 14.1521C-8.33722 15.0593 -8.92585 15.1291 -7.12531 15.9666C-5.32478 16.8739 -3.93976 17.0135 -3.52425 17.9906C-3.07411 18.9676 -1.41209 17.2927 -1.41209 17.2927L5.4784 18.0603L9.46035 19.5957L12.265 20.852L14.1348 19.2468L15.8315 17.5718L18.3245 16.1062L23.83 16.7343L27.5003 12.826L36.5376 12.2677C36.5376 12.2677 37.888 12.1979 38.8921 12.3375C39.8616 12.5469 41.3852 10.8719 41.9392 10.3136C42.4932 9.75525 44.917 10.5229 44.917 10.5229L47.0638 10.1042L49.9723 9.89482L53.3656 13.175C53.3656 13.175 60.6716 14.6406 62.4722 15.2687C64.2727 15.8968 64.8267 15.1291 64.8267 15.1291L73.7255 13.175L77.4997 10.3834L82.278 15.1291L83.2476 15.3385L87.4719 13.5239L93.9469 13.8031L97.4787 14.0823L100.837 15.1291L102.846 12.1979L103.33 14.2219L105.893 14.5708L107.07 16.1062H111.19L112.16 15.7572L112.021 12.9656L115.83 10.8719L122.305 15.9666L126.426 16.4552L130.996 15.3385L132.728 14.2219L137.402 12.3375L142.354 17.7812L147.72 10.6625L149.244 10.0344L151.46 9.89482L156.965 11.7792L160.047 13.5937L164.098 13.3146L166.834 12.826L169.569 13.1052L173.932 14.2916L176.771 10.3136L179.057 10.174L183.766 9.82504L185.705 9.68546L189.583 9.12713L191.557 9.26672L195.019 12.1281L198.586 13.1052L201.91 12.826L203.225 11.5L206.134 11.2906L210.047 11.0115L214.375 12.1281L216.972 13.175L219.43 13.7333L220.746 15.1291L221.958 16.3156L223.412 17.9906L225.628 19.8749L227.359 20.503L230.926 19.7353L232.068 19.1072L236.951 18.9676L241.694 20.1541C241.694 20.1541 244.88 21.6895 246.126 23.1551C247.373 24.6207 248.793 26.2259 248.793 26.2259L249.243 27.6915L253.467 25.8769L257.38 19.5259L260.323 20.0843L262.297 20.4332L263.647 20.0843L266.902 18.5489L268.495 18.9676L270.711 20.0843L273.273 20.9218L275.247 21.0613L281.098 20.6426L284.561 19.3864L286.465 17.9906C286.465 17.9906 288.439 18.3395 292.49 21.6197C296.541 24.8998 296.992 21.5499 296.992 21.5499L307.345 13.9427L309.63 13.2448L311.43 13.8729L314.824 15.4083L316.555 14.7802L318.286 13.8729L319.879 14.501L320.71 15.9666L322.268 15.827H324.831C324.831 15.827 333.348 13.2448 334.145 13.7333C334.941 14.1521 336.534 15.0593 336.534 15.0593L339.512 15.827L342.005 19.177L343.805 19.8051L345.952 19.6655L348.134 20.0145C348.134 20.0145 352.462 20.4332 353.847 20.5728C355.232 20.7124 357.933 20.2937 357.933 20.2937L360.945 17.2927L363.507 13.5239H368.182L369.532 13.3146C369.532 13.3146 371.956 15.4083 372.51 14.85C373.064 14.2916 374.034 14.2219 374.034 14.2219L377.496 12.6865L380.024 12.2677L382.309 11.0813C382.309 11.0813 384.248 17.0135 385.46 17.7114L385.772 19.9447L387.78 20.7822L389.719 20.6426L392.87 21.2009C392.87 21.2009 394.255 21.829 394.878 22.0384C395.467 22.2478 394.947 23.2946 394.982 24.0623C394.982 24.83 395.605 25.0394 396.713 27.4821L398.791 25.528L398.479 22.5269L399.968 21.1311L402.046 19.4562L403.361 18.3395L406.062 17.3624L409.698 15.3385L411.464 15.1989H412.433L416.554 15.0593L418.181 16.7343L422.025 14.9198L426.699 20.6426L428.673 21.2707L430.023 24.9696L432.17 24.83L436.464 24.4811L437.987 23.3644L443.631 22.4572L444.808 22.5967L446.02 23.7832L449.344 23.504L451.456 22.3176L454.884 20.2937L458.901 18.1999L461.117 19.8051L463.645 19.5957L470.189 17.3624L471.47 14.9895L475.175 14.7104L476.387 15.8968L479.676 15.4083L478.984 12.8958L481.789 14.4312L489.094 15.8968V47H-95.9995Z" fill="#E6643A"/>
</svg>