<svg xmlns="http://www.w3.org/2000/svg" width="1440" height="97" viewBox="0 0 1440 97" fill="none">
<path d="M0 96.7062V0.218681L7.74031 14.2862L12.0065 18.5151L18.0644 22.0535L33.7639 24.9016L44.0027 26.1098C44.0027 26.1098 47.8422 26.2824 56.2039 27.577C64.4803 28.8715 63.9683 28.5263 71.9034 30.7702C79.8384 33.0141 87.6882 34.9128 87.6882 34.9128L90.6745 35.7758L105.777 31.7195L119.428 28.0948C119.428 28.0948 138.797 29.2167 140.247 29.2167C141.698 29.2167 157.568 28.6126 157.568 28.6126L174.206 26.455L181.885 26.1961L187.431 16.2712L190.759 15.8397C190.759 15.8397 198.864 14.6314 201.253 14.804C203.642 15.0629 205.178 15.3218 205.178 15.3218C205.178 15.3218 209.103 15.8397 212.516 16.9616C216.014 18.0835 214.564 18.1699 219.001 19.2055C223.437 20.3274 226.85 20.5001 227.874 21.7083C228.983 22.9166 233.079 20.8453 233.079 20.8453L250.058 21.7946L259.87 23.6933L266.782 25.2468L271.389 23.2618L275.57 21.1905L281.713 19.3781L295.28 20.1548L304.324 15.3218L326.593 14.6314C326.593 14.6314 329.921 14.5451 332.395 14.7177C334.784 14.9766 338.538 12.9053 339.904 12.2149C341.269 11.5245 347.241 12.4738 347.241 12.4738L352.531 11.956L359.699 11.6971L368.06 15.7533C368.06 15.7533 386.063 17.5657 390.5 18.3425C394.937 19.1192 396.302 18.1699 396.302 18.1699L418.23 15.7533L427.531 12.3012L439.305 18.1699L441.694 18.4288L452.104 16.1849L468.059 16.5301L476.762 16.8753L485.038 18.1699L489.987 14.5451L491.182 17.0479L497.496 17.4794L500.397 19.3781H510.55L512.939 18.9466L512.598 15.4944L521.983 12.9053L537.939 19.2055L548.092 19.8096L559.355 18.4288L563.621 17.0479L575.14 14.7177L587.341 21.4494L600.566 12.6464L604.32 11.8697L609.781 11.6971L623.347 14.0273L630.941 16.2712L640.924 15.926L647.664 15.3218L654.405 15.667L665.156 17.1342L672.152 12.2149L677.784 12.0423L689.388 11.6108L694.166 11.4382L703.722 10.7477L708.585 10.9203L717.118 14.4588L725.906 15.667L734.097 15.3218L737.339 13.6821L744.506 13.4231L754.148 13.0779L764.813 14.4588L771.212 15.7533L777.27 16.4438L780.513 18.1699L783.499 19.637L787.083 21.7083L792.543 24.0385L796.809 24.8152L805.598 23.8659L808.413 23.0892L820.444 22.9166L832.133 24.3837C832.133 24.3837 839.983 26.2824 843.055 28.0948C846.126 29.9072 849.625 31.8921 849.625 31.8921L850.734 33.7045L861.143 31.4606L870.785 23.607L878.037 24.2974L882.901 24.7289L886.228 24.2974L894.249 22.3987L898.173 22.9166L903.634 24.2974L909.948 25.3331L914.811 25.5057L929.231 24.9878L937.763 23.4344L942.456 21.7083C942.456 21.7083 947.32 22.1398 957.302 26.1961C967.285 30.2524 968.394 26.1098 968.394 26.1098L993.906 16.7027L999.537 15.8397L1003.97 16.6164L1012.34 18.5151L1016.6 17.7383L1020.87 16.6164L1024.79 17.3931L1026.84 19.2055L1030.68 19.0329H1036.99C1036.99 19.0329 1057.98 15.8397 1059.95 16.4438C1061.91 16.9616 1065.83 18.0835 1065.83 18.0835L1073.17 19.0329L1079.31 23.1755L1083.75 23.9522L1089.04 23.7796L1094.42 24.2111C1094.42 24.2111 1105.08 24.7289 1108.5 24.9016C1111.91 25.0742 1118.56 24.5563 1118.56 24.5563L1125.99 20.8453L1132.3 16.1849H1143.82L1147.15 15.926C1147.15 15.926 1153.12 18.5151 1154.48 17.8246C1155.85 17.1342 1158.24 17.0479 1158.24 17.0479L1166.77 15.1492L1173 14.6314L1178.63 13.1642C1178.63 13.1642 1183.41 20.5001 1186.4 21.3631L1187.16 24.1248L1192.11 25.1605L1196.89 24.9878L1204.65 25.6783C1204.65 25.6783 1208.07 26.455 1209.6 26.7139C1211.05 26.9728 1209.77 28.2674 1209.86 29.2167C1209.86 30.1661 1211.39 30.425 1214.13 33.4456L1219.24 31.0291L1218.48 27.318L1222.15 25.592L1227.27 23.5207L1230.51 22.1398L1237.16 20.9316L1246.12 18.4288L1250.47 18.2562H1252.86L1263.02 18.0835L1267.03 20.1548L1276.5 17.9109L1288.02 24.9878L1292.88 25.7646L1296.21 30.3387L1301.5 30.1661L1312.08 29.7346L1315.83 28.3537L1329.74 27.2317L1332.64 27.4044L1335.63 28.8715L1343.82 28.5263L1349.02 27.0591L1357.47 24.5563L1367.37 21.9672L1372.83 23.9522L1379.06 23.6933L1395.18 20.9316L1398.34 17.9972L1407.47 17.652L1410.45 19.1192L1418.56 18.5151L1416.85 15.4081L1423.76 17.3068L1441.77 19.1192V96.7062H0Z" fill="#E6643A"/>
</svg>