<svg xmlns="http://www.w3.org/2000/svg" width="834" height="32" viewBox="0 0 834 32" fill="none">
<path d="M-94.9995 0L-94.9995 31.4818L-89.5114 22.9905L-86.4866 20.4379L-82.1913 18.302L-71.06 16.5829L-63.8004 15.8536C-63.8004 15.8536 -61.078 15.7494 -55.1494 14.968C-49.2812 14.1866 -49.6442 14.395 -44.018 13.0406C-38.3918 11.6861 -32.8262 10.5401 -32.8262 10.5401L-30.7088 10.0191L-20.0009 12.4675L-10.3214 14.6555C-10.3214 14.6555 3.41126 13.9783 4.4397 13.9783C5.46815 13.9783 16.7205 14.3429 16.7205 14.3429L28.5173 15.6453L33.962 15.8015L37.8943 21.7923L40.2537 22.0528C40.2537 22.0528 46.0008 22.7821 47.6947 22.6779C49.3886 22.5216 50.4776 22.3654 50.4776 22.3654C50.4776 22.3654 53.2604 22.0528 55.6803 21.3756C58.1606 20.6984 57.1322 20.6463 60.278 20.0211C63.4238 19.3439 65.8437 19.2397 66.5697 18.5104C67.3561 17.7811 70.2599 19.0314 70.2599 19.0314L82.2987 18.4583L89.2558 17.3123L94.1561 16.3746L97.4229 17.5727L100.387 18.823L104.743 19.917L114.362 19.4481L120.775 22.3654L136.564 22.7821C136.564 22.7821 138.923 22.8342 140.678 22.73C142.372 22.5737 145.034 23.824 146.002 24.2407C146.97 24.6575 151.204 24.0845 151.204 24.0845L154.955 24.397L160.037 24.5533L165.965 22.1049C165.965 22.1049 178.73 21.0109 181.876 20.5421C185.022 20.0732 185.99 20.6463 185.99 20.6463L201.537 22.1049L208.132 24.1886L216.48 20.6463L218.174 20.49L225.555 21.8444L236.867 21.636L243.038 21.4277L248.906 20.6463L252.415 22.8342L253.262 21.3235L257.739 21.063L259.796 19.917H266.995L268.689 20.1774L268.447 22.2612L275.101 23.824L286.414 20.0211L293.613 19.6565L301.599 20.49L304.624 21.3235L312.791 22.73L321.442 18.6667L330.819 23.9803L333.48 24.4491L337.352 24.5533L346.971 23.1468L352.355 21.7923L359.433 22.0007L364.213 22.3654L368.992 22.157L376.614 21.2714L381.575 24.2407L385.568 24.3449L393.795 24.6054L397.183 24.7096L403.959 25.1263L407.407 25.0221L413.457 22.8863L419.688 22.157L425.496 22.3654L427.794 23.3551L432.876 23.5114L439.712 23.7198L447.274 22.8863L451.812 22.1049L456.107 21.6881L458.406 20.6463L460.523 19.7607L463.064 18.5104L466.936 17.1039L469.961 16.635L476.192 17.2081L478.188 17.6769L486.718 17.7811L495.006 16.8955C495.006 16.8955 500.572 15.7494 502.75 14.6555C504.928 13.5615 507.408 12.3634 507.408 12.3634L508.194 11.2694L515.575 12.6238L522.411 17.3644L527.553 16.9476L531.002 16.6871L533.361 16.9476L539.048 18.0937L541.83 17.7811L545.702 16.9476L550.179 16.3225L553.627 16.2183L563.851 16.5309L569.901 17.4685L573.228 18.5104C573.228 18.5104 576.676 18.25 583.755 15.8015C590.833 13.3531 591.619 15.8536 591.619 15.8536L609.708 21.5319L613.7 22.0528L616.846 21.584L622.775 20.4379L625.8 20.9067L628.824 21.584L631.607 21.1151L633.059 20.0211L635.782 20.1253H640.258C640.258 20.1253 655.141 22.0528 656.532 21.6881C657.923 21.3756 660.706 20.6984 660.706 20.6984L665.909 20.1253L670.265 17.6248L673.41 17.156L677.161 17.2602L680.972 16.9997C680.972 16.9997 688.535 16.6871 690.954 16.5829C693.374 16.4788 698.093 16.7913 698.093 16.7913L703.356 19.0314L707.833 21.8444H716L718.359 22.0007C718.359 22.0007 722.594 20.4379 723.562 20.8546C724.53 21.2714 726.224 21.3235 726.224 21.3235L732.274 22.4696L736.69 22.7821L740.683 23.6677C740.683 23.6677 744.07 19.2397 746.188 18.7188L746.732 17.0518L750.241 16.4267L753.629 16.5309L759.134 16.1141C759.134 16.1141 761.554 15.6453 762.643 15.489C763.671 15.3327 762.764 14.5513 762.824 13.9783C762.824 13.4052 763.913 13.2489 765.849 11.4257L769.479 12.8843L768.934 15.1243L771.536 16.1662L775.166 17.4165L777.464 18.25L782.183 18.9793L788.535 20.49L791.621 20.5942H793.315L800.514 20.6984L803.357 19.4481L810.072 20.8025L818.239 16.5309L821.687 16.062L824.047 13.301L827.798 13.4052L835.299 13.6657L837.961 14.4992L847.822 15.1764L849.879 15.0722L851.996 14.1866L857.804 14.395L861.494 15.2806L867.483 16.7913L874.501 18.3541L878.373 17.156L882.789 17.3123L894.223 18.9793L896.461 20.7505L902.934 20.9588L905.052 20.0732L910.799 20.4379L909.589 22.3133L914.489 21.1672L927.254 20.0732V0L-94.9995 0Z" fill="#E6643A"/>
</svg>