<svg xmlns="http://www.w3.org/2000/svg" width="375" height="43" viewBox="0 0 375 43" fill="none">
<path d="M-95.9995 0L-95.9995 42.1765L-92.8584 30.8007L-91.1271 27.3809L-88.6687 24.5195L-82.2975 22.2164L-78.1425 21.2393C-78.1425 21.2393 -76.5843 21.0997 -73.191 20.0529C-69.8323 19.006 -70.0401 19.2852 -66.8199 17.4706C-63.5997 15.6561 -60.4142 14.1207 -60.4142 14.1207L-59.2023 13.4228L-53.0735 16.7029L-47.5334 19.6341C-47.5334 19.6341 -39.6734 18.7269 -39.0848 18.7269C-38.4961 18.7269 -32.0558 19.2154 -32.0558 19.2154L-25.3038 20.9602L-22.1875 21.1695L-19.9368 29.1955L-18.5864 29.5444C-18.5864 29.5444 -15.297 30.5215 -14.3274 30.3819C-13.3579 30.1725 -12.7347 29.9632 -12.7347 29.9632C-12.7347 29.9632 -11.1419 29.5444 -9.75687 28.6371C-8.33722 27.7299 -8.92585 27.6601 -7.12531 26.8226C-5.32478 25.9153 -3.93976 25.7757 -3.52425 24.7986C-3.07411 23.8216 -1.41209 25.4966 -1.41209 25.4966L5.4784 24.7289L9.46035 23.1935L12.265 21.9372L14.1348 23.5424L15.8315 25.2174L18.3245 26.683L23.83 26.0549L27.5003 29.9632L36.5376 30.5215C36.5376 30.5215 37.888 30.5913 38.8921 30.4517C39.8616 30.2423 41.3852 31.9173 41.9392 32.4756C42.4932 33.034 44.917 32.2663 44.917 32.2663L47.0638 32.685L49.9723 32.8944L53.3656 29.6142C53.3656 29.6142 60.6716 28.1486 62.4722 27.5205C64.2727 26.8924 64.8267 27.6601 64.8267 27.6601L73.7255 29.6142L77.4997 32.4058L82.278 27.6601L83.2476 27.4507L87.4719 29.2652L93.9469 28.9861L97.4787 28.7069L100.837 27.6601L102.846 30.5913L103.33 28.5673L105.893 28.2184L107.07 26.683H111.19L112.16 27.032L112.021 29.8236L115.83 31.9173L122.305 26.8226L126.426 26.334L130.996 27.4507L132.728 28.5673L137.402 30.4517L142.354 25.008L147.72 32.1267L149.244 32.7548L151.46 32.8944L156.965 31.01L160.047 29.1955L164.098 29.4746L166.834 29.9632L169.569 29.684L173.932 28.4976L176.771 32.4756L179.057 32.6152L183.766 32.9642L185.705 33.1037L189.583 33.6621L191.557 33.5225L195.019 30.6611L198.586 29.684L201.91 29.9632L203.225 31.2892L206.134 31.4986L210.047 31.7777L214.375 30.6611L216.972 29.6142L219.43 29.0559L220.746 27.6601L221.958 26.4736L223.412 24.7986L225.628 22.9143L227.359 22.2862L230.926 23.0539L232.068 23.682L236.951 23.8216L241.694 22.6351C241.694 22.6351 244.88 21.0997 246.126 19.6341C247.373 18.1685 248.793 16.5633 248.793 16.5633L249.243 15.0977L253.467 16.9123L257.38 23.2633L260.323 22.7049L262.297 22.356L263.647 22.7049L266.902 24.2403L268.495 23.8216L270.711 22.7049L273.273 21.8674L275.247 21.7279L281.098 22.1466L284.561 23.4028L286.465 24.7986C286.465 24.7986 288.439 24.4497 292.49 21.1695C296.541 17.8894 296.992 21.2393 296.992 21.2393L307.345 28.8465L309.63 29.5444L311.43 28.9163L314.824 27.3809L316.555 28.009L318.286 28.9163L319.879 28.2882L320.71 26.8226L322.268 26.9622H324.831C324.831 26.9622 333.348 29.5444 334.145 29.0559C334.941 28.6371 336.534 27.7299 336.534 27.7299L339.512 26.9622L342.005 23.6122L343.805 22.9841L345.952 23.1237L348.134 22.7747C348.134 22.7747 352.462 22.356 353.847 22.2164C355.232 22.0768 357.933 22.4956 357.933 22.4956L360.945 25.4966L363.507 29.2652H368.182L369.532 29.4746C369.532 29.4746 371.956 27.3809 372.51 27.9392C373.064 28.4976 374.034 28.5673 374.034 28.5673L377.496 30.1027L380.024 30.5215L382.309 31.7079C382.309 31.7079 384.248 25.7757 385.46 25.0778L385.772 22.8445L387.78 22.007L389.719 22.1466L392.87 21.5883C392.87 21.5883 394.255 20.9602 394.878 20.7508C395.467 20.5414 394.947 19.4946 394.982 18.7269C394.982 17.9592 395.605 17.7498 396.713 15.3071L398.791 17.2612L398.479 20.2623L399.968 21.6581L402.046 23.333L403.361 24.4497L406.062 25.4268L409.698 27.4507L411.464 27.5903H412.433L416.554 27.7299L418.181 26.0549L422.025 27.8694L426.699 22.1466L428.673 21.5185L430.023 17.8196L432.17 17.9592L436.464 18.3081L437.987 19.4248L443.631 20.332L444.808 20.1925L446.02 19.006L449.344 19.2852L451.456 20.4716L454.884 22.4956L458.901 24.5893L461.117 22.9841L463.645 23.1935L470.189 25.4268L471.47 27.7997L475.175 28.0788L476.387 26.8924L479.676 27.3809L478.984 29.8934L481.789 28.358L489.094 26.8924V0L-95.9995 0Z" fill="#E6643A"/>
</svg>