<svg xmlns="http://www.w3.org/2000/svg" width="127" height="114" viewBox="0 0 127 114" fill="none">
<g clip-path="url(#clip0_358_6010)">
<path d="M106.859 0.599629C107.242 0.691871 109.922 1.37216 110.573 3.21989C110.767 3.77334 110.747 4.1942 111.087 5.42794C111.226 5.92662 111.444 6.5262 111.836 7.27855C112.568 8.68813 114.331 11.441 114.58 11.7206C114.839 12.0117 114.891 12.2135 114.897 12.2279C115.614 13.6865 114.891 15.4218 113.448 18.8953C113.332 19.1749 113.114 19.6909 112.806 20.3366C112.603 20.7661 112.446 21.0659 112.42 21.1178C111.746 22.4524 112.286 26.0383 112.565 27.7708C112.911 29.9125 113.276 31.9793 113.343 32.4002C113.456 33.115 113.451 33.1006 113.5 33.2794C114.659 37.4245 117.255 39.8545 118.907 41.7339C123.295 46.7266 125.609 53.0596 126.28 56.9712C127.985 66.8902 121.579 75.5898 118.898 79.2333C113.962 85.9382 108.163 89.3569 106.298 90.3889C97.0754 95.4968 88.5147 95.2028 76.3298 94.7848C62.6756 94.3149 52.2476 91.3171 45.9084 89.037C38.1607 86.2524 32.4197 84.1193 26.8383 78.6712C23.3885 75.3015 21.2831 71.5801 17.0754 64.1344C14.6883 59.9114 14.3021 58.597 14.8045 57.3748C15.4201 55.873 17.2932 54.6911 30.6977 52.5292C37.4057 51.4453 41.1895 51.0562 41.5961 49.2603C41.8574 48.1102 40.4722 47.5193 38.8722 44.3023C37.8297 42.2038 36.3719 39.278 37.2837 37.8799C39.2991 34.7783 52.4074 39.99 52.721 39.1195C52.9272 38.5458 47.1571 36.4963 47.3865 35.5133C47.7756 33.8472 65.1323 36.4761 67.7052 36.8653C82.1987 39.0589 89.4468 40.1572 90.9772 40.9211C91.8803 41.3736 94.2819 42.6391 95.5189 41.7109C96.7183 40.8086 95.8122 38.5891 95.5189 34.4987C95.4115 32.9969 95.5102 31.9245 95.5683 30.2872C95.7542 25.1159 96.2943 25.1159 96.1985 22.5562C96.0271 17.8749 94.1657 17.5203 94.8307 14.0151C95.0514 12.8477 95.4347 10.8299 96.8838 8.92162C97.4907 8.12026 97.8798 7.87524 98.4955 6.88364C99.6773 4.98114 99.2766 4.22879 100.035 3.02676C101.097 1.34622 104.091 -0.0662452 106.862 0.599629H106.859Z" stroke="#FBFAF5" stroke-width="1.5" stroke-linecap="round" stroke-linejoin="round"/>
<path d="M99.9387 7.23808C100.223 7.22367 100.514 7.75406 100.578 8.19509C100.65 8.70243 100.456 9.35101 100.142 9.39713C99.8661 9.43748 99.5438 9.01086 99.4392 8.63325C99.2708 8.01638 99.6106 7.25538 99.9416 7.23808H99.9387Z" stroke="#FBFAF5" stroke-width="1.5" stroke-linecap="round" stroke-linejoin="round"/>
<path d="M111.673 7.34196C111.316 7.34772 110.787 8.83513 111.296 9.25022C111.51 9.42606 111.911 9.41453 112.12 9.22716C112.617 8.78324 112.03 7.33331 111.676 7.34196H111.673Z" stroke="#FBFAF5" stroke-width="1.5" stroke-linecap="round" stroke-linejoin="round"/>
<path d="M106.722 14.6982C107.006 14.6434 107.09 14.4215 108.11 12.9629C109.446 11.0546 109.582 11.0373 109.64 11.0575C110 11.1815 108.978 13.4328 109.216 16.4191C109.321 17.7278 109.553 17.7364 110.453 21.0687C111.319 24.277 111.745 25.9056 111.406 27.0817C110.97 28.5893 109.626 30.5639 107.575 30.8118C105.307 31.0856 103.449 29.0938 102.708 27.5833C102.168 26.4822 102.221 25.1879 102.351 22.6483C102.528 19.1864 102.967 18.8722 103.066 16.0271C103.17 13.0782 102.772 11.2593 103.263 11.1181C104.004 10.9019 105.421 14.9403 106.722 14.6953V14.6982Z" stroke="#FBFAF5" stroke-width="1.5" stroke-linecap="round" stroke-linejoin="round"/>
<path d="M79.2105 95.2028C78.7401 99.2384 78.8562 102.377 79.0508 104.49C79.1553 105.615 79.2889 106.534 80.0033 107.165C81.3159 108.33 83.3428 107.552 86.1857 107.165C91.7438 106.41 96.6892 107.725 96.7415 108.509C96.7792 109.088 94.1483 109.301 94.0263 110.385C93.8724 111.743 97.8362 112.882 97.6852 113.432C97.4936 114.138 91.1253 111.936 82.6981 111.731C78.8824 111.639 73.2749 111.85 72.787 110.63C72.5112 109.938 73.15 109.555 73.6582 107.719C73.6582 107.719 73.7221 107.468 73.8005 107.116C73.8063 107.096 73.8121 107.065 73.8208 107.027C74.48 104.064 74.6949 101.703 74.6949 101.703C74.9476 98.8319 74.663 96.0819 74.5033 94.8367" stroke="#FBFAF5" stroke-width="1.5" stroke-linecap="round" stroke-linejoin="round"/>
<path d="M39.0693 36.9315C31.4233 37.877 25.3716 38.2431 21.2015 38.4016C21.2015 38.4016 15.022 38.638 4.23682 41.1804C2.28539 41.6416 1.1761 41.953 0.682431 42.8869C-1.12961 46.3085 7.38758 54.3019 15.2717 60.7992" stroke="#FBFAF5" stroke-width="1.5" stroke-linecap="round" stroke-linejoin="round"/>
</g>
<defs>
<clipPath id="clip0_358_6010">
<rect width="127" height="114" fill="white" transform="matrix(-1 0 0 1 127 0)"/>
</clipPath>
</defs>
</svg>