<svg xmlns="http://www.w3.org/2000/svg" width="178" height="160" viewBox="0 0 178 160" fill="none">
<g clip-path="url(#clip0_286_1665)">
<path d="M149.77 0.841512C150.307 0.970975 154.064 1.92576 154.975 4.51907C155.248 5.29585 155.219 5.88652 155.696 7.61809C155.891 8.318 156.196 9.1595 156.746 10.2154C157.771 12.1938 160.242 16.0575 160.592 16.4499C160.954 16.8585 161.027 17.1417 161.036 17.1619C162.041 19.2091 161.027 21.6446 159.005 26.5197C158.842 26.9121 158.537 27.6363 158.105 28.5425C157.82 29.1453 157.6 29.5661 157.564 29.6389C156.62 31.5121 157.377 36.545 157.767 38.9764C158.252 41.9824 158.764 44.8832 158.858 45.4739C159.017 46.4772 159.009 46.457 159.078 46.7078C160.702 52.5255 164.34 55.9361 166.656 58.5739C172.806 65.5811 176.05 74.4695 176.99 79.9595C179.379 93.8808 170.401 106.091 166.644 111.205C159.725 120.615 151.597 125.413 148.984 126.862C136.058 134.031 124.059 133.618 106.981 133.031C87.8437 132.372 73.2281 128.164 64.3432 124.964C53.4842 121.056 45.4377 118.062 37.6151 110.416C32.7798 105.686 29.829 100.463 23.9315 90.0131C20.5859 84.0862 20.0446 82.2413 20.7487 80.5259C21.6116 78.4181 24.2368 76.7594 43.0242 73.7251C52.426 72.2039 57.7293 71.6577 58.2991 69.1372C58.6654 67.523 56.724 66.6936 54.4814 62.1786C53.0202 59.2333 50.9771 55.1269 52.2551 53.1648C55.0797 48.8116 73.452 56.1262 73.8915 54.9044C74.1805 54.0993 66.0933 51.2228 66.4148 49.8432C66.9602 47.5048 91.287 51.1945 94.893 51.7407C115.207 54.8195 125.366 56.3609 127.51 57.433C128.776 58.0682 132.142 59.8442 133.876 58.5415C135.557 57.2752 134.287 54.16 133.876 48.4191C133.725 46.3113 133.864 44.8063 133.945 42.5083C134.206 35.2503 134.963 35.2503 134.828 31.6577C134.588 25.0875 131.979 24.5899 132.911 19.6703C133.221 18.0318 133.758 15.1998 135.789 12.5215C136.64 11.3968 137.185 11.0529 138.048 9.66117C139.704 6.991 139.143 5.93507 140.205 4.24801C141.695 1.88935 145.891 -0.0930486 149.774 0.841512H149.77Z" stroke="#FBFAF5" stroke-width="2" stroke-linecap="round" stroke-linejoin="round"/>
<path d="M140.072 10.1589C140.47 10.1386 140.877 10.883 140.967 11.502C141.069 12.2141 140.796 13.1244 140.356 13.1891C139.97 13.2457 139.518 12.647 139.372 12.117C139.135 11.2512 139.612 10.1831 140.076 10.1589H140.072Z" stroke="#FBFAF5" stroke-width="2" stroke-linecap="round" stroke-linejoin="round"/>
<path d="M156.518 10.3045C156.018 10.3126 155.277 12.4002 155.989 12.9828C156.29 13.2296 156.852 13.2134 157.145 12.9504C157.841 12.3274 157.019 10.2924 156.522 10.3045H156.518Z" stroke="#FBFAF5" stroke-width="2" stroke-linecap="round" stroke-linejoin="round"/>
<path d="M149.579 20.6291C149.978 20.5522 150.096 20.2407 151.524 18.1936C153.397 15.5153 153.588 15.4911 153.669 15.5194C154.174 15.6933 152.741 18.853 153.075 23.0444C153.222 24.8812 153.547 24.8933 154.809 29.5701C156.022 34.073 156.62 36.3589 156.144 38.0095C155.533 40.1254 153.649 42.8967 150.776 43.2447C147.597 43.629 144.992 40.8334 143.954 38.7135C143.197 37.168 143.27 35.3515 143.453 31.7872C143.702 26.9283 144.316 26.4873 144.455 22.4942C144.601 18.3554 144.044 15.8026 144.731 15.6043C145.769 15.3009 147.756 20.969 149.579 20.6251V20.6291Z" stroke="#FBFAF5" stroke-width="2" stroke-linecap="round" stroke-linejoin="round"/>
<path d="M111.019 133.618C110.36 139.282 110.523 143.688 110.795 146.653C110.942 148.231 111.129 149.522 112.13 150.408C113.97 152.042 116.811 150.95 120.796 150.408C128.586 149.348 135.517 151.192 135.59 152.293C135.643 153.106 131.956 153.405 131.785 154.927C131.569 156.832 137.125 158.43 136.913 159.203C136.644 160.194 127.719 157.103 115.907 156.816C110.559 156.686 102.7 156.982 102.016 155.27C101.63 154.3 102.525 153.761 103.237 151.184C103.237 151.184 103.327 150.832 103.437 150.339C103.445 150.31 103.453 150.266 103.465 150.213C104.389 146.054 104.69 142.741 104.69 142.741C105.044 138.711 104.646 134.852 104.422 133.104" stroke="#FBFAF5" stroke-width="2" stroke-linecap="round" stroke-linejoin="round"/>
<path d="M54.7588 51.8337C44.0423 53.1607 35.5603 53.6745 29.7157 53.8971C29.7157 53.8971 21.0546 54.2288 5.93841 57.7971C3.20333 58.4444 1.64858 58.8814 0.956666 60.1922C-1.58305 64.9945 10.3544 76.2132 21.4046 85.3323" stroke="#FBFAF5" stroke-width="2" stroke-linecap="round" stroke-linejoin="round"/>
</g>
<defs>
<clipPath id="clip0_286_1665">
<rect width="178" height="160" fill="white" transform="matrix(-1 0 0 1 178 0)"/>
</clipPath>
</defs>
</svg>