<svg width="271" height="131" viewBox="0 0 271 131" fill="none" xmlns="http://www.w3.org/2000/svg">
<path d="M57.5385 40.4807C58.0828 38.9542 59.4818 35.7377 62.7681 33.3535C66.8582 30.3872 71.4418 30.4689 72.973 30.5046C73.5377 30.5148 73.9853 30.5506 74.2753 30.5761C79.2658 30.9998 80.0238 33.1135 90.5899 38.1781C95.7483 40.6492 98.3987 41.9 101.955 42.5637C103.206 42.7986 108.044 43.6257 114.627 42.4157C121.718 41.1189 123.046 38.8929 129.634 36.5699C137.346 33.8487 139.335 35.559 153.549 33.7619C160.92 32.8327 160.411 32.3681 171.588 30.428C174.361 29.9481 179.443 29.1006 202.62 26.3334C208.882 25.588 218.502 24.4546 231.027 22.6779C247.58 20.2937 251.019 19.3287 254.626 16.3931C263.284 9.35262 264.577 1.48509 266.576 1.771C268.372 2.03138 270.183 9.00035 268.677 16.1633C266.479 26.6295 258.157 33.0318 251.859 37.7391C245.347 42.6046 238.484 45.7598 224.764 52.065C218.151 55.1028 209.889 58.6205 202.62 67.1262C201.521 68.4076 200.687 69.5308 200.132 70.3069" stroke="#E6643A" stroke-width="2" stroke-linecap="round" stroke-linejoin="round"/>
<path d="M200.301 70.7561C198.775 69.199 196.297 66.83 192.965 64.3232C183.544 57.2471 176.147 55.7665 164.701 50.6099C160.356 48.6545 154.058 45.5453 146.702 40.8789" stroke="#E6643A" stroke-width="2" stroke-linecap="round" stroke-linejoin="round"/>
<path d="M204.68 105.387C205.81 106.04 207.473 106.811 209.594 107.158C214.219 107.914 217.892 106.147 219.245 105.407C220.008 102.854 218.736 100.94 216.956 99.2192C214.997 97.325 213.802 96.5439 211.614 94.175C209.818 92.2349 208.714 90.2233 208.017 88.6406" stroke="#E6643A" stroke-width="2" stroke-linecap="round" stroke-linejoin="round"/>
<path d="M170.164 97.1514C174.106 104.692 176.864 110.4 178.771 114.495C178.771 114.495 181.198 119.707 185.843 125.053C186.819 126.176 188.473 127.932 191.128 128.775C191.901 129.02 192.72 129.178 193.58 129.234C192.807 127.876 191.881 125.813 193.071 124.42C193.814 123.787 194.832 123.276 196.358 123.276C196.866 123.276 198.393 123.276 196.866 121.234C196.378 120.825 195.874 120.422 195.34 120.019C191.606 117.216 187.75 115.5 184.291 114.423C181.681 109.435 179.077 104.442 176.467 99.4539" stroke="#E6643A" stroke-width="2" stroke-linecap="round" stroke-linejoin="round"/>
<path d="M63.9233 51.2327C68.0948 53.6731 72.8208 53.719 77.4756 53.959C82.171 54.2041 86.8665 54.8269 91.4195 56.0318C99.9304 58.2884 105.587 62.4545 115.889 71.3125C127.645 81.4162 126.023 83.1419 135.658 90.213C145.313 97.2943 153.478 100.358 155.986 101.251C163.235 103.834 169.645 104.835 174.249 105.249" stroke="#E6643A" stroke-width="2" stroke-linecap="round" stroke-linejoin="round"/>
<path d="M146.702 40.8788C146.941 41.0371 147.302 41.2617 147.781 41.4557C151.993 43.1712 156.607 38.9387 160.26 37.3662C164.914 35.3598 166.059 36.4983 179.652 35.8805C183.544 35.7018 192.65 35.2628 202.753 33.6494C205.042 33.2818 213.095 31.9493 223.381 28.9371C230.315 26.9102 238.745 23.9797 248.044 19.6707" stroke="#E6643A" stroke-width="2" stroke-linecap="round" stroke-linejoin="round"/>
<path d="M200.133 70.3069C201.888 73.4621 204.793 77.7302 209.417 81.6972C211.477 83.4688 215.699 86.7363 221.83 89.0491C229.379 91.8979 235.066 91.4997 235.041 92.2349C235.015 92.9905 229.496 93.6389 224.414 93.3479C222.496 93.2356 219.118 93.0211 214.967 91.6427C209.33 89.7741 205.281 86.7669 202.793 84.5307" stroke="#E6643A" stroke-width="2" stroke-linecap="round" stroke-linejoin="round"/>
<path d="M235.036 92.2297C234.838 94.3281 234.263 95.8342 233.78 96.8196C232.666 99.0915 231.287 100.138 231.567 101.782C231.77 102.982 232.686 103.334 232.452 103.931C232.131 104.764 230.325 104.166 227.507 104.82C224.872 105.427 224.317 106.438 222.562 106.229C221.27 106.071 220.288 105.366 219.678 104.82" stroke="#E6643A" stroke-width="2" stroke-linecap="round" stroke-linejoin="round"/>
<path d="M199.09 89.9424C198.891 91.2443 198.749 93.2252 199.242 95.5278C199.787 98.055 200.84 99.75 202.137 101.797C203.007 103.171 204.777 105.917 207.855 108.756C209.346 110.129 211.024 111.421 213.268 114.035C214.321 115.266 215.359 116.624 214.947 117.629C214.672 118.298 214.122 118.365 212.963 119.314C211.019 120.907 211.157 122.01 210.297 122.224C208.028 122.786 204.442 115.771 203.928 114.77C201.577 110.175 202.569 109.864 200.392 106.428C199.014 104.258 197.752 103.007 196.765 100.215C196.2 98.6217 195.982 97.233 195.88 96.3089" stroke="#E6643A" stroke-width="2" stroke-linecap="round" stroke-linejoin="round"/>
<path d="M185.07 114.076C185.746 113.846 186.835 113.586 188.066 113.836C190.203 114.27 191.042 115.889 192.329 115.531C193.352 115.245 193.148 114.142 194.242 113.688C195.916 112.989 197.432 115.138 199.166 114.648C199.853 114.454 200.759 113.79 201.466 111.513" stroke="#E6643A" stroke-width="2" stroke-linecap="round" stroke-linejoin="round"/>
<path d="M70.5775 35.9828C70.547 35.3395 71.7628 34.5788 72.8718 34.6452C74.0928 34.7166 75.2526 35.7888 75.0949 36.427C74.9525 37.009 73.7214 37.1877 73.0245 37.1724C71.9918 37.1469 70.6131 36.6567 70.5826 35.9828H70.5775Z" stroke="#E6643A" stroke-width="2" stroke-linecap="round" stroke-linejoin="round"/>
<path d="M55.4737 42.15C57.473 40.8226 57.6001 40.986 59.228 39.7862C61.4715 38.132 62.6619 36.7637 63.0231 37.0292C63.4148 37.31 62.0311 38.8621 62.2397 41.1442C62.4279 43.2324 63.8472 44.7232 64.071 44.9529C65.6735 46.5969 67.2149 46.362 67.4337 47.4035C67.7135 48.7463 65.3937 50.2473 65.119 50.426C63.6997 51.345 62.3465 51.5543 59.7927 51.784C55.4991 52.172 55.3669 51.9423 52.7673 52.2231C49.2724 52.6009 48.4534 53.137 45.5639 53.0553C43.9512 53.0093 41.5603 52.9379 41.2856 52.0036C40.9651 50.8906 43.7986 49.1547 44.5159 48.7207C46.7288 47.3678 47.263 47.7967 49.4912 46.6632C51.9635 45.4022 51.6329 44.7027 55.4686 42.15H55.4737Z" stroke="#E6643A" stroke-width="2" stroke-linecap="round" stroke-linejoin="round"/>
<path d="M56.8931 43.1866C57.6359 42.6608 58.7652 42.3902 58.984 42.7322C59.1671 43.013 58.7449 43.7125 58.1954 44.0392C57.4375 44.4936 56.3488 44.2945 56.2521 43.9473C56.1809 43.687 56.6642 43.3449 56.888 43.1866H56.8931Z" stroke="#E6643A" stroke-width="2" stroke-linecap="round" stroke-linejoin="round"/>
<path d="M91.0072 56.0063C89.9948 56.282 88.3313 56.7517 86.3066 57.4206C76.7834 60.5706 70.2006 64.507 68.0793 65.7374C55.5037 73.0484 38.1768 79.4507 26.5933 83.6933C11.1842 89.3349 1.49313 91.5456 1.76275 92.9802C1.95606 93.9962 6.96186 93.7409 20.1173 93.1334C54.1811 91.5609 52.9602 91.7549 55.7428 91.4332C66.2377 90.2028 75.9033 88.2985 91.3684 85.2403C95.1278 84.5 99.1263 83.678 104.137 82.9837C105.791 82.7539 106.955 82.6263 109.876 82.2995C113.762 81.8656 118.941 81.2887 125.152 80.6045" stroke="#E6643A" stroke-width="2" stroke-linecap="round" stroke-linejoin="round"/>
</svg>
