<svg aria-hidden="true" style="position: absolute; width: 0; height: 0; overflow: hidden;" version="1.1" xmlns="http://www.w3.org/2000/svg" xmlns:xlink="http://www.w3.org/1999/xlink">
<defs>
<symbol id="icon-telegram_logo" viewBox="0 0 32 32">
<path d="M29.402 2.839l-28.351 10.989c-1.141 0.512-1.527 1.537-0.276 2.093l7.273 2.323 17.585-10.924c0.96-0.686 1.943-0.503 1.097 0.251l-15.104 13.746-0.474 5.817c0.439 0.898 1.244 0.902 1.757 0.456l4.179-3.974 7.157 5.387c1.662 0.989 2.567 0.351 2.924-1.462l4.694-22.342c0.487-2.232-0.344-3.215-2.462-2.36z"></path>
</symbol>
<symbol id="icon-linkedin_logo" viewBox="0 0 32 32">
<path d="M10.844 31.794c0-0.15 0-0.294 0-0.438 0-6.731 0-13.456 0-20.188 0-0.188-0.012-0.338 0.262-0.338 1.988 0.012 3.981 0.006 5.969 0.006 0.050 0 0.1 0.012 0.181 0.025 0 0.875 0 1.738 0 2.606 0.025 0.006 0.044 0.019 0.069 0.025 0.25-0.325 0.488-0.662 0.75-0.981 0.762-0.938 1.719-1.625 2.844-2.037 0.613-0.225 1.281-0.363 1.925-0.394 0.887-0.037 1.794-0.025 2.669 0.125 1.438 0.244 2.706 0.881 3.756 1.925 0.994 0.981 1.65 2.162 2.006 3.494 0.188 0.706 0.306 1.431 0.419 2.15 0.075 0.5 0.113 1.012 0.113 1.512 0.006 4.063 0.006 8.125 0.006 12.188 0 0.1-0.006 0.2-0.012 0.331-0.119 0-0.219 0-0.319 0-1.919 0-3.831-0.006-5.75 0.006-0.319 0-0.375-0.106-0.375-0.394 0.006-3.738 0.019-7.481-0.006-11.219-0.006-0.656-0.069-1.337-0.238-1.969-0.306-1.106-1.006-1.906-2.119-2.313-0.938-0.344-1.887-0.406-2.85-0.162-1.063 0.269-1.794 0.975-2.344 1.906-0.425 0.719-0.506 1.512-0.512 2.306-0.025 3.794-0.012 7.581-0.012 11.375 0 0.144 0 0.288 0 0.444-2.156 0.006-4.275 0.006-6.431 0.006z"></path>
<path d="M6.819 21.413c0 3.331-0.006 6.663 0.006 9.994 0 0.3-0.063 0.413-0.394 0.406-1.906-0.019-3.813-0.019-5.719 0-0.313 0-0.381-0.106-0.381-0.394 0.006-6.694 0.006-13.394 0-20.087 0-0.269 0.075-0.363 0.35-0.363 1.925 0.012 3.85 0.012 5.781 0 0.3 0 0.356 0.113 0.356 0.381 0 3.356 0 6.713 0 10.063z"></path>
<path d="M3.506 0.3c2.056-0.050 3.288 1.444 3.294 3.275 0.006 1.875-1.306 3.275-3.369 3.269-1.919 0-3.275-1.375-3.269-3.319 0.006-1.819 1.325-3.288 3.344-3.225z"></path>
</symbol>
<symbol id="icon-facebook_logo" viewBox="0 0 32 32">
<path d="M19.269 31.781c-0.156 0.006-0.256 0.019-0.356 0.019-2.137 0-4.269-0.006-6.406 0.006-0.3 0-0.381-0.081-0.381-0.381 0.006-4.975 0.006-9.956 0.006-14.931 0-0.131 0-0.262 0-0.431-1.162 0-2.294 0-3.444 0 0-1.775 0-3.519 0-5.313 0.119 0 0.231 0 0.338 0 0.938 0 1.875-0.006 2.813 0.006 0.238 0 0.3-0.069 0.3-0.3-0.012-1.394-0.012-2.794 0-4.188 0.006-0.975 0.162-1.925 0.613-2.806 0.644-1.244 1.662-2.050 2.95-2.55 1.050-0.412 2.156-0.563 3.269-0.581 1.813-0.025 3.625-0.013 5.438-0.019 0.169 0 0.306-0.006 0.306 0.231-0.006 1.719-0.006 3.438-0.006 5.156 0 0.019-0.006 0.037-0.031 0.119-0.106 0-0.225 0-0.344 0-1.125 0-2.25-0.006-3.375 0-0.65 0-1.175 0.263-1.506 0.831-0.1 0.169-0.163 0.388-0.163 0.588-0.019 1.063 0 2.125-0.012 3.188 0 0.25 0.075 0.319 0.319 0.319 1.563-0.012 3.125-0.006 4.688-0.006 0.125 0 0.244 0 0.456 0-0.219 1.787-0.431 3.537-0.65 5.306-1.625 0-3.206 0-4.819 0 0 5.256 0 10.481 0 15.738z"></path>
</symbol>
<symbol id="icon-instagram_logo" viewBox="0 0 32 32">
<path d="M16 0c-4.349 0-4.891 0.021-6.593 0.093-1.709 0.084-2.865 0.349-3.885 0.745-1.052 0.412-1.948 0.959-2.833 1.849-0.891 0.885-1.443 1.781-1.849 2.833-0.396 1.020-0.661 2.176-0.745 3.885-0.077 1.703-0.093 2.244-0.093 6.593s0.021 4.891 0.093 6.593c0.084 1.704 0.349 2.865 0.745 3.885 0.412 1.052 0.959 1.948 1.849 2.833 0.885 0.891 1.781 1.443 2.833 1.849 1.020 0.391 2.181 0.661 3.885 0.745 1.703 0.077 2.244 0.093 6.593 0.093s4.891-0.021 6.593-0.093c1.704-0.084 2.865-0.355 3.885-0.745 1.052-0.412 1.948-0.959 2.833-1.849 0.891-0.885 1.443-1.776 1.849-2.833 0.391-1.020 0.661-2.181 0.745-3.885 0.077-1.703 0.093-2.244 0.093-6.593s-0.021-4.891-0.093-6.593c-0.084-1.704-0.355-2.871-0.745-3.885-0.412-1.052-0.959-1.948-1.849-2.833-0.885-0.891-1.776-1.443-2.833-1.849-1.020-0.396-2.181-0.661-3.885-0.745-1.703-0.077-2.244-0.093-6.593-0.093zM16 2.88c4.271 0 4.781 0.021 6.469 0.093 1.557 0.073 2.405 0.333 2.968 0.553 0.751 0.291 1.276 0.635 1.844 1.197 0.557 0.557 0.901 1.088 1.192 1.839 0.22 0.563 0.48 1.411 0.553 2.968 0.072 1.688 0.093 2.199 0.093 6.469s-0.021 4.781-0.099 6.469c-0.084 1.557-0.344 2.405-0.563 2.968-0.303 0.751-0.641 1.276-1.199 1.844-0.563 0.557-1.099 0.901-1.844 1.192-0.556 0.22-1.416 0.48-2.979 0.553-1.697 0.072-2.197 0.093-6.479 0.093s-4.781-0.021-6.48-0.099c-1.557-0.084-2.416-0.344-2.979-0.563-0.76-0.303-1.281-0.641-1.839-1.199-0.563-0.563-0.921-1.099-1.197-1.844-0.224-0.556-0.48-1.416-0.563-2.979-0.057-1.677-0.084-2.197-0.084-6.459 0-4.26 0.027-4.781 0.084-6.479 0.083-1.563 0.339-2.421 0.563-2.979 0.276-0.761 0.635-1.281 1.197-1.844 0.557-0.557 1.079-0.917 1.839-1.199 0.563-0.219 1.401-0.479 2.964-0.557 1.697-0.061 2.197-0.083 6.473-0.083zM16 7.787c-4.541 0-8.213 3.677-8.213 8.213 0 4.541 3.677 8.213 8.213 8.213 4.541 0 8.213-3.677 8.213-8.213 0-4.541-3.677-8.213-8.213-8.213zM16 21.333c-2.948 0-5.333-2.385-5.333-5.333s2.385-5.333 5.333-5.333c2.948 0 5.333 2.385 5.333 5.333s-2.385 5.333-5.333 5.333zM26.464 7.459c0 1.063-0.865 1.921-1.923 1.921-1.063 0-1.921-0.859-1.921-1.921 0-1.057 0.864-1.917 1.921-1.917s1.923 0.86 1.923 1.917z"></path>
</symbol>
</defs>
</svg>
