<svg width="238" height="87" viewBox="0 0 238 87" fill="none" xmlns="http://www.w3.org/2000/svg">
<circle cx="25.9349" cy="60.7744" r="22.0896"  fill="#FBFAF5"/>
<path d="M35.5351 54.0229C34.8841 54.4699 34.1827 54.8349 33.4352 55.1491C34.1458 54.5561 34.6757 53.7904 34.8472 53.0004C34.1705 53.5513 33.4055 54.0315 32.5522 54.4408C31.7903 54.0512 30.7532 53.9669 29.6894 54.2766C27.6378 54.8739 26.1467 56.7238 26.3684 58.397C26.4013 58.6448 26.468 58.8507 26.5727 59.0454C23.4789 59.8174 20.5453 59.4164 18.4373 58.0994C18.195 58.6526 18.0707 59.2036 18.1446 59.7613C18.2841 60.8148 19.0532 61.5563 20.1529 61.8154C19.5409 61.9613 18.9546 62.0033 18.3939 61.9413L18.398 61.9723C18.5951 63.4595 20.051 64.3228 21.7977 64.1039C21.5019 64.2544 21.1641 64.3849 20.8222 64.4844C20.5942 64.5508 20.3242 64.5972 20.0921 64.6326C20.7461 65.6972 22.2329 66.1976 23.8666 65.722C22.6816 66.9036 21.1515 67.8639 19.4039 68.3726C19.0999 68.4611 18.796 68.5496 18.5259 68.596C20.3126 68.9769 22.3159 68.9086 24.4435 68.2892C31.3202 66.2873 34.4657 60.5447 33.9321 56.5169C33.9156 56.3929 33.8951 56.238 33.8787 56.1141C34.5472 55.5011 35.1233 54.7864 35.5351 54.0229Z" fill="#E6643A"/>
<circle cx="87.9678" cy="49.1494" r="22.0896"  fill="#FBFAF5"/>
<path d="M86.927 58.9297L85.8862 50.9193L82.6394 51.8809L82.2338 48.7591L85.4806 47.7975L85.1814 45.4953C84.8343 42.8236 86.6107 40.7867 89.4813 39.9365C90.8564 39.5293 92.0492 39.2643 92.3986 39.2002L92.7614 41.9924L90.7705 42.5828C89.2093 43.0451 88.987 43.7506 89.1045 44.6544L89.3635 46.6476L93.0868 45.5449L93.0077 48.8103L89.7691 49.7694L90.8099 57.7798L86.927 58.9297Z" fill="#E6643A"/>
<circle cx="150.001" cy="37.5254" r="22.0896" fill="#FBFAF5"/>
<path d="M149.007 29.9509C151.994 29.0727 152.349 28.9779 153.534 28.6754C154.245 28.474 154.961 28.375 155.654 28.3827C156.156 28.3946 156.625 28.5012 157.031 28.6958C157.436 28.8903 157.768 29.1685 158.007 29.5124C158.325 29.9897 158.531 30.5319 158.616 31.1154C158.797 32.0745 158.847 32.3633 159.17 34.8307C159.493 37.2981 159.52 37.5936 159.594 38.5841C159.662 39.1727 159.607 39.7915 159.433 40.4136C159.299 40.867 159.062 41.3128 158.735 41.7224C158.409 42.1321 158.002 42.4964 157.539 42.792C156.901 43.1911 156.212 43.5053 155.503 43.7211C154.33 44.1119 153.977 44.2256 150.99 45.104C148.002 45.9824 147.647 46.0771 146.462 46.3795C145.752 46.5809 145.035 46.6799 144.343 46.6722C143.84 46.6603 143.371 46.5537 142.966 46.3591C142.561 46.1645 142.228 45.8864 141.99 45.5425C141.672 45.0652 141.465 44.523 141.38 43.9395C141.199 42.9804 141.149 42.6916 140.826 40.2242C140.503 37.7568 140.476 37.4613 140.403 36.4708C140.335 35.8822 140.389 35.2634 140.563 34.6413C140.697 34.1879 140.935 33.7421 141.261 33.3325C141.587 32.9228 141.995 32.5585 142.457 32.2629C143.096 31.8638 143.784 31.5496 144.493 31.3338C145.667 30.9429 146.02 30.8292 149.007 29.9509ZM148.789 28.2857C145.752 29.1786 145.371 29.3016 144.184 29.6973C143.257 29.9856 142.357 30.4009 141.523 30.9257C140.807 31.3772 140.179 31.9398 139.682 32.5741C139.173 33.203 138.805 33.8912 138.605 34.5906C138.373 35.4048 138.297 36.2153 138.379 36.9878C138.454 37.9883 138.483 38.308 138.811 40.8163C139.139 43.3247 139.193 43.6369 139.377 44.6066C139.496 45.3682 139.771 46.0754 140.19 46.6981C140.552 47.2321 141.066 47.6611 141.695 47.9551C142.316 48.2612 143.039 48.4263 143.816 48.4389C144.721 48.4522 145.659 48.3273 146.589 48.0695C147.788 47.7627 148.171 47.6621 151.209 46.7688C154.247 45.8755 154.626 45.753 155.814 45.3572C156.74 45.069 157.64 44.6536 158.474 44.1289C159.186 43.6726 159.813 43.1109 160.316 42.4797C160.818 41.8486 161.184 41.1618 161.391 40.4634C161.623 39.6493 161.7 38.8387 161.618 38.0663C161.542 37.0657 161.514 36.746 161.185 34.2377C160.857 31.7293 160.803 31.4171 160.619 30.4474C160.501 29.6858 160.226 28.9786 159.806 28.3559C159.444 27.8219 158.931 27.3929 158.301 27.0989C157.681 26.7929 156.957 26.6278 156.18 26.6151C155.275 26.6019 154.338 26.7267 153.407 26.9845C152.209 27.291 151.825 27.3929 148.789 28.2857Z" fill="#E6643A"/>
<path d="M149.38 32.783C148.244 33.1171 147.169 33.722 146.293 34.5212C145.416 35.3205 144.777 36.2781 144.456 37.2731C144.134 38.2681 144.145 39.2557 144.488 40.1111C144.83 40.9665 145.488 41.6512 146.378 42.0786C147.268 42.5061 148.351 42.6571 149.489 42.5125C150.628 42.368 151.77 41.9344 152.773 41.2666C153.776 40.5987 154.594 39.7267 155.123 38.7606C155.652 37.7946 155.869 36.7781 155.746 35.8395C155.581 34.5809 154.818 33.5518 153.624 32.9786C152.43 32.4054 150.903 32.335 149.38 32.783ZM150.404 40.609C149.667 40.8259 148.922 40.8572 148.264 40.699C147.607 40.5409 147.066 40.2003 146.71 39.7204C146.354 39.2405 146.199 38.6429 146.265 38.003C146.331 37.3632 146.614 36.7099 147.079 36.1257C147.544 35.5416 148.17 35.0528 148.878 34.7213C149.586 34.3898 150.344 34.2303 151.056 34.2631C151.767 34.2959 152.401 34.5195 152.878 34.9056C153.354 35.2917 153.65 35.8229 153.73 36.4322C153.837 37.2491 153.547 38.1482 152.923 38.9315C152.299 39.7148 151.393 40.3182 150.404 40.609Z" fill="#E6643A"/>
<path d="M154.701 31.9786C155.442 31.7606 155.978 31.0873 155.898 30.4746C155.818 29.8619 155.152 29.5419 154.41 29.7598C153.669 29.9777 153.133 30.6511 153.214 31.2638C153.294 31.8765 153.96 32.1965 154.701 31.9786Z" fill="#E6643A"/>
<circle cx="212.032" cy="25.8999" r="22.0896"  fill="#FBFAF5"/>
<path fill-rule="evenodd" clip-rule="evenodd" d="M211.719 16.4211C205.797 18.1606 201.548 23.4905 202.188 28.3761C202.699 32.27 206.204 34.6736 210.587 34.6067C211.131 34.5232 211.276 34.2138 211.242 33.9566C211.213 33.7362 211.141 33.1852 211.045 32.4505C208.134 33.8778 207.284 32.3344 207.284 32.3344C206.66 31.4497 205.914 31.4018 205.914 31.4018C204.862 31.1385 205.931 30.8246 205.931 30.8246C207.009 30.5842 207.698 31.2591 207.698 31.2591C208.811 32.3436 210.317 31.4818 210.911 31.0783C210.923 30.4644 211.142 30.0186 211.425 29.7066C209.036 30.1793 206.442 30.1403 205.999 26.7608C205.874 25.8057 206.169 24.8798 206.804 24.0828C206.686 23.8886 206.17 23.1247 206.585 21.7057C206.585 21.7057 207.447 21.2237 209.644 21.7609C210.466 21.3287 211.386 20.9439 212.277 20.6823C213.167 20.4207 214.117 20.2563 214.987 20.1915C216.886 18.4511 217.805 18.41 217.805 18.41C218.543 19.4522 218.302 20.4384 218.202 20.7348C218.952 21.1631 219.498 21.8037 219.623 22.7588C220.066 26.1384 217.669 27.6054 215.294 28.5321C215.728 28.6715 216.112 29.131 216.218 29.9391C216.372 31.1146 216.497 32.0697 216.535 32.3636C216.564 32.584 216.781 32.8255 217.35 32.582C221.43 30.2008 224.069 25.9924 223.559 22.0985C222.919 17.2129 217.64 14.6817 211.719 16.4211Z" fill="#E6643A"/>
</svg>
