<svg xmlns="http://www.w3.org/2000/svg" width="272" height="215" viewBox="0 0 272 215" fill="none">
<path d="M119.088 74.0269C122.094 72.6614 126.002 70.8511 130.521 68.6488C131.126 68.3562 134.028 66.977 137.366 65.2392C143.724 61.9224 147.388 59.55 158.144 54.0844C175.068 45.4835 174.815 46.8755 181.587 42.412C192.47 35.245 194.001 31.0733 199.106 31.496C207.606 32.197 214.374 44.951 216.254 52.8729C216.823 55.2685 217.411 57.7579 217.109 61.0413C216.588 66.7029 213.969 68.6866 214.516 74.2152C214.757 76.6418 215.46 78.5286 215.977 79.7584C218.035 84.656 221.515 87.1167 224.809 96.4359C226.079 100.019 232.183 116.268 224.172 126.856C221.873 129.893 218.953 131.757 210.606 135.361C187.409 145.384 172.185 148.235 172.185 148.235C118.39 158.313 75.9306 166.267 64.9858 151.66C62.1931 147.931 61.1671 142.356 61.9201 137.878C62.9653 131.657 67.2954 128.425 74.6633 113.97C75.0567 113.192 75.2576 112.796 75.4295 112.43C77.1984 108.628 80.4633 99.7135 75.5302 91.9924C74.5023 90.3784 72.2858 87.5183 67.7134 84.9954" stroke="#1D1D1B" stroke-width="2" stroke-linecap="round" stroke-linejoin="round"/>
<path d="M71.109 81.9008C70.9291 83.6378 68.268 84.6234 65.5386 85.5967C62.8149 86.571 60.6615 86.9247 59.7737 87.0956C55.0131 88.0074 53.1338 90.0547 48.6776 92.5901C46.3814 93.8933 38.9529 98.1271 29.7243 98.8223C25.2021 99.164 16.4332 98.942 15.2227 96.0683C13.909 92.9546 21.9558 87.8676 29.4533 83.1234C36.4064 78.728 38.3124 78.6059 41.7925 75.6925C46.9055 71.411 49.7861 65.8149 51.2259 59.7164C51.0443 60.3622 50.7099 61.9807 51.645 63.7187C51.9711 64.3157 52.247 64.8332 52.8354 65.1812C54.7862 66.3341 58.2501 64.5136 60.4564 63.35C61.9945 62.5379 64.0895 61.2435 66.2054 59.219C65.8086 60.4692 65.2758 62.2428 64.7451 64.3938C63.2239 70.5529 62.4949 73.6684 64.101 75.4274C65.4868 76.9455 67.2022 76.5475 69.4946 78.989C70.3749 79.9278 71.2313 80.8371 71.1221 81.8931L71.109 81.9008Z" stroke="#1D1D1B" stroke-width="2" stroke-linecap="round" stroke-linejoin="round"/>
<path d="M53.2587 76.0564C52.0873 76.4323 50.4779 76.1154 50.2358 75.5085C49.9497 74.788 51.5432 73.5084 53.2223 73.3753C53.3951 73.3614 54.675 73.2615 55.0191 73.7915C55.4151 74.3911 54.5177 75.6511 53.2531 76.0554L53.2587 76.0564Z" stroke="#1D1D1B" stroke-width="2" stroke-linecap="round" stroke-linejoin="round"/>
<path d="M51.219 59.7203C52.5608 56.1378 54.8559 51.6673 58.8896 47.2857C62.3317 43.5459 65.8341 39.7316 72.2303 38.0203C79.0276 36.2008 85.0766 37.7647 88.3898 38.6215C89.7918 38.9812 96.8857 40.9004 103.782 46.5945C112.456 53.7518 115.147 62.1573 117.034 68.2605C118.321 72.4252 120.97 81.3208 119.051 92.1686C117.127 103.071 112.289 106.357 112.36 117.037C112.393 122.457 113.678 126.928 114.706 129.769" stroke="#1D1D1B" stroke-width="2" stroke-linecap="round" stroke-linejoin="round"/>
<path d="M172.676 117.382C185.712 104.326 194.797 97.366 201.059 93.3481C202.825 92.2202 207.137 89.543 210.391 84.5727C213.5 79.8224 214.299 75.0254 214.476 71.6842" stroke="#1D1D1B" stroke-width="2" stroke-linecap="round" stroke-linejoin="round"/>
<path d="M86.2873 52.553C84.5918 52.2909 83.4191 53.4508 82.9181 53.9482C82.4609 54.3982 81.5111 55.3321 81.818 56.1971C82.376 57.7812 87.0629 58.9273 88.6403 57.2828C89.3266 56.5726 89.3205 55.4404 88.9515 54.5943C88.5464 53.6562 87.5606 52.7486 86.2873 52.553Z" stroke="#1D1D1B" stroke-width="2" stroke-linecap="round" stroke-linejoin="round"/>
<path d="M51.9144 90.824C54.8214 90.8784 58.6776 90.6824 62.9875 89.699C65.9511 89.0196 68.4368 88.1278 70.424 87.2664" stroke="#1D1D1B" stroke-width="2" stroke-linecap="round" stroke-linejoin="round"/>
<path d="M51.5721 117.904C48.9985 121.288 39.901 134.148 45.0905 148.064C51.149 164.309 72.4418 170.652 83.7342 174.016C126.987 186.907 167.968 167.097 179.974 160.757" stroke="black" stroke-width="2" stroke-linecap="round" stroke-linejoin="round"/>
<path d="M94.9906 186.708C107.407 190.09 133.904 195.727 165.539 189.918C192.548 184.96 210.989 173.914 220.458 167.23C240.196 153.303 250.489 137.503 255.46 128.309" stroke="black" stroke-width="2" stroke-linecap="round" stroke-linejoin="round"/>
</svg>