<svg aria-hidden="true" style="position: absolute; width: 0; height: 0; overflow: hidden;" version="1.1" xmlns="http://www.w3.org/2000/svg" xmlns:xlink="http://www.w3.org/1999/xlink">
<defs>
<symbol id="icon-instagram_logo" viewBox="0 0 30 32">
<path d="M14.935 3.727c3.859 0 4.316 0.014 5.84 0.084 0.917 0.011 1.824 0.179 2.684 0.498 0.623 0.24 1.19 0.609 1.662 1.081s0.841 1.039 1.081 1.662c0.318 0.86 0.486 1.767 0.498 2.684 0.069 1.524 0.084 1.981 0.084 5.84s-0.014 4.316-0.084 5.84c-0.011 0.916-0.18 1.824-0.498 2.684-0.24 0.623-0.609 1.189-1.081 1.662s-1.039 0.841-1.662 1.081c-0.86 0.318-1.767 0.486-2.684 0.497-1.524 0.069-1.981 0.084-5.84 0.084s-4.316-0.015-5.84-0.084c-0.916-0.011-1.824-0.179-2.684-0.497-0.623-0.24-1.189-0.609-1.662-1.081s-0.841-1.038-1.081-1.662c-0.318-0.86-0.486-1.767-0.498-2.684-0.069-1.524-0.084-1.981-0.084-5.84s0.014-4.316 0.084-5.84c0.011-0.916 0.179-1.824 0.498-2.684 0.24-0.623 0.609-1.189 1.081-1.662s1.039-0.841 1.662-1.081c0.86-0.318 1.767-0.486 2.684-0.498 1.524-0.069 1.981-0.084 5.84-0.084zM14.935 1.123c-3.923 0-4.417 0.017-5.958 0.087-1.199 0.024-2.386 0.251-3.51 0.672-0.964 0.363-1.837 0.932-2.558 1.667-0.736 0.721-1.305 1.595-1.669 2.559-0.421 1.124-0.648 2.31-0.672 3.51-0.069 1.54-0.085 2.034-0.085 5.957s0.017 4.417 0.087 5.958c0.024 1.199 0.251 2.386 0.672 3.51 0.363 0.964 0.932 1.838 1.667 2.559 0.722 0.735 1.595 1.305 2.559 1.667 1.123 0.421 2.31 0.648 3.51 0.672 1.541 0.069 2.034 0.087 5.958 0.087s4.417-0.016 5.958-0.087c1.199-0.024 2.386-0.251 3.51-0.672 0.96-0.372 1.831-0.94 2.559-1.668s1.295-1.6 1.667-2.56c0.421-1.124 0.648-2.31 0.672-3.51 0.069-1.54 0.085-2.034 0.085-5.957s-0.017-4.417-0.087-5.958c-0.024-1.199-0.251-2.386-0.672-3.51-0.363-0.964-0.932-1.838-1.667-2.559-0.722-0.735-1.595-1.304-2.559-1.667-1.124-0.421-2.31-0.648-3.51-0.672-1.54-0.069-2.034-0.085-5.957-0.085z"></path>
</symbol>
<symbol id="icon-instagram" viewBox="0 0 30 32">
<path fill="#fbfaf5" style="fill: var(--color1, #fbfaf5)" d="M14.935 3.727c3.859 0 4.316 0.014 5.84 0.084 0.917 0.011 1.824 0.179 2.684 0.498 0.623 0.24 1.19 0.609 1.662 1.081s0.841 1.039 1.081 1.662c0.318 0.86 0.486 1.767 0.498 2.684 0.069 1.524 0.084 1.981 0.084 5.84s-0.014 4.316-0.084 5.84c-0.011 0.916-0.18 1.824-0.498 2.684-0.24 0.623-0.609 1.189-1.081 1.662s-1.039 0.841-1.662 1.081c-0.86 0.318-1.767 0.486-2.684 0.497-1.524 0.069-1.981 0.084-5.84 0.084s-4.316-0.015-5.84-0.084c-0.916-0.011-1.824-0.179-2.684-0.497-0.623-0.24-1.189-0.609-1.662-1.081s-0.841-1.038-1.081-1.662c-0.318-0.86-0.486-1.767-0.498-2.684-0.069-1.524-0.084-1.981-0.084-5.84s0.014-4.316 0.084-5.84c0.011-0.916 0.179-1.824 0.498-2.684 0.24-0.623 0.609-1.189 1.081-1.662s1.039-0.841 1.662-1.081c0.86-0.318 1.767-0.486 2.684-0.498 1.524-0.069 1.981-0.084 5.84-0.084zM14.935 1.123c-3.923 0-4.417 0.017-5.958 0.087-1.199 0.024-2.386 0.251-3.51 0.672-0.964 0.363-1.837 0.932-2.558 1.667-0.736 0.721-1.305 1.595-1.669 2.559-0.421 1.124-0.648 2.31-0.672 3.51-0.069 1.54-0.085 2.034-0.085 5.957s0.017 4.417 0.087 5.958c0.024 1.199 0.251 2.386 0.672 3.51 0.363 0.964 0.932 1.838 1.667 2.559 0.722 0.735 1.595 1.305 2.559 1.667 1.123 0.421 2.31 0.648 3.51 0.672 1.541 0.069 2.034 0.087 5.958 0.087s4.417-0.016 5.958-0.087c1.199-0.024 2.386-0.251 3.51-0.672 0.96-0.372 1.831-0.94 2.559-1.668s1.295-1.6 1.667-2.56c0.421-1.124 0.648-2.31 0.672-3.51 0.069-1.54 0.085-2.034 0.085-5.957s-0.017-4.417-0.087-5.958c-0.024-1.199-0.251-2.386-0.672-3.51-0.363-0.964-0.932-1.838-1.667-2.559-0.722-0.735-1.595-1.304-2.559-1.667-1.124-0.421-2.31-0.648-3.51-0.672-1.54-0.069-2.034-0.085-5.957-0.085z"></path>
<path fill="#fbfaf5" style="fill: var(--color1, #fbfaf5)" d="M14.938 8.156c-1.468 0-2.903 0.435-4.123 1.251s-2.172 1.974-2.733 3.331c-0.562 1.356-0.709 2.848-0.422 4.288s0.993 2.762 2.031 3.8c1.038 1.038 2.36 1.745 3.8 2.031s2.932 0.14 4.288-0.422c1.356-0.562 2.515-1.513 3.331-2.733s1.251-2.655 1.251-4.123c0-1.968-0.782-3.856-2.174-5.248s-3.279-2.174-5.248-2.174zM14.938 20.395c-0.953 0-1.884-0.283-2.676-0.812s-1.41-1.282-1.774-2.162c-0.365-0.88-0.46-1.849-0.274-2.783s0.645-1.793 1.318-2.466c0.674-0.674 1.532-1.133 2.466-1.318s1.903-0.091 2.783 0.274c0.88 0.365 1.633 0.982 2.162 1.774s0.812 1.724 0.812 2.676c0 1.278-0.508 2.503-1.411 3.406s-2.129 1.411-3.406 1.411z"></path>
<path fill="#fbfaf5" style="fill: var(--color1, #fbfaf5)" d="M22.651 9.595c0.958 0 1.734-0.776 1.734-1.734s-0.777-1.734-1.734-1.734c-0.958 0-1.734 0.776-1.734 1.734s0.776 1.734 1.734 1.734z"></path>
</symbol>
<symbol id="icon-facebook" viewBox="0 0 20 32">
<path fill="#fbfaf5" style="fill: var(--color1, #fbfaf5)" d="M6.668 31.024v-13.67h-4.6v-5.328h4.6v-3.929c0-4.559 2.785-7.042 6.852-7.042 1.948 0 3.623 0.145 4.111 0.21v4.765l-2.821 0.001c-2.212 0-2.64 1.051-2.64 2.594v3.401h5.276l-0.687 5.328h-4.589v13.67h-5.502z"></path>
</symbol>
</defs>
</svg>
