<svg xmlns="http://www.w3.org/2000/svg" width="170" height="102" viewBox="0 0 170 102" fill="none">
<path d="M119.751 54.678C120.684 55.381 121.522 56.4081 121.901 57.5186C122.957 60.615 119.67 62.7235 117.333 63.8629C117.058 63.9977 117.395 64.4403 117.598 64.4499C119.006 64.5334 120.751 64.9505 122.103 65.6215C123.206 66.1685 124.25 66.976 124.691 68.1728C125.343 69.9401 124.55 71.8819 123.704 73.4282C123.704 73.4282 123.705 73.4314 123.702 73.4354C123.584 73.5712 123.724 73.8799 123.907 73.9594C123.977 74.0064 124.046 74.0125 124.095 73.949C125.774 73.1006 127.407 72.1513 129 71.1542C131.632 69.5065 134.41 67.6644 136.37 65.2094C137.832 63.3763 138.289 61.3156 136.496 59.5263C134.206 57.243 130.555 56.3069 127.528 55.5558C124.986 54.9263 122.389 54.4371 119.788 54.1467C119.474 54.1111 119.603 54.5624 119.755 54.6804L119.751 54.678Z" stroke="#E6643A" stroke-width="1.5" stroke-linecap="round" stroke-linejoin="round"/>
<path d="M140.558 11.8167C141.49 12.5197 142.329 13.5468 142.708 14.6573C143.763 17.7537 140.477 19.8621 138.139 21.0016C137.865 21.1364 138.202 21.5789 138.405 21.5886C139.813 21.6721 141.558 22.0892 142.909 22.7602C144.012 23.3071 145.056 24.1147 145.498 25.3115C146.149 27.0788 145.357 29.0206 144.51 30.5668C144.51 30.5668 144.511 30.5701 144.509 30.5741C144.391 30.7099 144.531 31.0186 144.714 31.098C144.784 31.145 144.853 31.1512 144.901 31.0877C146.58 30.2392 148.213 29.29 149.807 28.2929C152.438 26.6452 155.217 24.8031 157.177 22.348C158.638 20.515 159.096 18.4543 157.302 16.665C155.013 14.3817 151.362 13.4456 148.335 12.6945C145.793 12.0649 143.196 11.5758 140.595 11.2854C140.281 11.2497 140.409 11.7011 140.562 11.8191L140.558 11.8167Z" stroke="#E6643A" stroke-width="1.5" stroke-linecap="round" stroke-linejoin="round"/>
<path d="M68.794 65.054C69.7265 65.757 70.5654 66.7841 70.9441 67.8946C71.9997 70.991 68.7128 73.0995 66.3755 74.2389C66.1014 74.3737 66.4383 74.8162 66.6408 74.8259C68.0493 74.9094 69.7939 75.3265 71.1456 75.9975C72.2485 76.5444 73.2925 77.352 73.734 78.5488C74.3856 80.3161 73.5929 82.2579 72.7467 83.8042C72.7467 83.8042 72.7475 83.8074 72.7451 83.8114C72.6272 83.9472 72.7671 84.2559 72.9502 84.3353C73.0199 84.3823 73.0893 84.3885 73.1375 84.325C74.8166 83.4765 76.4495 82.5273 78.0431 81.5302C80.6745 79.8825 83.4529 78.0404 85.4134 75.5853C86.8748 73.7523 87.3319 71.6916 85.5385 69.9023C83.2492 67.619 79.5982 66.6829 76.5711 65.9318C74.0294 65.3023 71.432 64.8131 68.8312 64.5227C68.5168 64.487 68.6457 64.9384 68.798 65.0564L68.794 65.054Z" stroke="#E6643A" stroke-width="1.5" stroke-linecap="round" stroke-linejoin="round"/>
<path d="M89.6045 22.1917C90.537 22.8947 91.376 23.9218 91.7547 25.0323C92.8103 28.1287 89.5234 30.2371 87.1861 31.3766C86.9119 31.5114 87.2488 31.9539 87.4514 31.9636C88.8598 32.0471 90.6045 32.4642 91.9561 33.1352C93.0591 33.6821 94.1031 34.4897 94.5445 35.6865C95.1961 37.4538 94.4035 39.3956 93.5572 40.9418C93.5572 40.9418 93.558 40.9451 93.5557 40.9491C93.4378 41.0849 93.5777 41.3936 93.7608 41.473C93.8304 41.52 93.8998 41.5262 93.948 41.4627C95.6271 40.6142 97.2601 39.665 98.8537 38.6679C101.485 37.0202 104.263 35.1781 106.224 32.723C107.685 30.89 108.142 28.8293 106.349 27.04C104.06 24.7567 100.409 23.8206 97.3816 23.0695C94.8399 22.4399 92.2426 21.9508 89.6417 21.6604C89.3274 21.6247 89.4563 22.0761 89.6085 22.1941L89.6045 22.1917Z" stroke="#E6643A" stroke-width="1.5" stroke-linecap="round" stroke-linejoin="round"/>
<path d="M13.751 73.8338C14.6835 74.5368 15.5225 75.5639 15.9012 76.6744C16.9568 79.7708 13.6699 81.8792 11.3326 83.0186C11.0584 83.1535 11.3953 83.596 11.5979 83.6057C13.0063 83.6892 14.751 84.1063 16.1026 84.7773C17.2055 85.3242 18.2496 86.1318 18.691 87.3286C19.3426 89.0958 18.5499 91.0377 17.7037 92.5839C17.7037 92.5839 17.7045 92.5871 17.7022 92.5912C17.5843 92.727 17.7242 93.0357 17.9072 93.1151C17.9769 93.1621 18.0463 93.1683 18.0945 93.1048C19.7736 92.2563 21.4066 91.3071 23.0002 90.31C25.6315 88.6623 28.4099 86.8202 30.3704 84.3651C31.8318 82.5321 32.2889 80.4714 30.4955 78.6821C28.2062 76.3988 24.5552 75.4627 21.5281 74.7116C18.9864 74.082 16.3891 73.5929 13.7882 73.3025C13.4739 73.2668 13.6028 73.7182 13.755 73.8362L13.751 73.8338Z" stroke="#E6643A" stroke-width="1.5" stroke-linecap="round" stroke-linejoin="round"/>
<path d="M34.5596 30.968C35.4921 31.6711 36.3311 32.6981 36.7098 33.8087C37.7654 36.9051 34.4785 39.0135 32.1412 40.1529C31.867 40.2878 32.2039 40.7303 32.4065 40.7399C33.8149 40.8235 35.5596 41.2406 36.9112 41.9115C38.0141 42.4585 39.0582 43.2661 39.4996 44.4629C40.1512 46.2301 39.3585 48.172 38.5123 49.7182C38.5123 49.7182 38.5131 49.7214 38.5108 49.7254C38.3928 49.8613 38.5328 50.17 38.7158 50.2494C38.7855 50.2964 38.8549 50.3025 38.9031 50.2391C40.5822 49.3906 42.2152 48.4414 43.8088 47.4442C46.4401 45.7966 49.2185 43.9545 51.179 41.4994C52.6404 39.6664 53.0975 37.6057 51.3041 35.8164C49.0148 33.5331 45.3638 32.5969 42.3367 31.8459C39.795 31.2163 37.1977 30.7272 34.5968 30.4367C34.2825 30.4011 34.4114 30.8524 34.5636 30.9704L34.5596 30.968Z" stroke="#E6643A" stroke-width="1.5" stroke-linecap="round" stroke-linejoin="round"/>
</svg>