<svg xmlns="http://www.w3.org/2000/svg" width="171" height="102" viewBox="0 0 171 102" fill="none">
<path d="M55.9814 30.0663C55.4547 29.0297 55.1506 27.7816 55.2919 26.7008C55.6859 23.6874 59.5167 23.6726 62.0858 23.9499C62.3876 23.9815 62.2785 23.4562 62.1025 23.3455C60.8859 22.5624 59.5138 21.3416 58.6005 20.1175C57.8551 19.1192 57.2742 17.9424 57.3968 16.7606C57.578 15.0158 59.1188 13.8658 60.537 13.0594C60.537 13.0594 60.5376 13.0564 60.5415 13.0544C60.7048 13.0057 60.7132 12.6876 60.5846 12.531C60.5429 12.458 60.4838 12.4178 60.4136 12.444C58.5551 12.2688 56.6943 12.1976 54.8478 12.1847C51.7984 12.1644 48.5345 12.2248 45.7342 13.1914C43.6454 13.9143 42.3519 15.3301 43.1767 17.6732C44.2298 20.6636 47.0738 23.269 49.4427 25.4092C51.4321 27.2053 53.5315 28.9174 55.7196 30.4723C55.9838 30.6607 56.0634 30.2341 55.9788 30.0623L55.9814 30.0663Z" stroke="#E6643A" stroke-width="1.5" stroke-linecap="round" stroke-linejoin="round"/>
<path d="M19.0273 53.767C18.5006 52.7304 18.1965 51.4823 18.3378 50.4015C18.7318 47.3881 22.5626 47.3733 25.1317 47.6506C25.4335 47.6821 25.3244 47.1569 25.1484 47.0461C23.9318 46.2631 22.5597 45.0423 21.6464 43.8182C20.901 42.8199 20.3201 41.6431 20.4427 40.4613C20.6239 38.7165 22.1647 37.5665 23.5829 36.7601C23.5829 36.7601 23.5835 36.7571 23.5874 36.7551C23.7507 36.7064 23.7591 36.3883 23.6305 36.2317C23.5888 36.1587 23.5297 36.1185 23.4595 36.1447C21.601 35.9695 19.7402 35.8983 17.8937 35.8854C14.8442 35.865 11.5804 35.9255 8.78007 36.8921C6.69133 37.615 5.39783 39.0308 6.22258 41.3739C7.27568 44.3643 10.1197 46.9697 12.4886 49.1099C14.478 50.906 16.5774 52.618 18.7655 54.173C19.0297 54.3613 19.1093 53.9348 19.0247 53.763L19.0273 53.767Z" stroke="#E6643A" stroke-width="1.5" stroke-linecap="round" stroke-linejoin="round"/>
<path d="M105.766 47.6813C105.239 46.6447 104.935 45.3966 105.076 44.3158C105.47 41.3024 109.301 41.2876 111.87 41.5649C112.172 41.5965 112.063 41.0712 111.887 40.9605C110.67 40.1774 109.298 38.9566 108.385 37.7325C107.639 36.7342 107.058 35.5574 107.181 34.3756C107.362 32.6308 108.903 31.4808 110.321 30.6744C110.321 30.6744 110.322 30.6714 110.326 30.6694C110.489 30.6207 110.497 30.3026 110.369 30.146C110.327 30.073 110.268 30.0328 110.198 30.059C108.339 29.8838 106.478 29.8126 104.632 29.7997C101.583 29.7794 98.3186 29.8398 95.5184 30.8064C93.4296 31.5293 92.1361 32.9451 92.9609 35.2882C94.014 38.2786 96.858 40.884 99.2269 43.0242C101.216 44.8203 103.316 46.5323 105.504 48.0873C105.768 48.2756 105.848 47.8491 105.763 47.6773L105.766 47.6813Z" stroke="#E6643A" stroke-width="1.5" stroke-linecap="round" stroke-linejoin="round"/>
<path d="M68.8085 71.3804C68.2818 70.3438 67.9778 69.0957 68.119 68.0149C68.513 65.0015 72.3438 64.9867 74.9129 65.264C75.2148 65.2956 75.1057 64.7703 74.9297 64.6596C73.713 63.8765 72.341 62.6557 71.4277 61.4316C70.6823 60.4333 70.1014 59.2565 70.224 58.0747C70.4052 56.3299 71.946 55.1799 73.3641 54.3735C73.3641 54.3735 73.3648 54.3705 73.3686 54.3685C73.532 54.3198 73.5404 54.0017 73.4118 53.8451C73.37 53.7721 73.311 53.7319 73.2408 53.7581C71.3823 53.5829 69.5214 53.5117 67.6749 53.4988C64.6255 53.4785 61.3616 53.5389 58.5613 54.5055C56.4726 55.2284 55.1791 56.6442 56.0038 58.9873C57.0569 61.9777 59.901 64.5831 62.2699 66.7233C64.2593 68.5194 66.3587 70.2314 68.5467 71.7864C68.8109 71.9747 68.8906 71.5482 68.806 71.3764L68.8085 71.3804Z" stroke="#E6643A" stroke-width="1.5" stroke-linecap="round" stroke-linejoin="round"/>
<path d="M158.497 68.6509C157.971 67.6143 157.667 66.3662 157.808 65.2854C158.202 62.272 162.033 62.2572 164.602 62.5345C164.904 62.5661 164.795 62.0408 164.619 61.9301C163.402 61.147 162.03 59.9262 161.117 58.7021C160.371 57.7038 159.79 56.527 159.913 55.3452C160.094 53.6004 161.635 52.4504 163.053 51.644C163.053 51.644 163.054 51.641 163.058 51.639C163.221 51.5903 163.229 51.2722 163.101 51.1156C163.059 51.0426 163 51.0024 162.93 51.0286C161.071 50.8534 159.21 50.7822 157.364 50.7693C154.314 50.749 151.051 50.8094 148.25 51.776C146.162 52.4989 144.868 53.9147 145.693 56.2578C146.746 59.2482 149.59 61.8536 151.959 63.9938C153.948 65.7899 156.048 67.5019 158.236 69.0569C158.5 69.2453 158.58 68.8187 158.495 68.6469L158.497 68.6509Z" stroke="#E6643A" stroke-width="1.5" stroke-linecap="round" stroke-linejoin="round"/>
<path d="M121.54 92.3536C121.013 91.3171 120.709 90.069 120.85 88.9882C121.244 85.9748 125.075 85.96 127.644 86.2372C127.946 86.2688 127.837 85.7435 127.661 85.6328C126.444 84.8498 125.072 83.6289 124.159 82.4049C123.414 81.4065 122.833 80.2297 122.955 79.048C123.137 77.3031 124.677 76.1531 126.096 75.3467C126.096 75.3467 126.096 75.3438 126.1 75.3418C126.263 75.2931 126.272 74.975 126.143 74.8184C126.101 74.7454 126.042 74.7052 125.972 74.7314C124.114 74.5561 122.253 74.4849 120.406 74.472C117.357 74.4517 114.093 74.5121 111.293 75.4788C109.204 76.2017 107.911 77.6174 108.735 79.9606C109.788 82.951 112.632 85.5564 115.001 87.6966C116.991 89.4926 119.09 91.2047 121.278 92.7596C121.542 92.948 121.622 92.5215 121.537 92.3497L121.54 92.3536Z" stroke="#E6643A" stroke-width="1.5" stroke-linecap="round" stroke-linejoin="round"/>
</svg>