<svg xmlns="http://www.w3.org/2000/svg" width="834" height="86" viewBox="0 0 834 86" fill="none">
<path d="M-277 0V86L-269.26 73.4615L-264.994 69.6923L-258.936 66.5385L-243.236 64L-232.997 62.9231C-232.997 62.9231 -229.158 62.7692 -220.796 61.6154C-212.52 60.4615 -213.032 60.7692 -205.097 58.7692C-197.162 56.7692 -189.312 55.0769 -189.312 55.0769L-186.326 54.3077L-171.223 57.9231L-157.572 61.1538C-157.572 61.1538 -138.203 60.1538 -136.753 60.1538C-135.302 60.1538 -119.432 60.6923 -119.432 60.6923L-102.794 62.6154L-95.115 62.8462L-89.569 71.6923L-86.2414 72.0769C-86.2414 72.0769 -78.1357 73.1538 -75.7466 73C-73.3576 72.7692 -71.8217 72.5385 -71.8217 72.5385C-71.8217 72.5385 -67.8969 72.0769 -64.484 71.0769C-60.9857 70.0769 -62.4362 70 -57.9994 69.0769C-53.5626 68.0769 -50.1497 67.9231 -49.1258 66.8461C-48.0166 65.7692 -43.9211 67.6154 -43.9211 67.6154L-26.9418 66.7692L-17.1296 65.0769L-10.2184 63.6923L-5.61093 65.4615L-1.43011 67.3077L4.71317 68.9231L18.2796 68.2308L27.3239 72.5385L49.5932 73.1538C49.5932 73.1538 52.9208 73.2308 55.3951 73.0769C57.7842 72.8462 61.5384 74.6923 62.9036 75.3077C64.2688 75.9231 70.2414 75.0769 70.2414 75.0769L75.5314 75.5385L82.6986 75.7692L91.0603 72.1538C91.0603 72.1538 109.063 70.5385 113.5 69.8462C117.937 69.1538 119.302 70 119.302 70L141.23 72.1538L150.531 75.2308L162.305 70L164.694 69.7692L175.104 71.7692L191.059 71.4615L199.762 71.1538L208.038 70L212.987 73.2308L214.182 71L220.496 70.6154L223.397 68.9231H233.55L235.939 69.3077L235.598 72.3846L244.983 74.6923L260.939 69.0769L271.092 68.5385L282.355 69.7692L286.621 71L298.14 73.0769L310.341 67.0769L323.566 74.9231L327.32 75.6154L332.781 75.7692L346.347 73.6923L353.941 71.6923L363.924 72L370.664 72.5385L377.405 72.2308L388.156 70.9231L395.152 75.3077L400.784 75.4615L412.388 75.8461L417.166 76L426.722 76.6154L431.585 76.4615L440.118 73.3077L448.906 72.2308L457.097 72.5385L460.339 74L467.506 74.2308L477.148 74.5385L487.813 73.3077L494.212 72.1538L500.27 71.5385L503.513 70L506.499 68.6923L510.083 66.8461L515.543 64.7692L519.809 64.0769L528.598 64.9231L531.413 65.6154L543.444 65.7692L555.133 64.4615C555.133 64.4615 562.983 62.7692 566.055 61.1538C569.126 59.5385 572.625 57.7692 572.625 57.7692L573.734 56.1538L584.143 58.1538L593.785 65.1538L601.037 64.5385L605.901 64.1538L609.228 64.5385L617.249 66.2308L621.173 65.7692L626.634 64.5385L632.948 63.6154L637.811 63.4615L652.231 63.9231L660.763 65.3077L665.456 66.8461C665.456 66.8461 670.32 66.4615 680.302 62.8462C690.285 59.2308 691.394 62.9231 691.394 62.9231L716.906 71.3077L722.537 72.0769L726.974 71.3846L735.336 69.6923L739.602 70.3846L743.868 71.3846L747.793 70.6923L749.841 69.0769L753.68 69.2308H759.994C759.994 69.2308 780.984 72.0769 782.946 71.5385C784.909 71.0769 788.833 70.0769 788.833 70.0769L796.171 69.2308L802.315 65.5385L806.751 64.8462L812.042 65L817.417 64.6154C817.417 64.6154 828.082 64.1538 831.495 64C834.908 63.8461 841.563 64.3077 841.563 64.3077L848.986 67.6154L855.3 71.7692H866.819L870.147 72C870.147 72 876.119 69.6923 877.484 70.3077C878.849 70.9231 881.239 71 881.239 71L889.771 72.6923L896 73.1538L901.631 74.4615C901.631 74.4615 906.409 67.9231 909.395 67.1538L910.163 64.6923L915.112 63.7692L919.89 63.9231L927.654 63.3077C927.654 63.3077 931.067 62.6154 932.603 62.3846C934.054 62.1538 932.774 61 932.859 60.1538C932.859 59.3077 934.395 59.0769 937.125 56.3846L942.245 58.5385L941.477 61.8462L945.146 63.3846L950.265 65.2308L953.507 66.4615L960.163 67.5385L969.121 69.7692L973.473 69.9231H975.862L986.016 70.0769L990.026 68.2308L999.497 70.2308L1011.02 63.9231L1015.88 63.2308L1019.21 59.1538L1024.5 59.3077L1035.08 59.6923L1038.83 60.9231L1052.74 61.9231L1055.64 61.7692L1058.63 60.4615L1066.82 60.7692L1072.02 62.0769L1080.47 64.3077L1090.37 66.6154L1095.83 64.8462L1102.06 65.0769L1118.18 67.5385L1121.34 70.1538L1130.47 70.4615L1133.45 69.1538L1141.56 69.6923L1139.85 72.4615L1146.76 70.7692L1164.77 69.1538V0H-277Z" fill="#E6643A"/>
</svg>