<svg xmlns="http://www.w3.org/2000/svg" width="1440" height="86" viewBox="0 0 1440 86" fill="none">
<path d="M0.000244141 0V86L7.74056 73.4615L12.0067 69.6923L18.0647 66.5385L33.7641 64L44.0029 62.9231C44.0029 62.9231 47.8425 62.7692 56.2041 61.6154C64.4805 60.4615 63.9686 60.7692 71.9036 58.7692C79.8387 56.7692 87.6884 55.0769 87.6884 55.0769L90.6747 54.3077L105.777 57.9231L119.429 61.1538C119.429 61.1538 138.797 60.1538 140.248 60.1538C141.698 60.1538 157.568 60.6923 157.568 60.6923L174.206 62.6154L181.885 62.8462L187.431 71.6923L190.759 72.0769C190.759 72.0769 198.865 73.1538 201.254 73C203.643 72.7692 205.178 72.5385 205.178 72.5385C205.178 72.5385 209.103 72.0769 212.516 71.0769C216.015 70.0769 214.564 70 219.001 69.0769C223.438 68.0769 226.851 67.9231 227.874 66.8461C228.984 65.7692 233.079 67.6154 233.079 67.6154L250.058 66.7692L259.871 65.0769L266.782 63.6923L271.389 65.4615L275.57 67.3077L281.713 68.9231L295.28 68.2308L304.324 72.5385L326.593 73.1538C326.593 73.1538 329.921 73.2308 332.395 73.0769C334.784 72.8462 338.539 74.6923 339.904 75.3077C341.269 75.9231 347.242 75.0769 347.242 75.0769L352.532 75.5385L359.699 75.7692L368.061 72.1538C368.061 72.1538 386.064 70.5385 390.501 69.8462C394.937 69.1538 396.302 70 396.302 70L418.231 72.1538L427.531 75.2308L439.305 70L441.694 69.7692L452.104 71.7692L468.059 71.4615L476.762 71.1538L485.039 70L489.987 73.2308L491.182 71L497.496 70.6154L500.397 68.9231H510.55L512.939 69.3077L512.598 72.3846L521.984 74.6923L537.939 69.0769L548.092 68.5385L559.355 69.7692L563.621 71L575.14 73.0769L587.341 67.0769L600.566 74.9231L604.32 75.6154L609.781 75.7692L623.348 73.6923L630.941 71.6923L640.924 72L647.665 72.5385L654.405 72.2308L665.156 70.9231L672.152 75.3077L677.784 75.4615L689.388 75.8461L694.166 76L703.722 76.6154L708.586 76.4615L717.118 73.3077L725.906 72.2308L734.097 72.5385L737.339 74L744.507 74.2308L754.148 74.5385L764.813 73.3077L771.213 72.1538L777.271 71.5385L780.513 70L783.499 68.6923L787.083 66.8461L792.544 64.7692L796.81 64.0769L805.598 64.9231L808.414 65.6154L820.444 65.7692L832.133 64.4615C832.133 64.4615 839.983 62.7692 843.055 61.1538C846.127 59.5385 849.625 57.7692 849.625 57.7692L850.734 56.1538L861.143 58.1538L870.785 65.1538L878.037 64.5385L882.901 64.1538L886.228 64.5385L894.249 66.2308L898.174 65.7692L903.634 64.5385L909.948 63.6154L914.812 63.4615L929.231 63.9231L937.764 65.3077L942.456 66.8461C942.456 66.8461 947.32 66.4615 957.303 62.8462C967.285 59.2308 968.395 62.9231 968.395 62.9231L993.906 71.3077L999.538 72.0769L1003.97 71.3846L1012.34 69.6923L1016.6 70.3846L1020.87 71.3846L1024.79 70.6923L1026.84 69.0769L1030.68 69.2308H1036.99C1036.99 69.2308 1057.98 72.0769 1059.95 71.5385C1061.91 71.0769 1065.83 70.0769 1065.83 70.0769L1073.17 69.2308L1079.31 65.5385L1083.75 64.8462L1089.04 65L1094.42 64.6154C1094.42 64.6154 1105.08 64.1538 1108.5 64C1111.91 63.8461 1118.56 64.3077 1118.56 64.3077L1125.99 67.6154L1132.3 71.7692H1143.82L1147.15 72C1147.15 72 1153.12 69.6923 1154.48 70.3077C1155.85 70.9231 1158.24 71 1158.24 71L1166.77 72.6923L1173 73.1538L1178.63 74.4615C1178.63 74.4615 1183.41 67.9231 1186.4 67.1538L1187.16 64.6923L1192.11 63.7692L1196.89 63.9231L1204.65 63.3077C1204.65 63.3077 1208.07 62.6154 1209.6 62.3846C1211.05 62.1538 1209.77 61 1209.86 60.1538C1209.86 59.3077 1211.4 59.0769 1214.13 56.3846L1219.24 58.5385L1218.48 61.8462L1222.15 63.3846L1227.27 65.2308L1230.51 66.4615L1237.16 67.5385L1246.12 69.7692L1250.47 69.9231H1252.86L1263.02 70.0769L1267.03 68.2308L1276.5 70.2308L1288.02 63.9231L1292.88 63.2308L1296.21 59.1538L1301.5 59.3077L1312.08 59.6923L1315.83 60.9231L1329.74 61.9231L1332.64 61.7692L1335.63 60.4615L1343.82 60.7692L1349.02 62.0769L1357.47 64.3077L1367.37 66.6154L1372.83 64.8462L1379.06 65.0769L1395.18 67.5385L1398.34 70.1538L1407.47 70.4615L1410.45 69.1538L1418.56 69.6923L1416.85 72.4615L1423.76 70.7692L1441.77 69.1538V0H0.000244141Z" fill="#E6643A"/>
</svg>