<svg xmlns="http://www.w3.org/2000/svg" width="170" height="104" viewBox="0 0 170 104" fill="none">
<path d="M119.923 55.0702C120.863 55.7623 121.714 56.7795 122.106 57.8856C123.197 60.9695 119.935 63.1161 117.612 64.2827C117.339 64.4207 117.681 64.8593 117.884 64.8666C119.293 64.9337 121.042 65.3304 122.402 65.9856C123.511 66.5196 124.564 67.3149 125.02 68.5065C125.692 70.2661 124.922 72.217 124.094 73.773C124.094 73.773 124.095 73.7762 124.092 73.7803C123.976 73.9175 124.12 74.2245 124.303 74.3018C124.374 74.348 124.443 74.3533 124.491 74.2893C126.16 73.4213 127.781 72.4531 129.363 71.4374C131.975 69.7592 134.732 67.8848 136.664 65.407C138.104 63.5571 138.537 61.4912 136.723 59.7229C134.407 57.4665 130.745 56.573 127.709 55.8573C125.161 55.2574 122.558 54.7986 119.954 54.5385C119.639 54.5066 119.773 54.9564 119.927 55.0726L119.923 55.0702Z" stroke="#E6643A" stroke-width="1.5" stroke-linecap="round" stroke-linejoin="round"/>
<path d="M140.228 11.9687C141.168 12.6608 142.019 13.678 142.411 14.784C143.503 17.8679 140.241 20.0145 137.917 21.1811C137.644 21.3192 137.986 21.7577 138.189 21.765C139.598 21.8321 141.348 22.2288 142.707 22.884C143.816 23.418 144.87 24.2134 145.325 25.405C145.997 27.1645 145.227 29.1154 144.399 30.6715C144.399 30.6715 144.4 30.6747 144.397 30.6787C144.281 30.8159 144.425 31.123 144.609 31.2002C144.679 31.2464 144.748 31.2518 144.796 31.1877C146.465 30.3197 148.087 29.3515 149.669 28.3359C152.281 26.6576 155.037 24.7832 156.969 22.3055C158.409 20.4555 158.842 18.3896 157.028 16.6214C154.712 14.3649 151.05 13.4714 148.015 12.7557C145.466 12.1559 142.863 11.6971 140.259 11.437C139.944 11.405 140.078 11.8548 140.232 11.971L140.228 11.9687Z" stroke="#E6643A" stroke-width="1.5" stroke-linecap="round" stroke-linejoin="round"/>
<path d="M69.0901 66.0397C70.0308 66.7318 70.8816 67.749 71.2733 68.8551C72.3649 71.939 69.1028 74.0856 66.779 75.2522C66.5064 75.3902 66.8485 75.8288 67.0511 75.8361C68.4604 75.9031 70.2098 76.2999 71.5692 76.955C72.6785 77.4891 73.7318 78.2844 74.1872 79.476C74.8593 81.2355 74.0894 83.1865 73.2613 84.7425C73.2613 84.7425 73.2621 84.7457 73.2598 84.7497C73.1435 84.887 73.287 85.194 73.471 85.2713C73.5412 85.3175 73.6107 85.3228 73.6581 85.2588C75.3272 84.3908 76.949 83.4226 78.5308 82.4069C81.1428 80.7287 83.8995 78.8543 85.8312 76.3765C87.2712 74.5266 87.7042 72.4607 85.89 70.6924C83.5743 68.436 79.9126 67.5425 76.8769 66.8268C74.3281 66.2269 71.7252 65.7681 69.1211 65.508C68.8064 65.476 68.9405 65.9259 69.0941 66.0421L69.0901 66.0397Z" stroke="#E6643A" stroke-width="1.5" stroke-linecap="round" stroke-linejoin="round"/>
<path d="M89.3992 22.9377C90.3399 23.6298 91.1907 24.647 91.5823 25.753C92.674 28.8369 89.4119 30.9835 87.0881 32.1501C86.8155 32.2882 87.1575 32.7267 87.3602 32.734C88.7695 32.8011 90.5189 33.1978 91.8783 33.853C92.9875 34.387 94.0409 35.1824 94.4963 36.374C95.1684 38.1335 94.3985 40.0844 93.5703 41.6405C93.5703 41.6405 93.5712 41.6437 93.5689 41.6477C93.4526 41.7849 93.5961 42.092 93.7801 42.1692C93.8503 42.2154 93.9197 42.2207 93.9672 42.1567C95.6363 41.2887 97.2581 40.3205 98.8399 39.3048C101.452 37.6266 104.209 35.7522 106.14 33.2745C107.58 31.4245 108.013 29.3586 106.199 27.5904C103.883 25.3339 100.222 24.4404 97.186 23.7247C94.6372 23.1249 92.0343 22.666 89.4302 22.406C89.1155 22.374 89.2496 22.8238 89.4032 22.94L89.3992 22.9377Z" stroke="#E6643A" stroke-width="1.5" stroke-linecap="round" stroke-linejoin="round"/>
<path d="M14.1531 75.4606C15.0938 76.1527 15.9446 77.1699 16.3362 78.276C17.4279 81.3599 14.1658 83.5065 11.842 84.6731C11.5694 84.8111 11.9114 85.2497 12.1141 85.257C13.5234 85.324 15.2728 85.7208 16.6322 86.3759C17.7414 86.91 18.7948 87.7053 19.2502 88.8969C19.9223 90.6564 19.1524 92.6074 18.3242 94.1634C18.3242 94.1634 18.3251 94.1666 18.3228 94.1706C18.2065 94.3079 18.35 94.6149 18.534 94.6922C18.6042 94.7384 18.6736 94.7437 18.7211 94.6797C20.3902 93.8117 22.012 92.8435 23.5938 91.8278C26.2058 90.1496 28.9625 88.2752 30.8942 85.7974C32.3342 83.9475 32.7671 81.8816 30.953 80.1133C28.6373 77.8569 24.9756 76.9634 21.9399 76.2477C19.3911 75.6478 16.7882 75.189 14.1841 74.9289C13.8694 74.8969 14.0035 75.3468 14.1571 75.463L14.1531 75.4606Z" stroke="#E6643A" stroke-width="1.5" stroke-linecap="round" stroke-linejoin="round"/>
<path d="M34.4602 32.3551C35.4009 33.0473 36.2518 34.0645 36.6434 35.1705C37.7351 38.2544 34.473 40.401 32.1491 41.5676C31.8765 41.7056 32.2186 42.1442 32.4212 42.1515C33.8306 42.2186 35.58 42.6153 36.9393 43.2705C38.0486 43.8045 39.1019 44.5999 39.5573 45.7914C40.2295 47.551 39.4595 49.5019 38.6314 51.0579C38.6314 51.0579 38.6322 51.0611 38.6299 51.0652C38.5136 51.2024 38.6571 51.5094 38.8411 51.5867C38.9113 51.6329 38.9808 51.6382 39.0282 51.5742C40.6973 50.7062 42.3191 49.738 43.9009 48.7223C46.5129 47.0441 49.2697 45.1697 51.2013 42.692C52.6413 40.842 53.0743 38.7761 51.2601 37.0078C48.9444 34.7514 45.2827 33.8579 42.247 33.1422C39.6982 32.5423 37.0953 32.0835 34.4913 31.8234C34.1765 31.7915 34.3107 32.2413 34.4643 32.3575L34.4602 32.3551Z" stroke="#E6643A" stroke-width="1.5" stroke-linecap="round" stroke-linejoin="round"/>
</svg>