<svg xmlns="http://www.w3.org/2000/svg" width="138" height="119" viewBox="0 0 138 119" fill="none">
<g clip-path="url(#clip0_322_3371)">
<path d="M121.607 59.6276C121.094 58.8209 120.204 57.6379 118.787 56.5682C118.171 56.1025 116.451 54.8336 114.156 54.4672C109.959 53.7957 106.514 56.4926 105.907 56.9671C105.391 57.3699 105.688 57.2094 102.076 60.6025C100.808 61.7926 100.176 62.3935 99.788 62.7242C97.5272 64.6496 96.3174 65.6814 94.3777 66.4697C93.3691 66.8796 89.2158 68.5671 85.1876 66.8234C81.5939 65.2655 80.0508 61.82 79.1981 59.9219C77.5509 56.2467 76.2713 49.7827 75.9584 47.2912C75.9155 46.942 75.8015 45.9628 75.1397 44.9977C74.4351 43.9725 73.475 43.4894 73.076 43.2959C65.5558 39.6362 61.7966 37.8049 61.638 37.7599C49.8904 34.4291 30.2496 18.9723 29.1017 20.5222C28.8444 20.8718 29.8418 21.6435 31.6209 25.2632C32.3925 26.8302 33.1136 28.5317 33.4959 29.6855C34.8267 33.7008 33.4565 35.3134 33.8895 39.0201C34.4817 44.0893 37.8308 47.8087 41.0461 51.3788C44.3691 55.0692 45.1311 54.4355 46.7615 57.0414C47.6086 58.3943 48.6846 60.6152 49.3054 69.9331C49.8774 78.5173 49.2966 81.6411 51.0935 82.5301C52.5766 83.264 54.1471 81.7171 57.9578 80.133C62.2832 78.3343 66.2736 77.8265 69.1975 77.7139" stroke="black" stroke-linecap="round" stroke-linejoin="round"/>
<path d="M33.9132 32.8688C30.8279 32.2893 26.3202 31.3732 20.9266 30.0074C9.79553 27.1891 1.4371 24.1202 0.591252 25.7362C0.341427 26.2127 0.9756 26.6572 2.29094 29.3902C3.50241 31.9059 3.99258 33.6644 4.31814 34.566C5.73274 38.4866 9.68427 41.9725 13.753 45.5073C18.2547 49.4161 21.777 52.5222 27.5337 55.0558C31.9281 56.9902 35.8523 57.8243 38.5459 58.2211" stroke="black" stroke-linecap="round" stroke-linejoin="round"/>
<path d="M41.0467 51.3812C39.0137 52.197 36.7074 53.4153 36.7113 54.8978C36.7128 55.5156 37.0791 55.857 37.8004 56.8217C39.2193 58.7216 38.816 59.3498 40.1429 61.8826C41.2479 63.9959 41.5785 63.6528 43.4211 66.5987C43.8673 67.3111 44.9201 68.9857 45.666 70.7683C47.187 74.399 47.1137 77.6906 46.9438 82.9313C46.8977 84.3775 46.7833 86.3825 46.4892 88.7746" stroke="black" stroke-linecap="round" stroke-linejoin="round"/>
<path d="M53.563 82.3C52.1057 83.5655 50.0116 85.4353 47.5637 87.7941C43.9384 91.2889 42.1194 93.0303 40.3521 95.4379C37.8559 98.8405 38.3452 99.2692 35.684 102.816C32.6271 106.888 30.9166 107.912 31.2227 108.538C31.7505 109.618 37.6421 108.086 41.8499 106.387C42.5099 106.121 44.5357 105.19 48.5607 103.345C50.4423 102.483 51.9862 101.77 53.0111 101.297" stroke="black" stroke-linecap="round" stroke-linejoin="round"/>
<path d="M50.8784 102.297C48.4101 104.319 46.9939 106.283 46.1596 107.699C45.0872 109.519 44.4346 111.341 42.3399 112.828C41.2055 113.633 39.951 114.123 39.7814 113.9C39.5584 113.602 41.3022 112.134 41.0333 111.749C40.7615 111.363 38.8222 112.625 38.4647 112.198C38.1009 111.765 39.4287 109.667 41.3273 108.319C42.0933 107.773 42.3894 107.754 43.2486 107.099C44.3338 106.272 45.0647 105.39 45.5249 104.75" stroke="black" stroke-linecap="round" stroke-linejoin="round"/>
<path d="M57.4166 97.7159C57.6983 98.4365 58.0418 99.4677 58.2717 100.743C58.5423 102.243 58.7228 103.254 58.4323 104.326C58.0851 105.607 57.073 106.416 55.0468 108.036C53.1538 109.548 51.597 110.398 50.2289 111.132C48.4363 112.097 46.3414 113.052 46.1435 112.743C45.969 112.474 47.3592 111.416 47.1271 111.041C46.9149 110.701 45.6004 111.315 45.4628 111.068C45.2525 110.69 48.0586 108.774 48.4087 108.533C49.5125 107.781 51.0197 106.816 52.8946 105.785C53.0273 105.709 55.6476 104.186 55.6698 101.429C55.6813 100.065 55.0497 99.056 54.7427 98.6326" stroke="black" stroke-linecap="round" stroke-linejoin="round"/>
<path d="M55.5469 100.697C54.7014 100.896 53.8558 101.095 53.0103 101.295" stroke="black" stroke-linecap="round" stroke-linejoin="round"/>
<path d="M58.6382 100.301C59.8185 100.054 61.3418 99.6722 63.0665 99.0612C63.726 98.8278 65.5475 98.1588 67.9623 96.8801C70.2879 95.6478 71.8323 94.5564 74.3584 92.7568C77.5275 90.4974 79.1108 89.368 80.6996 88.0445C82.0043 86.9578 83.2222 85.86 85.2946 84.9616C86.4929 84.4416 87.2981 84.2856 88.1655 84.0495C88.6717 83.9108 92.4915 82.8415 95.7934 80.3805C96.9697 79.5043 100.372 76.9673 102.049 72.7793C102.508 71.6372 102.753 70.5757 103.809 69.3941C105.502 67.5044 107.713 67.0433 108.092 66.9692C109.469 66.7025 110.544 66.9037 111.003 66.9706C112.911 67.2548 115.921 67.0024 120.686 64.5156" stroke="black" stroke-linecap="round" stroke-linejoin="round"/>
<path d="M121.309 59.4273C121.604 60.6617 121.472 61.4194 121.058 61.8373C120.532 62.3707 119.755 62.1498 119.508 62.6704C119.275 63.158 119.663 63.9671 120.239 64.3153C120.851 64.6828 121.474 64.4154 122.411 64.2507C124.09 63.9585 124.2 64.4542 126.852 64.4519C128.165 64.4513 130.488 64.4408 130.61 63.8581C130.751 63.1875 127.933 62.061 127.607 61.9309C126.236 61.3829 125.675 61.4048 124.308 60.9127C122.963 60.4261 121.943 59.8396 121.307 59.4302L121.309 59.4273Z" stroke="black" stroke-linecap="round" stroke-linejoin="round"/>
<path d="M122.678 60.7864C122.665 60.9649 123.438 61.2484 123.539 61.108C123.6 61.0231 123.452 60.7163 123.173 60.6404C122.947 60.5803 122.686 60.6858 122.678 60.7864Z" stroke="black" stroke-linecap="round" stroke-linejoin="round"/>
<path d="M114.686 57.4952C114.87 57.1961 115.391 57.1952 115.714 57.2913C116.231 57.4445 116.721 57.9918 116.582 58.3827C116.447 58.7579 115.756 58.9263 115.27 58.6972C114.795 58.4731 114.473 57.8451 114.687 57.4976L114.686 57.4952Z" stroke="black" stroke-linecap="round" stroke-linejoin="round"/>
</g>
<defs>
<clipPath id="clip0_322_3371">
<rect width="119.946" height="95.7316" fill="white" transform="matrix(-0.977613 0.210411 0.210411 0.977613 117.261 0)"/>
</clipPath>
</defs>
</svg>

