<svg xmlns="http://www.w3.org/2000/svg" width="375" height="86" viewBox="0 0 375 86" fill="none">
<path d="M-183 0V86L-179.462 73.4615L-177.512 69.6923L-174.743 66.5385L-167.568 64L-162.888 62.9231C-162.888 62.9231 -161.133 62.7692 -157.311 61.6154C-153.528 60.4615 -153.762 60.7692 -150.136 58.7692C-146.509 56.7692 -142.921 55.0769 -142.921 55.0769L-141.556 54.3077L-134.653 57.9231L-128.414 61.1538C-128.414 61.1538 -119.561 60.1538 -118.898 60.1538C-118.235 60.1538 -110.981 60.6923 -110.981 60.6923L-103.377 62.6154L-99.867 62.8462L-97.3321 71.6923L-95.8111 72.0769C-95.8111 72.0769 -92.1063 73.1538 -91.0144 73C-89.9224 72.7692 -89.2205 72.5385 -89.2205 72.5385C-89.2205 72.5385 -87.4265 72.0769 -85.8666 71.0769C-84.2677 70.0769 -84.9307 70 -82.9027 69.0769C-80.8748 68.0769 -79.3149 67.9231 -78.8469 66.8461C-78.34 65.7692 -76.4681 67.6154 -76.4681 67.6154L-68.7074 66.7692L-64.2226 65.0769L-61.0638 63.6923L-58.9579 65.4615L-57.047 67.3077L-54.2391 68.9231L-48.0384 68.2308L-43.9046 72.5385L-33.7261 73.1538C-33.7261 73.1538 -32.2052 73.2308 -31.0742 73.0769C-29.9823 72.8462 -28.2663 74.6923 -27.6424 75.3077C-27.0184 75.9231 -24.2885 75.0769 -24.2885 75.0769L-21.8707 75.5385L-18.5948 75.7692L-14.773 72.1538C-14.773 72.1538 -6.54437 70.5385 -4.51646 69.8462C-2.48856 69.1538 -1.86459 70 -1.86459 70L8.15793 72.1538L12.4087 75.2308L17.7905 70L18.8824 69.7692L23.6402 71.7692L30.9329 71.4615L34.9107 71.1538L38.6935 70L40.9554 73.2308L41.5014 71L44.3872 70.6154L45.7132 68.9231H50.3539L51.4459 69.3077L51.2899 72.3846L55.5797 74.6923L62.8723 69.0769L67.5131 68.5385L72.6609 69.7692L74.6108 71L79.8756 73.0769L85.4523 67.0769L91.497 74.9231L93.2129 75.6154L95.7088 75.7692L101.909 73.6923L105.38 71.6923L109.943 72L113.024 72.5385L116.105 72.2308L121.019 70.9231L124.216 75.3077L126.79 75.4615L132.094 75.8461L134.278 76L138.646 76.6154L140.869 76.4615L144.768 73.3077L148.785 72.2308L152.529 72.5385L154.011 74L157.287 74.2308L161.694 74.5385L166.568 73.3077L169.493 72.1538L172.262 71.5385L173.744 70L175.109 68.6923L176.747 66.8461L179.243 64.7692L181.193 64.0769L185.21 64.9231L186.496 65.6154L191.995 65.7692L197.338 64.4615C197.338 64.4615 200.926 62.7692 202.33 61.1538C203.734 59.5385 205.333 57.7692 205.333 57.7692L205.84 56.1538L210.597 58.1538L215.004 65.1538L218.319 64.5385L220.542 64.1538L222.063 64.5385L225.729 66.2308L227.523 65.7692L230.018 64.5385L232.904 63.6154L235.127 63.4615L241.718 63.9231L245.618 65.3077L247.763 66.8461C247.763 66.8461 249.985 66.4615 254.548 62.8462C259.111 59.2308 259.618 62.9231 259.618 62.9231L271.278 71.3077L273.852 72.0769L275.88 71.3846L279.702 69.6923L281.652 70.3846L283.602 71.3846L285.396 70.6923L286.332 69.0769L288.087 69.2308H290.973C290.973 69.2308 300.566 72.0769 301.463 71.5385C302.36 71.0769 304.154 70.0769 304.154 70.0769L307.508 69.2308L310.316 65.5385L312.344 64.8462L314.761 65L317.218 64.6154C317.218 64.6154 322.093 64.1538 323.653 64C325.213 63.8461 328.255 64.3077 328.255 64.3077L331.648 67.6154L334.533 71.7692H339.798L341.319 72C341.319 72 344.049 69.6923 344.673 70.3077C345.297 70.9231 346.389 71 346.389 71L350.289 72.6923L353.136 73.1538L355.709 74.4615C355.709 74.4615 357.893 67.9231 359.258 67.1538L359.609 64.6923L361.871 63.7692L364.055 63.9231L367.604 63.3077C367.604 63.3077 369.164 62.6154 369.866 62.3846C370.529 62.1538 369.944 61 369.983 60.1538C369.983 59.3077 370.685 59.0769 371.933 56.3846L374.273 58.5385L373.922 61.8462L375.599 63.3846L377.938 65.2308L379.42 66.4615L382.462 67.5385L386.557 69.7692L388.546 69.9231H389.638L394.279 70.0769L396.112 68.2308L400.44 70.2308L405.705 63.9231L407.928 63.2308L409.449 59.1538L411.867 59.3077L416.703 59.6923L418.419 60.9231L424.775 61.9231L426.101 61.7692L427.466 60.4615L431.21 60.7692L433.589 62.0769L437.45 64.3077L441.973 66.6154L444.469 64.8462L447.316 65.0769L454.687 67.5385L456.13 70.1538L460.303 70.4615L461.667 69.1538L465.372 69.6923L464.592 72.4615L467.751 70.7692L475.98 69.1538V0H-183Z" fill="#E6643A"/>
</svg>