<svg xmlns="http://www.w3.org/2000/svg" width="1440" height="97" viewBox="0 0 1440 97" fill="none">
<path d="M0 0V96.4876L7.74031 82.4201L12.0065 78.1912L18.0644 74.6527L33.7639 71.8047L44.0027 70.5964C44.0027 70.5964 47.8422 70.4238 56.2039 69.1293C64.4803 67.8347 63.9683 68.1799 71.9034 65.936C79.8384 63.6921 87.6882 61.7935 87.6882 61.7935L90.6745 60.9304L105.777 64.9867L119.428 68.6115C119.428 68.6115 138.797 67.4895 140.247 67.4895C141.698 67.4895 157.568 68.0936 157.568 68.0936L174.206 70.2512L181.885 70.5101L187.431 80.4351L190.759 80.8666C190.759 80.8666 198.864 82.0748 201.253 81.9022C203.642 81.6433 205.178 81.3844 205.178 81.3844C205.178 81.3844 209.103 80.8666 212.516 79.7446C216.014 78.6227 214.564 78.5364 219.001 77.5007C223.437 76.3788 226.85 76.2062 227.874 74.9979C228.983 73.7897 233.079 75.861 233.079 75.861L250.058 74.9116L259.87 73.0129L266.782 71.4595L271.389 73.4445L275.57 75.5158L281.713 77.3281L295.28 76.5514L304.324 81.3844L326.593 82.0748C326.593 82.0748 329.921 82.1611 332.395 81.9885C334.784 81.7296 338.538 83.8009 339.904 84.4913C341.269 85.1818 347.241 84.2324 347.241 84.2324L352.531 84.7503L359.699 85.0092L368.06 80.9529C368.06 80.9529 386.063 79.1405 390.5 78.3638C394.937 77.587 396.302 78.5364 396.302 78.5364L418.23 80.9529L427.531 84.405L439.305 78.5364L441.694 78.2775L452.104 80.5214L468.059 80.1761L476.762 79.8309L485.038 78.5364L489.987 82.1611L491.182 79.6583L497.496 79.2268L500.397 77.3281H510.55L512.939 77.7597L512.598 81.2118L521.983 83.8009L537.939 77.5007L548.092 76.8966L559.355 78.2775L563.621 79.6583L575.14 81.9885L587.341 75.2568L600.566 84.0598L604.32 84.8365L609.781 85.0092L623.347 82.679L630.941 80.4351L640.924 80.7803L647.664 81.3844L654.405 81.0392L665.156 79.572L672.152 84.4913L677.784 84.6639L689.388 85.0955L694.166 85.2681L703.722 85.9585L708.585 85.7859L717.118 82.2474L725.906 81.0392L734.097 81.3844L737.339 83.0242L744.506 83.2831L754.148 83.6283L764.813 82.2474L771.212 80.9529L777.27 80.2625L780.513 78.5364L783.499 77.0692L787.083 74.9979L792.543 72.6677L796.809 71.891L805.598 72.8403L808.413 73.6171L820.444 73.7897L832.133 72.3225C832.133 72.3225 839.983 70.4238 843.055 68.6115C846.126 66.7991 849.625 64.8141 849.625 64.8141L850.734 63.0017L861.143 65.2456L870.785 73.0993L878.037 72.4088L882.901 71.9773L886.228 72.4088L894.249 74.3075L898.173 73.7897L903.634 72.4088L909.948 71.3732L914.811 71.2006L929.231 71.7184L937.763 73.2719L942.456 74.9979C942.456 74.9979 947.32 74.5664 957.302 70.5101C967.285 66.4539 968.394 70.5964 968.394 70.5964L993.906 80.0035L999.537 80.8666L1003.97 80.0899L1012.34 78.1912L1016.6 78.9679L1020.87 80.0899L1024.79 79.3131L1026.84 77.5007L1030.68 77.6733H1036.99C1036.99 77.6733 1057.98 80.8666 1059.95 80.2625C1061.91 79.7446 1065.83 78.6227 1065.83 78.6227L1073.17 77.6733L1079.31 73.5308L1083.75 72.754L1089.04 72.9266L1094.42 72.4951C1094.42 72.4951 1105.08 71.9773 1108.5 71.8047C1111.91 71.6321 1118.56 72.1499 1118.56 72.1499L1125.99 75.861L1132.3 80.5214H1143.82L1147.15 80.7803C1147.15 80.7803 1153.12 78.1912 1154.48 78.8816C1155.85 79.572 1158.24 79.6583 1158.24 79.6583L1166.77 81.557L1173 82.0748L1178.63 83.542C1178.63 83.542 1183.41 76.2062 1186.4 75.3431L1187.16 72.5814L1192.11 71.5458L1196.89 71.7184L1204.65 71.028C1204.65 71.028 1208.07 70.2512 1209.6 69.9923C1211.05 69.7334 1209.77 68.4389 1209.86 67.4895C1209.86 66.5402 1211.39 66.2813 1214.13 63.2606L1219.24 65.6771L1218.48 69.3882L1222.15 71.1143L1227.27 73.1856L1230.51 74.5664L1237.16 75.7747L1246.12 78.2775L1250.47 78.4501H1252.86L1263.02 78.6227L1267.03 76.5514L1276.5 78.7953L1288.02 71.7184L1292.88 70.9417L1296.21 66.3676L1301.5 66.5402L1312.08 66.9717L1315.83 68.3525L1329.74 69.4745L1332.64 69.3019L1335.63 67.8347L1343.82 68.1799L1349.02 69.6471L1357.47 72.1499L1367.37 74.739L1372.83 72.754L1379.06 73.0129L1395.18 75.7747L1398.34 78.709L1407.47 79.0542L1410.45 77.587L1418.56 78.1912L1416.85 81.2981L1423.76 79.3994L1441.77 77.587V0H0Z" fill="#E6643A"/>
</svg>