<svg width="187" height="251" viewBox="0 0 187 251" fill="none" xmlns="http://www.w3.org/2000/svg">
<g clip-path="url(#clip0_300_2692)">
<path d="M161.216 20.193C160.69 20.3619 162.268 25.1552 160.917 25.8827C159.041 26.8959 153.788 18.881 151.788 19.8943C150.398 20.5957 152.781 24.5252 151.34 29.325C149.489 35.4758 143.412 36.2942 143.555 40.1068C143.646 42.5229 146.152 43.5686 152.087 47.8943C161.566 54.805 160.521 56.0325 165.261 58.5266C173.592 62.9108 184.617 63.1966 185.915 60.1764C186.974 57.7148 180.714 55.0843 173.942 46.1017C164.735 33.891 162.099 19.9137 161.222 20.1995L161.216 20.193Z" stroke="#FBFAF5" stroke-width="2" stroke-linecap="round" stroke-linejoin="round"/>
<path d="M158.625 34.586C158.216 34.4691 157.398 34.2353 157.119 34.586C156.716 35.0861 157.411 36.8073 158.729 37.2749C159.671 37.6127 160.924 37.3074 161.093 36.7358C161.3 36.0474 159.904 34.9497 158.619 34.586H158.625Z" stroke="#FBFAF5" stroke-width="2" stroke-linecap="round" stroke-linejoin="round"/>
<path d="M161.216 20.193C160.878 18.5887 158.768 9.33984 149.924 4.13084C141.503 -0.831356 132.978 1.40942 131.088 1.90305C116.375 5.70263 110.193 21.9207 108.681 25.8762C105.694 33.7092 106.038 38.9636 106.044 54.8764C106.044 64.0149 105.934 77.6934 105.35 94.7363" stroke="#FBFAF5" stroke-width="2" stroke-linecap="round" stroke-linejoin="round"/>
<path d="M146.262 44.1401C144.185 45.004 141.048 46.6862 138.704 49.9272C135.127 54.8764 135.38 60.7414 136.042 66.2881C137.412 77.7454 138.101 83.474 142.886 93.6841C147.827 104.213 151.294 122.587 143.457 156.842" stroke="#FBFAF5" stroke-width="2" stroke-linecap="round" stroke-linejoin="round"/>
<path d="M147.827 110.721C151.184 116.189 155.736 124.945 158.288 136.48C160.794 147.788 164.274 164.272 155.242 179.282C146.516 193.785 130.205 198.079 125.764 199.066C119.089 200.547 117.505 199.352 84.8773 193.357C61.6126 189.083 56.626 188.628 49.1265 183.653C46.7111 182.049 38.3415 176.21 32.0108 165.201C28.4137 158.946 22.6024 148.84 24.5957 137.24C26.0762 128.627 30.7382 125.659 33.3484 111.974C34.1146 107.954 34.4067 104.563 34.5301 102.277" stroke="#FBFAF5" stroke-width="2" stroke-linecap="round" stroke-linejoin="round"/>
<path d="M105.791 74.1342C95.2142 75.8748 86.994 78.3234 81.3516 80.2849C75.1832 82.4283 73.3456 83.409 68.1057 84.7795C58.2298 87.358 55.8403 85.2341 47.0552 86.6695C35.4521 88.5661 27.3358 94.2882 22.6998 97.5487C12.0901 105.018 6.22041 113.715 6.61648 114.111C7.0645 114.559 14.4341 103.277 26.0112 101.101C36.4521 99.14 46.4579 105.304 53.4444 111.039" stroke="#FBFAF5" stroke-width="2" stroke-linecap="round" stroke-linejoin="round"/>
<path d="M6.62305 114.104C8.03853 116.969 10.5578 121.184 14.8303 125.263C18.7326 128.991 22.6544 131.219 25.4269 132.524" stroke="#FBFAF5" stroke-width="2" stroke-linecap="round" stroke-linejoin="round"/>
<path d="M30.7382 163.213C26.0047 168.416 19.2 176.71 12.8628 188.063C4.61661 202.826 0.168872 217.375 1.09738 217.83C1.70123 218.129 3.19464 214.94 8.19429 211.426C11.1356 209.36 12.6096 208.321 14.2523 208.484C19.7 209.01 21.0505 221.077 24.6347 220.948C27.1021 220.857 26.6411 215.128 31.381 211.082C37.2118 206.106 43.8412 209.705 46.6072 205.717C48.5746 202.878 45.88 199.592 43.1464 188.232C42.0361 183.614 41.4128 179.789 41.0686 177.327" stroke="#FBFAF5" stroke-width="2" stroke-linecap="round" stroke-linejoin="round"/>
<path d="M24.628 220.948C24.0176 213.452 24.0306 202.768 27.0499 190.486C29.1147 182.107 32.0366 175.184 34.7636 169.864" stroke="#FBFAF5" stroke-width="2" stroke-linecap="round" stroke-linejoin="round"/>
<path d="M109.259 198.215C110.012 208.081 108.577 215.868 107.246 220.889C105.674 226.787 104.577 230.911 101.09 234.866C94.9479 241.836 85.7732 243.323 86.1173 244.518C86.4939 245.836 97.3113 242.972 99.6294 246.999C100.318 248.194 100.084 249.682 100.999 249.987C102.155 250.376 102.967 248.162 105.48 247.376C107.155 246.85 107.739 247.532 111.401 247.85C113.947 248.071 117.167 248.344 117.55 247.376C118.057 246.103 112.96 244.427 111.401 240.03C110.388 237.166 111.265 234.256 112.064 232.379C112.064 232.379 114.206 224.578 116.719 213.68C117.44 210.536 118.135 206.126 118.654 200.729" stroke="#FBFAF5" stroke-width="2" stroke-linecap="round" stroke-linejoin="round"/>
<path d="M138.595 13.9513C138.744 12.8341 137.666 11.8144 136.874 11.3663C135.621 10.6648 133.549 10.5284 132.718 11.756C131.861 13.016 132.679 15.1918 134.205 15.9128C135.978 16.7441 138.387 15.4711 138.595 13.9513Z" stroke="#FBFAF5" stroke-width="2" stroke-linecap="round" stroke-linejoin="round"/>
</g>
<defs>
<clipPath id="clip0_300_2692">
<rect width="187" height="251" fill="white"/>
</clipPath>
</defs>
</svg>
